<?xml version="1.0" standalone="no"?>
<!DOCTYPE svg PUBLIC "-//W3C//DTD SVG 1.1//EN" "http://www.w3.org/Graphics/SVG/1.1/DTD/svg11.dtd" >
<svg xmlns="http://www.w3.org/2000/svg" xmlns:xlink="http://www.w3.org/1999/xlink" version="1.1">
<metadata>
Created by FontForge 20170910 at Wed Jan 23 11:35:26 2019
 By Jimmy Wärting
Copyright (c) 2019 by Syahputra/Bexxtype. All rights reserved.
</metadata>
<defs>
<font id="andayani" horiz-adv-x="321" >
  <font-face 
    font-family="andayani"
    font-weight="400"
    font-stretch="normal"
    units-per-em="1000"
    panose-1="2 0 5 6 2 0 0 2 0 3"
    ascent="800"
    descent="-200"
    x-height="345"
    cap-height="725"
    bbox="-760.988 -174.037 2978.71 856"
    underline-thickness="50"
    underline-position="-100"
    stemh="21"
    stemv="21"
    unicode-range="U+000D-FB02"
  />
<missing-glyph horiz-adv-x="280" 
 />
    <glyph glyph-name="a_n_d_a_y_a_n_i" unicode="andayani" horiz-adv-x="2471" 
d="M793 311c-10 28 -35 28 -52 2c-16 -25 -32 -68 -37 -97c-6 -26 -3 -41 17 -15c23 29 55 82 72 110zM1573 550c-2 13 18 18 20 4c14 -67 -57 -107 -113 -119c-176 -35 -379 107 -540 -39c-9 -9 -24 7 -13 16c28 26 63 78 79 113c23 48 13 75 -33 21
c-62 -72 -118 -261 -136 -357c-6 -40 -9 -72 38 -27c35 36 77 95 108 138c8 11 26 -1 18 -13c-31 -43 -75 -104 -111 -140c-97 -84 -129 12 -106 109c-16 -26 -35 -54 -52 -73c-46 -53 -99 -29 -93 38c4 43 34 115 74 135c31 16 72 3 92 -24c23 72 67 197 122 245
c54 45 147 44 98 -60c-8 -19 -19 -39 -34 -61c155 79 328 -30 485 0c42 10 108 39 97 94zM1381 339c-4 -14 -42 -125 -49 -173c-4 -27 1 -35 27 0c22 32 52 80 75 119c17 30 30 54 38 64c12 7 70 6 61 -29c-37 -127 -62 -280 -130 -393c-109 -178 -315 -39 -165 99
c-138 -27 -283 49 -417 22c-44 -8 -109 -38 -98 -93c3 -14 -19 -18 -21 -4c-14 67 59 107 115 119c155 31 333 -78 484 0c11 6 24 -11 11 -19c-196 -103 -68 -270 27 -114c42 71 88 251 112 336c-23 -40 -52 -87 -75 -119c-36 -49 -100 -63 -103 4c-1 62 33 159 42 182
c8 28 70 13 66 -1zM2329 354c-16 -54 -40 -121 -48 -177c-4 -32 -4 -48 33 -24c145 89 344 237 505 242c176 5 182 -130 134 -266c-4 -14 -24 -6 -20 8c42 120 46 241 -114 237c-154 -6 -356 -154 -497 -243c-57 -37 -107 -21 -103 49c4 53 23 121 42 174c8 22 73 17 68 0z
M2326 471c22 -5 27 -29 22 -48c-4 -19 -22 -36 -43 -31c-20 6 -27 30 -21 49c5 18 22 36 42 30zM87 339c-20 -26 -36 -83 -43 -117c-3 -16 -1 -28 15 -8c22 28 57 85 75 115c-8 22 -31 31 -47 10zM-632 353c6 14 26 7 22 -6c-65 -181 0 -276 204 -229
c154 35 343 142 437 238c33 34 83 38 116 -7c8 30 70 8 62 -18c-12 -35 -42 -131 -46 -184c-2 -32 19 -18 46 10c37 39 83 101 112 143c8 12 25 -1 17 -12c-29 -43 -76 -107 -113 -146c-24 -24 -66 -64 -102 -37c-44 33 -16 117 -3 160c-17 -25 -35 -51 -51 -68
c-34 -38 -88 -9 -84 40c1 17 5 39 14 62c-104 -86 -265 -172 -399 -202c-222 -51 -300 60 -232 256zM400 353c-16 -56 -28 -118 -41 -177c29 49 60 100 96 144c48 60 106 28 86 -40c-11 -38 -25 -83 -26 -120c-1 -32 18 -22 42 3c34 35 79 95 108 137c8 12 25 0 17 -12
c-30 -43 -75 -103 -111 -140c-42 -44 -128 -64 -123 22c3 37 20 89 30 120c7 23 9 36 -14 7c-41 -54 -85 -122 -116 -181c-23 -21 -70 -6 -60 42c13 64 28 132 44 194c7 27 72 16 68 1zM1070 338c-20 -24 -37 -83 -43 -116c-3 -16 -1 -27 15 -8c23 28 57 86 75 115
c-8 21 -30 30 -47 9zM1130 350c8 29 70 8 62 -20c-12 -33 -42 -131 -46 -183c-2 -31 19 -19 46 9c37 39 83 102 112 144c8 12 25 0 17 -12c-29 -43 -76 -106 -115 -146c-22 -24 -64 -65 -100 -38c-44 35 -16 118 -3 162c-17 -25 -35 -51 -52 -69c-35 -36 -88 -8 -84 40
c3 44 29 117 69 138c33 16 73 2 94 -25zM1667 338c-20 -24 -37 -83 -43 -116c-3 -16 -1 -27 15 -8c23 28 57 86 75 115c-8 21 -30 30 -47 9zM1727 350c8 29 70 8 62 -20c-12 -33 -42 -131 -46 -183c-2 -31 19 -19 46 9c37 39 83 102 112 144c8 12 25 0 17 -12
c-29 -43 -76 -106 -115 -146c-22 -24 -64 -65 -100 -38c-44 35 -16 118 -3 162c-17 -25 -35 -51 -52 -69c-35 -36 -88 -8 -84 40c3 44 29 117 69 138c33 16 73 2 94 -25zM1980 353c-16 -56 -28 -118 -41 -177c29 49 60 100 96 144c48 60 106 28 86 -40
c-11 -38 -25 -83 -26 -120c-1 -32 18 -22 42 3c34 35 79 95 108 137c8 12 25 0 17 -12c-30 -43 -75 -103 -111 -140c-42 -44 -128 -64 -123 22c3 37 20 89 30 120c7 23 9 36 -14 7c-41 -54 -85 -122 -116 -181c-23 -21 -70 -6 -60 42c13 64 28 132 44 194c7 27 72 16 68 1z
" />
    <glyph glyph-name="r_r" unicode="rr" horiz-adv-x="463" 
d="M27 309c18 -5 59 -13 71 -18c5 -4 5 -10 4 -15c-12 -42 -19 -58 -28 -99c-5 -27 -21 -134 23 -86c49 52 97 141 130 203c-11 8 -19 19 -18 34c3 41 68 55 58 1c-2 -6 -4 -13 -7 -20c16 -5 59 -13 70 -18c6 -4 6 -10 5 -15c-12 -42 -19 -58 -28 -99c-6 -27 -22 -91 23 -44
c50 53 89 105 133 167c8 12 26 0 18 -12c-46 -63 -89 -122 -142 -174c-68 -64 -113 5 -96 83c8 35 13 44 24 77c-7 3 -15 5 -22 9c-35 -64 -86 -162 -139 -211c-68 -64 -112 47 -95 125c8 35 12 44 23 77c-24 10 -59 23 -58 54c3 41 69 55 58 1c-2 -6 -4 -13 -7 -20z
M240 317c3 6 4 12 5 18c4 21 -13 1 -15 -7c0 -5 3 -8 10 -11zM7 317c3 6 5 12 5 18c6 21 -13 1 -14 -7c0 -5 2 -8 9 -11z" />
    <glyph glyph-name="s_s" unicode="ss" horiz-adv-x="386" 
d="M386 300c11 11 25 -4 16 -14c-55 -55 -82 -73 -147 -116c-10 -61 -35 -152 -78 -200c-88 -97 -207 -22 -122 87c35 44 82 67 127 95c6 31 10 70 15 109c-48 -45 -99 -85 -154 -121c-11 -63 -37 -154 -79 -201c-87 -96 -206 -21 -121 87c35 44 81 67 127 94
c15 68 20 222 63 283c26 38 71 20 66 -16c-35 -41 -47 -174 -52 -219c55 38 108 80 155 127c7 40 17 78 38 108c25 38 72 20 66 -16c-34 -39 -41 -134 -47 -188c57 40 79 52 127 101zM-36 92c-39 -23 -77 -45 -105 -79c-44 -57 -28 -132 44 -53c30 33 49 89 61 132zM176 122
c-38 -21 -77 -43 -103 -77c-44 -57 -30 -131 43 -52c29 32 49 88 60 129z" />
    <glyph glyph-name="t_t" unicode="tt" horiz-adv-x="365" 
d="M-98 421c1 51 66 63 148 64l3 10c16 52 80 32 76 19l-10 -30c35 -1 72 -4 106 -5l5 16c16 52 79 32 76 19c-3 -11 -8 -23 -12 -36c64 2 110 13 111 49c1 10 21 10 21 0c0 -56 -61 -74 -141 -78c-29 -94 -68 -226 -70 -291c-1 -21 10 -28 43 5c35 35 78 94 107 137
c10 11 26 0 18 -11c-31 -43 -75 -103 -111 -140c-51 -51 -125 -55 -118 29c1 21 6 50 12 82c-30 -62 -64 -134 -83 -158c-52 -67 -119 -25 -113 59c5 65 44 209 71 297c-68 1 -117 -4 -117 -34c0 -18 -22 -16 -22 -3zM216 450c-35 1 -71 3 -106 5c-28 -88 -68 -217 -76 -289
c-5 -43 -3 -95 34 -51c26 33 86 168 118 229c10 37 20 74 30 106z" />
    <glyph glyph-name="f_f" unicode="ff" horiz-adv-x="470" 
d="M150 372c-14 -31 -43 -63 -89 -85c-19 -59 -36 -120 -53 -180c69 26 123 47 224 192c23 64 48 117 70 140c60 66 124 17 85 -67c-13 -31 -41 -63 -88 -85c-20 -59 -26 -82 -43 -142c72 26 157 71 214 155c8 12 27 0 19 -12c-56 -82 -139 -126 -212 -154
c31 -17 82 -48 95 -103c41 -158 -210 -245 -208 -46c0 62 19 158 46 247c-75 -94 -127 -118 -181 -139c42 -21 84 -53 96 -99c39 -156 -220 -256 -212 -37c4 103 95 422 152 482c60 66 123 17 85 -67zM0 82c-9 -40 -18 -83 -20 -125c-6 -186 149 -73 122 30
c-12 48 -57 77 -102 95zM249 119c-10 -40 -20 -83 -21 -123c-7 -187 148 -75 122 28c-12 48 -58 79 -101 95zM70 313c31 19 51 44 62 67c18 40 12 99 -26 26c-12 -23 -24 -57 -36 -93zM307 313c32 19 51 44 61 67c19 40 14 99 -24 26c-12 -23 -25 -57 -37 -93z" />
    <glyph glyph-name=".notdef" horiz-adv-x="280" 
 />
    <glyph glyph-name="NULL" horiz-adv-x="0" 
 />
    <glyph glyph-name="NULL" horiz-adv-x="0" 
 />
    <glyph glyph-name="CR" unicode="&#xd;" horiz-adv-x="280" 
 />
    <glyph glyph-name="space" unicode=" " horiz-adv-x="280" 
 />
    <glyph glyph-name="exclam" unicode="!" horiz-adv-x="329" 
d="M134 156c-4 -13 -40 -8 -36 6c32 166 65 367 106 530c12 44 75 12 74 5c-45 -167 -97 -365 -144 -541zM90 93c23 0 40 -20 40 -41c0 -23 -17 -43 -40 -43c-22 0 -40 20 -40 43c0 21 18 41 40 41z" />
    <glyph glyph-name="quotedbl" unicode="&#x22;" horiz-adv-x="230" 
d="M67 731c50 0 16 -82 37 -82c0 -25 -40 -43 -52 -11c-9 25 23 70 12 70c-15 0 -11 23 3 23zM143 731c50 0 16 -82 37 -82c0 -25 -40 -43 -52 -11c-9 25 23 70 12 70c-15 0 -11 23 3 23z" />
    <glyph glyph-name="numbersign" unicode="#" horiz-adv-x="477" 
d="M118 269h-57c-14 0 -14 30 0 30l63 -2l24 105h-87c-14 0 -14 29 0 29l93 -1c16 72 34 144 52 215c13 44 57 12 55 7c-18 -75 -37 -149 -57 -222l97 -2c18 73 35 145 54 217c11 44 56 12 55 7l-58 -224h63c15 0 15 -29 0 -29h-71c-9 -33 -17 -68 -26 -103h97
c15 0 15 -29 0 -29h-106c-10 -39 -20 -78 -32 -118c-2 -15 -38 -10 -34 4c6 39 14 76 22 115h-103l-32 -119c-4 -15 -39 -10 -36 4zM295 400h-98l-28 -103l103 -1c7 35 15 70 23 104z" />
    <glyph glyph-name="dollar" unicode="$" horiz-adv-x="455" 
d="M175 4l-20 -79c-4 -13 -40 -8 -38 6l23 87c-82 41 -132 148 -41 313c8 12 25 1 18 -11c-83 -150 -40 -247 28 -282c26 103 53 207 78 310c-65 71 -104 151 -84 239c21 99 109 140 178 128c8 27 14 53 21 80c4 13 40 8 36 -5c-6 -30 -15 -58 -21 -87
c40 -22 64 -66 45 -133c-2 -13 -24 -8 -20 7c16 56 -1 92 -31 107c-26 -104 -53 -209 -80 -313c58 -62 126 -111 118 -222c-9 -125 -119 -170 -210 -145zM254 317c-26 -97 -50 -195 -74 -291c66 -14 139 25 147 124c6 76 -32 122 -73 167zM238 406l73 285
c-45 0 -97 -36 -113 -103c-14 -64 1 -132 40 -182z" />
    <glyph glyph-name="percent" unicode="%" horiz-adv-x="614" 
d="M232 8c-3 -13 -41 -8 -39 6c59 230 115 464 176 693c2 13 40 8 36 -6c-60 -232 -114 -461 -173 -693zM197 659c-14 0 -14 21 0 21c62 0 83 -58 82 -110c-7 -158 -228 -207 -228 -20c-1 83 51 178 169 174c13 -1 13 -23 -1 -21c-64 2 -105 -83 -109 -154
c-6 -154 142 -106 148 23c1 38 -14 87 -61 87zM481 241c-13 0 -13 22 0 22c62 0 83 -57 82 -109c-6 -158 -227 -207 -228 -20c0 83 51 178 169 174c14 -1 13 -23 -2 -21c-64 2 -104 -83 -107 -154c-8 -154 142 -106 146 22c2 39 -12 86 -60 86z" />
    <glyph glyph-name="ampersand" unicode="&#x26;" horiz-adv-x="735" 
d="M323 639c-26 -69 2 -144 72 -173c13 -5 5 -26 -8 -20c-54 21 -117 20 -165 -12c-56 -38 -92 -105 -105 -169c-37 -166 57 -246 156 -245c142 3 228 173 161 285c-81 -65 -139 -125 -101 -175c8 -11 -8 -24 -17 -13c-142 182 400 364 326 492c-10 9 3 24 14 15
c98 -87 -74 -201 -205 -305c84 -136 -28 -323 -198 -323c-119 2 -234 91 -194 273c17 81 67 165 145 198c28 12 58 19 92 15c-47 51 -54 139 -13 195c64 89 183 20 121 -109c-6 -12 -25 -3 -20 9c48 99 -23 163 -61 62z" />
    <glyph glyph-name="quotesingle" unicode="'" horiz-adv-x="154" 
d="M67 731c50 0 16 -82 37 -82c0 -25 -40 -43 -52 -11c-9 25 23 70 12 70c-15 0 -11 23 3 23z" />
    <glyph glyph-name="parenleft" unicode="(" horiz-adv-x="419" 
d="M173 -27c14 0 14 -21 0 -21c-255 0 -74 763 185 763c14 0 14 -22 0 -22c-184 0 -337 -720 -185 -720z" />
    <glyph glyph-name="parenright" unicode=")" horiz-adv-x="419" 
d="M246 694c-14 0 -14 21 0 21c255 0 74 -763 -185 -763c-14 0 -14 22 0 22c184 0 337 720 185 720z" />
    <glyph glyph-name="asterisk" unicode="*" horiz-adv-x="275" 
d="M139 626l-57 -57c-12 -8 -34 21 -23 29l63 42l-67 25c-12 6 5 40 17 34l57 -39l-7 63c0 15 36 15 36 1l-8 -64l54 37c13 7 29 -30 16 -36l-62 -21l62 -40c10 -10 -11 -38 -22 -30z" />
    <glyph glyph-name="plus" unicode="+" horiz-adv-x="469" 
d="M220 301l-159 2c-14 0 -14 29 1 29l158 -1l1 158c0 14 30 14 30 0l-2 -160h158c15 0 15 -29 0 -29l-158 1l-1 -159c0 -13 -29 -13 -29 0z" />
    <glyph glyph-name="comma" unicode="," horiz-adv-x="184" 
d="M84 113c38 0 38 -58 46 -62c10 -6 0 -35 -21 -35c-14 0 -20 12 -22 26c-22 0 -37 17 -37 36c0 18 14 35 34 35z" />
    <glyph glyph-name="hyphen" unicode="-" horiz-adv-x="468" 
d="M407 276l-346 3c-14 0 -14 29 0 29l346 -3c14 0 14 -29 0 -29z" />
    <glyph glyph-name="period" unicode="." horiz-adv-x="167" 
d="M84 110c19 0 33 -17 33 -35c0 -19 -14 -36 -33 -36s-34 17 -34 36c0 18 15 35 34 35z" />
    <glyph glyph-name="slash" unicode="/" horiz-adv-x="313" 
d="M87 8c-3 -13 -40 -8 -36 6c58 230 114 463 174 693c4 13 40 8 37 -6c-60 -230 -116 -461 -175 -693z" />
    <glyph glyph-name="zero" unicode="0" horiz-adv-x="339" 
d="M238 475c103 -16 86 -182 64 -258c-17 -66 -50 -127 -92 -162c-63 -52 -166 -42 -185 56c-22 119 31 353 136 412c41 24 95 15 112 -32c5 -13 -15 -21 -19 -8c-14 35 -44 29 -69 5c-77 -71 -118 -254 -105 -360c11 -80 46 -105 105 -33c36 45 59 112 69 158
c11 53 20 174 -44 198c-5 16 8 27 28 24z" />
    <glyph glyph-name="one" unicode="1" horiz-adv-x="227" 
d="M206 502c-32 -157 -63 -313 -96 -470c-20 -17 -60 -8 -52 27c30 143 58 286 87 431c-31 -25 -71 -50 -103 -71c-15 -11 -31 20 -15 29c25 16 84 48 112 68c42 31 71 10 67 -14z" />
    <glyph glyph-name="two" unicode="2" horiz-adv-x="287" 
d="M266 424c-11 -126 -157 -238 -185 -360c20 9 47 3 74 -4c29 -8 60 -16 73 4c8 11 26 0 18 -12c-22 -32 -61 -23 -97 -13c-30 8 -60 16 -72 -6c-8 -12 -60 -17 -56 16c12 126 176 253 187 378c6 60 -17 87 -48 88c-102 3 -138 -197 -52 -153c12 7 23 -12 11 -18
c-124 -64 -102 199 56 195c52 -1 97 -41 91 -115z" />
    <glyph glyph-name="three" unicode="3" horiz-adv-x="313" 
d="M146 391c14 2 19 -19 4 -22c-104 -23 -108 174 46 171c135 -4 115 -195 22 -246c44 -18 53 -77 49 -118c-24 -190 -247 -203 -247 -52c0 42 16 97 51 121c11 8 24 -10 12 -18c-28 -20 -40 -67 -41 -100c-3 -122 147 -108 167 53c5 49 -9 97 -64 104c-12 1 -12 20 0 21
c96 12 136 210 29 209c-95 0 -100 -139 -28 -123z" />
    <glyph glyph-name="four" unicode="4" horiz-adv-x="293" 
d="M267 500c-23 -109 -44 -220 -67 -332c27 0 47 2 54 11c6 12 25 1 17 -11c-11 -18 -40 -21 -75 -20c-11 -50 -20 -93 -24 -116c-4 -16 -62 -13 -58 4c6 25 14 67 24 116c-42 4 -84 7 -100 -6c-9 -7 -23 2 -16 13l194 371c13 17 58 5 51 -30zM142 174c19 92 38 186 58 279
l-147 -279c25 4 57 2 89 0z" />
    <glyph glyph-name="five" unicode="5" horiz-adv-x="330" 
d="M306 516c10 -9 -4 -24 -15 -14c-15 14 -99 -2 -127 -6l-42 -146c38 10 85 0 110 -29c39 -44 32 -126 5 -187c-73 -172 -236 -118 -214 18c3 15 24 11 22 -2c-18 -111 83 -134 136 -8c18 40 35 116 6 158c-39 56 -138 -3 -125 44l44 154c-12 5 -17 16 -9 32
c5 12 24 5 19 -7c-10 -27 158 25 190 -7z" />
    <glyph glyph-name="six" unicode="6" horiz-adv-x="293" 
d="M150 71c35 31 62 91 66 136c8 77 -43 145 -121 113c-14 -65 -26 -156 -12 -220c14 -51 28 -64 67 -29zM102 344c90 24 144 -56 135 -141c-7 -51 -35 -113 -72 -148c-55 -48 -115 -39 -135 33c-31 103 13 379 121 434c59 29 128 6 121 -70c-1 -15 -23 -13 -22 1
c6 67 -37 66 -72 38c-37 -32 -63 -102 -76 -147z" />
    <glyph glyph-name="seven" unicode="7" horiz-adv-x="244" 
d="M62 478c-4 -14 -24 -8 -21 5c15 49 144 27 167 49c7 7 24 -4 10 -21c-38 -48 -67 -153 -83 -214c26 -1 50 -1 50 4c0 13 22 12 22 -1c-1 -27 -38 -26 -78 -25c-25 -103 -43 -204 -44 -242c-1 -17 -59 -16 -57 2c1 37 17 137 42 239c-16 -3 -28 -8 -29 -19
c-1 -13 -21 -10 -20 3c3 26 25 35 55 38c16 65 39 145 72 203c-39 -3 -82 -8 -86 -21z" />
    <glyph glyph-name="eight" unicode="8" horiz-adv-x="343" 
d="M142 167c11 11 25 28 38 50c-19 18 -42 33 -60 50c-20 -36 -36 -78 -42 -120c-23 -169 126 -76 130 1c1 16 -1 28 -7 39c-14 -15 -30 -28 -45 -36c-12 -7 -22 8 -14 16zM217 205c8 -16 14 -34 12 -57c-6 -116 -219 -198 -208 -16c4 61 32 125 67 174
c-16 28 -23 64 -8 118c42 157 271 166 239 -16c-12 -70 -55 -150 -102 -203zM192 235c29 53 60 118 70 177c26 151 -130 122 -162 7c-11 -40 -8 -70 2 -94c36 45 85 80 139 90c12 2 19 -16 6 -20c-46 -18 -86 -59 -117 -109c19 -19 42 -32 62 -51z" />
    <glyph glyph-name="nine" unicode="9" horiz-adv-x="292" 
d="M141 488c-35 -32 -60 -91 -65 -136c-8 -77 42 -145 120 -113c16 65 28 156 12 220c-12 51 -28 64 -67 29zM189 215c-89 -24 -144 56 -133 141c5 51 33 114 72 148c53 48 113 39 135 -33c29 -103 -13 -379 -123 -434c-59 -29 -126 -6 -119 71c1 14 21 12 21 -2
c-7 -67 36 -66 71 -38c38 32 63 102 76 147z" />
    <glyph glyph-name="colon" unicode=":" horiz-adv-x="224" 
d="M98 308c27 0 48 -24 48 -49c0 -29 -21 -51 -48 -51c-28 0 -48 22 -48 51c0 25 20 49 48 49zM126 458c27 0 48 -23 48 -50c0 -26 -21 -50 -48 -50c-28 0 -48 24 -48 50c0 27 20 50 48 50z" />
    <glyph glyph-name="semicolon" unicode=";" horiz-adv-x="215" 
d="M117 458c28 0 48 -23 48 -50c0 -26 -20 -50 -48 -50c-27 0 -49 24 -49 50c0 27 22 50 49 50zM89 306c43 0 43 -66 53 -71c11 -7 0 -40 -24 -40c-17 0 -23 14 -26 30c-25 0 -42 19 -42 41c0 21 16 40 39 40z" />
    <glyph glyph-name="less" unicode="&#x3c;" horiz-adv-x="325" 
d="M80 341l166 -177c9 -11 -7 -26 -16 -15l-169 180c-12 14 -16 30 -1 39l196 142c12 8 26 -24 15 -32z" />
    <glyph glyph-name="equal" unicode="=" horiz-adv-x="467" 
d="M406 236l-346 2c-13 0 -13 30 0 30l346 -3c14 0 14 -29 0 -29zM406 379l-346 1c-13 0 -13 30 0 30l346 -3c14 0 14 -28 0 -28z" />
    <glyph glyph-name="greater" unicode="&#x3e;" horiz-adv-x="326" 
d="M246 315l-166 178c-9 10 7 25 16 14l169 -180c12 -12 16 -28 1 -39l-197 -142c-12 -8 -26 24 -14 32z" />
    <glyph glyph-name="question" unicode="?" horiz-adv-x="340" 
d="M289 501c-11 -127 -184 -266 -169 -357c-8 -12 -60 -18 -56 16c12 132 155 211 167 342c5 60 -19 87 -48 88c-102 4 -138 -196 -52 -152c12 7 23 -12 9 -19c-122 -64 -100 199 58 195c52 -1 97 -40 91 -113zM90 114c23 0 40 -20 40 -41c0 -23 -17 -43 -40 -43
c-22 0 -40 20 -40 43c0 21 18 41 40 41z" />
    <glyph glyph-name="at" unicode="@" horiz-adv-x="633" 
d="M274 415c-20 -25 -36 -84 -41 -118c-4 -16 -3 -26 13 -6c24 26 58 84 76 113c-9 23 -32 31 -48 11zM562 263c4 13 24 8 20 -6c-68 -265 -446 -370 -518 -116c-47 166 38 427 177 530c112 83 301 63 301 -123c0 -114 -62 -261 -129 -350c-48 -64 -115 -40 -125 24
c-6 39 12 89 20 119c-16 -25 -35 -52 -51 -69c-35 -38 -88 -8 -84 40c2 44 29 118 69 138c31 16 72 3 93 -24c9 28 70 8 61 -20c-11 -34 -43 -131 -45 -184c0 -54 22 -41 49 -2c63 87 121 218 121 328c0 163 -141 187 -251 89c-116 -102 -194 -337 -148 -491
c69 -243 382 -104 440 117z" />
    <glyph glyph-name="A" unicode="A" horiz-adv-x="640" 
d="M576 23c14 0 14 -22 0 -22c-109 0 -121 106 -117 192c-48 -2 -97 2 -146 4c-68 -97 -162 -214 -293 -196c-14 2 -11 23 4 20c67 -9 150 69 226 174c-40 -2 -70 -13 -78 -38c-2 -14 -24 -8 -20 5c12 41 56 53 114 56c115 167 214 395 229 490c16 16 67 19 68 -40
c0 -131 -68 -308 -82 -454c42 3 77 11 91 32c8 11 26 -1 18 -13c-20 -27 -62 -38 -110 -40c-4 -71 3 -170 96 -170zM460 214c12 146 79 317 83 448c-31 -108 -116 -297 -215 -444c44 -1 88 -5 132 -4z" />
    <glyph glyph-name="B" unicode="B" horiz-adv-x="483" 
d="M264 610c91 -95 -134 -385 -76 -500c-11 -19 -54 -27 -63 10c-33 132 174 421 78 483c8 30 40 30 61 7zM385 218c9 71 -25 129 -97 143c-10 3 -12 18 -2 20c74 32 145 106 135 193c-19 155 -228 155 -311 25c-32 -50 -52 -123 -44 -183c3 -15 -19 -17 -20 -4
c-11 66 11 143 47 198c96 151 357 142 385 -27c14 -88 -48 -168 -122 -208c70 -27 97 -95 86 -166c-20 -127 -147 -209 -258 -209c-236 -1 -214 347 -40 364c13 1 16 -20 1 -21c-147 -15 -162 -322 24 -320c92 1 202 80 216 195z" />
    <glyph glyph-name="C" unicode="C" horiz-adv-x="387" 
d="M406 290c-44 -90 -112 -192 -175 -246c-73 -64 -172 -71 -205 36c-52 170 29 569 227 628c170 52 187 -153 53 -206c-12 -6 -20 13 -8 18c110 45 102 221 -28 158c-162 -79 -238 -436 -186 -596c29 -89 86 -66 139 -16c60 54 122 148 164 234c5 11 25 1 19 -10z" />
    <glyph glyph-name="D" unicode="D" horiz-adv-x="503" 
d="M128 110c-23 63 13 159 49 253c41 104 73 206 19 240c3 25 46 23 62 7c48 -49 16 -151 -24 -255c-36 -94 -74 -190 -46 -245c-5 -20 -51 -24 -60 0zM220 58c159 117 276 440 119 592c-81 78 -176 42 -235 -52c-34 -51 -54 -124 -43 -185c1 -14 -19 -17 -21 -4
c-11 66 10 145 45 200c63 100 194 148 289 71c197 -160 55 -554 -132 -656c-238 -129 -325 278 -101 337c13 4 19 -17 5 -20c-192 -36 -121 -426 74 -283z" />
    <glyph glyph-name="E" unicode="E" horiz-adv-x="490" 
d="M454 597c-10 -11 -26 5 -15 14c48 49 19 115 -61 86c-108 -39 -126 -176 -23 -219c10 -4 5 -23 -7 -20c-135 29 -251 -33 -276 -193c-35 -221 190 -316 300 -158c63 91 63 230 -56 270c-13 6 -5 26 7 20c132 -45 137 -199 67 -302c-112 -164 -421 -94 -375 171
c21 121 108 236 231 229c-68 83 19 221 121 237c100 16 155 -66 87 -135z" />
    <glyph glyph-name="F" unicode="F" horiz-adv-x="303" 
d="M121 538c0 -15 -21 -15 -21 -1c-7 136 112 152 206 157c20 22 49 34 79 34c54 1 53 -36 8 -47c-11 -3 -25 -4 -38 -5c-33 -42 -78 -133 -126 -236c35 0 66 3 73 16c6 12 25 3 18 -9c-13 -26 -55 -28 -100 -28c-60 -129 -165 -422 -314 -418c-15 0 -14 22 0 20
c85 -1 219 324 254 399c-31 0 -56 -3 -63 -15c-8 -12 -26 -1 -19 11c13 23 51 26 92 26c45 93 85 180 120 230c-82 -7 -174 -26 -169 -134z" />
    <glyph glyph-name="G" unicode="G" horiz-adv-x="550" 
d="M349 621c-4 -14 -25 -7 -20 7c26 74 -53 86 -95 34c-43 -53 -82 -178 -70 -246c9 -45 43 -24 67 -5c57 41 142 138 174 198c13 10 57 2 55 -27c-8 -71 -47 -235 -73 -314c60 6 117 12 163 32c12 6 22 -14 8 -20c-52 -21 -113 -29 -178 -33c-40 -121 -116 -272 -240 -324
c-194 -82 -309 191 -67 298c76 34 172 38 255 43c23 72 62 228 70 295c-40 -56 -102 -128 -159 -168c-39 -27 -98 -50 -126 8c-32 68 24 231 76 286c58 60 197 43 160 -64zM320 243c-84 -6 -170 -11 -239 -42c-218 -96 -119 -350 52 -237c94 62 151 176 187 279z" />
    <glyph glyph-name="H" unicode="H" horiz-adv-x="538" 
d="M131 538c2 -15 -20 -15 -22 -1c-24 136 93 152 186 157c17 22 43 35 71 37c53 1 66 -38 18 -50c-11 -3 -25 -4 -38 -5c-53 -79 -93 -238 -127 -337c50 4 103 2 153 8c37 127 85 240 125 363c6 15 45 10 57 -9c-38 -114 -83 -222 -118 -338c21 9 36 22 43 44
c4 12 25 2 20 -10c-11 -33 -37 -52 -71 -61c-29 -105 -52 -206 -44 -266c4 -31 16 -49 39 -49c15 0 18 -21 3 -21c-36 0 -90 1 -100 70c-8 58 11 155 40 254c-51 -4 -103 -3 -154 -8c-27 -78 -54 -153 -82 -210c-95 -198 -263 -94 -167 103c39 80 118 109 195 123
c35 108 71 243 123 340c-80 -7 -170 -26 -150 -134zM74 116c25 53 51 121 75 192c-65 -14 -131 -42 -164 -109c-67 -131 10 -263 89 -83z" />
    <glyph glyph-name="I" unicode="I" horiz-adv-x="284" 
d="M158 538c0 -15 -22 -15 -22 -1c-7 136 113 152 206 157c15 16 31 26 48 31c70 22 102 -29 39 -44c-11 -3 -24 -4 -39 -5c-37 -47 -87 -157 -141 -273c-45 -97 -129 -299 -208 -367c-67 -59 -138 -49 -127 51c3 20 8 44 17 70c4 13 25 5 21 -8c-10 -25 -15 -47 -17 -66
c-9 -84 37 -66 79 -9c70 89 130 234 178 338c50 106 97 205 134 260c-81 -7 -174 -26 -168 -134z" />
    <glyph glyph-name="J" unicode="J" horiz-adv-x="479" 
d="M-36 81c59 108 182 147 295 168c51 129 118 333 181 408c-71 5 -243 27 -267 -63c-4 -13 -24 -8 -21 5c31 111 218 83 305 78c16 16 31 27 54 33c50 14 73 -21 28 -42c-8 -4 -20 -8 -35 -11c-63 -66 -130 -267 -180 -395c57 9 111 18 155 38c13 6 21 -13 9 -20
c-53 -24 -116 -33 -174 -43c-41 -103 -108 -326 -216 -381c-132 -65 -199 103 -134 225zM250 227c-104 -22 -217 -59 -269 -159c-57 -112 5 -264 107 -169c71 65 126 235 162 328z" />
    <glyph glyph-name="K" unicode="K" horiz-adv-x="411" 
d="M352 3c-129 -31 -114 173 -174 257c-46 -130 -110 -259 -196 -259c-71 0 -54 113 -45 152c3 14 24 8 21 -5c-4 -22 -22 -122 15 -122c103 0 204 428 224 489c19 58 36 105 56 144c-80 -18 -169 -48 -151 -154c3 -15 -18 -18 -20 -4c-24 134 92 165 185 182
c11 17 28 29 43 36c66 31 106 -16 44 -39c-10 -4 -22 -7 -37 -9c-22 -37 -43 -93 -67 -167c-10 -32 -25 -94 -46 -164c54 38 122 112 168 183c35 58 120 212 205 189c12 -3 8 -23 -6 -20c-64 6 -123 -122 -150 -169c-54 -96 -141 -201 -215 -225c91 -64 53 -294 143 -274
c12 3 19 -17 3 -21z" />
    <glyph glyph-name="L" unicode="L" horiz-adv-x="369" 
d="M124 312c-13 2 -9 22 4 20c18 -3 34 -4 50 -4c36 104 82 261 140 348c54 80 144 61 138 -48c-6 -124 -112 -279 -223 -312c-39 -109 -78 -212 -118 -267c67 -10 145 -46 210 -29c15 3 20 -17 6 -21c-79 -22 -156 25 -233 32c-15 -14 -34 -26 -54 -27c-25 -3 -49 8 -21 29
c9 7 19 12 29 15c38 42 78 146 118 258c-15 0 -29 2 -46 6zM241 343c95 36 187 176 194 285c4 72 -26 100 -71 22c-52 -85 -108 -266 -123 -307z" />
    <glyph glyph-name="M" unicode="M" horiz-adv-x="636" 
d="M347 697c38 -69 60 -164 67 -243c40 64 147 202 233 247c25 15 63 23 90 16c14 -3 12 -21 0 -21c-23 0 -43 -18 -57 -35c-68 -80 -208 -570 -168 -645c-18 -23 -58 -24 -63 17c-15 130 107 533 160 616c-74 -60 -145 -149 -192 -233c1 -44 -2 -91 -11 -140
c-41 -239 -127 -192 -68 12c13 45 33 91 57 133c-4 83 -22 170 -57 245c-19 -159 -102 -665 -316 -665c-15 0 -15 22 0 22c133 0 261 566 261 679c0 43 39 42 64 -5zM386 278c5 35 8 67 9 98c-14 -31 -28 -63 -37 -94c-46 -156 -9 -211 28 -4z" />
    <glyph glyph-name="N" unicode="N" horiz-adv-x="603" 
d="M370 1c-104 19 -115 364 -118 566c-32 -162 -103 -566 -301 -566c-13 0 -13 22 0 22c133 0 261 563 263 679c0 25 56 29 57 -1c0 -15 2 -44 2 -84c1 -181 17 -573 96 -593c5 106 81 467 187 622c42 62 84 75 133 71c12 -1 9 -21 0 -21c-42 0 -78 -58 -97 -89
c-93 -165 -170 -509 -166 -595c2 -16 -42 -13 -56 -11z" />
    <glyph glyph-name="O" unicode="O" horiz-adv-x="410" 
d="M178 597c-42 -62 -76 -146 -95 -230c22 -14 47 -15 70 -12c15 2 17 -19 4 -21c-27 -4 -53 -2 -78 10c-13 -72 -20 -166 4 -237c29 -84 105 -118 169 -40c68 83 110 243 122 348c25 204 -52 283 -139 283c-135 0 -209 -141 -192 -262c19 60 46 119 77 166
c14 20 49 19 58 -5zM263 47c-67 -75 -180 -63 -224 24c-45 88 -30 230 -6 325c-53 141 46 324 203 324c98 0 186 -87 159 -307c-13 -111 -57 -282 -132 -366z" />
    <glyph glyph-name="P" unicode="P" horiz-adv-x="395" 
d="M445 484c-16 -138 -153 -245 -303 -251c-16 -50 -51 -171 -73 -212c-17 -29 -47 -24 -59 -6c22 72 50 144 75 218c-20 0 -41 0 -59 1c-14 0 -14 22 0 22c21 -2 44 -2 65 -2c10 31 123 376 47 371c-12 20 42 53 72 4c39 -66 -37 -301 -59 -369c119 19 223 118 238 232
c22 168 -151 274 -276 160c-38 -35 -73 -129 -20 -160c12 -6 1 -25 -11 -18c-67 38 -32 148 16 194c140 134 368 7 347 -184z" />
    <glyph glyph-name="Q" unicode="Q" horiz-adv-x="494" 
d="M130 357c-112 99 -8 367 177 364c144 -1 172 -138 160 -277c-9 -114 -49 -277 -116 -373c56 -4 101 1 112 33c4 14 24 7 20 -6c-16 -49 -76 -54 -147 -47c-60 -70 -147 -67 -193 21c-58 2 -103 -9 -111 -53c-2 -14 -24 -11 -21 4c9 56 60 71 124 71
c-29 77 -21 183 -5 263zM284 597c-46 -67 -78 -153 -94 -230c19 -14 47 -15 68 -12c15 2 18 -18 4 -21c-17 -5 -61 -4 -78 -1c-14 -72 -19 -174 12 -243c44 -4 87 -12 131 -16c69 91 108 260 119 370c12 125 -8 245 -119 250c-141 7 -204 -160 -177 -258
c17 59 43 115 72 161c18 27 61 21 62 0zM311 54l-103 13c32 -47 62 -54 103 -13z" />
    <glyph glyph-name="R" unicode="R" horiz-adv-x="414" 
d="M214 324c142 -26 42 -303 109 -303c15 2 15 -20 2 -20c-127 0 -6 228 -169 299c-29 -99 -65 -194 -96 -292c-15 -12 -58 4 -48 33c30 91 63 181 91 273c-12 2 -26 3 -41 4c-14 0 -14 22 0 22h49c8 27 87 289 20 285c1 23 61 39 77 -8c23 -60 -20 -208 -37 -268
c258 54 278 343 56 348c-67 1 -135 -39 -159 -98c-12 -30 -15 -87 19 -107c12 -6 1 -25 -11 -18c-40 24 -44 87 -31 127c26 75 114 119 194 118c286 -2 276 -347 -25 -395z" />
    <glyph glyph-name="S" unicode="S" horiz-adv-x="483" 
d="M294 664c-63 -61 -99 -204 11 -235c146 -40 135 -210 71 -314c-106 -173 -333 -140 -340 69c-2 67 18 139 49 193c7 12 24 2 18 -10c-29 -50 -47 -117 -45 -180c6 -191 181 -205 267 -55c53 93 67 239 -62 274c-136 37 -91 227 2 290c74 50 164 6 160 -86
c-3 -65 -49 -131 -119 -131c-15 0 -15 21 0 21c58 0 96 58 98 111c2 71 -51 110 -110 53z" />
    <glyph glyph-name="T" unicode="T" horiz-adv-x="405" 
d="M572 763c5 13 25 5 20 -8c-36 -86 -203 -62 -284 -59c82 -106 -97 -565 -138 -688c-13 -11 -60 -5 -44 40c39 110 232 648 101 648c-102 0 -176 -44 -172 -155c0 -14 -20 -15 -21 -2c-12 320 490 109 538 224z" />
    <glyph glyph-name="U" unicode="U" horiz-adv-x="587" 
d="M593 688c-32 -98 -235 -689 -28 -689c13 0 13 -22 0 -22c-223 0 -141 300 -106 450c-48 -114 -135 -311 -227 -392c-70 -60 -160 -56 -180 44c-26 146 46 474 95 619c10 29 66 18 59 0c-49 -143 -118 -442 -99 -596c11 -93 58 -102 118 -46c126 121 264 483 314 648
c7 24 67 24 54 -16z" />
    <glyph glyph-name="V" unicode="V" horiz-adv-x="483" 
d="M204 698c-52 -147 -109 -412 -101 -570c5 -108 48 -139 119 -72c126 121 267 489 317 653c3 14 24 8 20 -7c-51 -168 -194 -540 -325 -662c-72 -67 -177 -60 -188 70c-14 152 46 431 97 582c10 31 51 28 61 6z" />
    <glyph glyph-name="W" unicode="W" horiz-adv-x="803" 
d="M565 613c-47 -133 -122 -378 -108 -518c9 -95 65 -88 120 -35c124 125 264 482 313 649c4 14 24 8 20 -7c-49 -168 -194 -539 -324 -661c-68 -65 -176 -65 -187 53c-8 84 16 196 36 281c-53 -131 -119 -271 -187 -336c-64 -63 -177 -54 -201 44c-37 156 78 504 113 609
c12 36 58 31 61 9c-51 -150 -150 -455 -118 -607c19 -85 82 -93 137 -36c110 111 203 396 265 551c10 27 59 24 60 4z" />
    <glyph glyph-name="X" unicode="X" horiz-adv-x="535" 
d="M552 288c-44 -87 -97 -184 -154 -245c-62 -67 -132 -63 -170 31c-17 44 -32 104 -47 171c-60 -119 -115 -212 -138 -241c-9 -11 -25 3 -16 13c24 31 83 133 148 260c-25 110 -66 341 -140 421c6 35 42 30 63 2c54 -70 87 -206 117 -340c55 115 107 241 140 350
c4 14 24 7 20 -6c-39 -129 -95 -257 -154 -379c18 -76 34 -163 61 -237c29 -80 54 -84 105 -28c55 63 106 156 148 240c5 11 26 5 17 -12z" />
    <glyph glyph-name="Y" unicode="Y" horiz-adv-x="558" 
d="M465 682c2 -107 -34 -314 -65 -411c59 -10 114 -8 158 29c11 8 24 -8 13 -16c-50 -44 -112 -44 -177 -34c-29 -85 -66 -165 -116 -224c-195 -236 -378 -34 -301 150c65 151 237 132 368 105c30 95 61 286 62 385c-40 -73 -101 -179 -163 -237c-52 -49 -130 -48 -133 39
c-1 73 34 190 46 230c9 33 56 19 60 4c-21 -66 -48 -157 -48 -227s31 -60 66 -27c65 67 129 182 172 264c19 16 58 -3 58 -30zM226 39c47 59 86 138 113 221c-119 25 -283 47 -342 -92c-61 -144 55 -338 229 -129z" />
    <glyph glyph-name="Z" unicode="Z" horiz-adv-x="531" 
d="M180 642c-5 -12 -24 -5 -20 8c54 137 232 7 270 63c6 8 17 6 19 -3c28 -74 -1 -198 -93 -210c55 -38 47 -177 36 -232c55 -4 104 1 139 32c11 9 26 -8 15 -16c-43 -36 -98 -42 -158 -38c-21 -120 -100 -224 -191 -284c-298 -194 -351 367 -30 339c56 -5 111 -17 167 -25
c9 60 21 200 -57 227c-11 4 -7 23 6 20c91 -17 127 79 117 153c-71 -3 -182 63 -220 -34zM183 7c72 61 131 145 149 247c-56 9 -111 21 -167 26c-286 26 -231 -484 18 -273z" />
    <glyph glyph-name="bracketleft" unicode="[" horiz-adv-x="398" 
d="M132 -26c13 0 13 -21 0 -21c-39 0 -92 1 -80 72c22 129 149 564 175 632c22 58 61 58 109 58c15 0 15 -22 0 -22c-29 0 -44 -18 -55 -46c-25 -67 -153 -512 -173 -630c-4 -23 -9 -43 24 -43z" />
    <glyph glyph-name="backslash" unicode="\" horiz-adv-x="312" 
d="M90 707c58 -232 111 -461 171 -693c5 -14 -33 -19 -36 -6c-60 229 -116 463 -174 693c-4 14 35 19 39 6z" />
    <glyph glyph-name="bracketright" unicode="]" horiz-adv-x="398" 
d="M266 694c-13 0 -13 21 0 21c39 0 92 -1 80 -72c-22 -129 -149 -564 -175 -632c-22 -58 -61 -58 -109 -58c-15 0 -15 22 0 22c29 0 44 18 55 46c25 67 153 512 173 630c4 23 9 43 -24 43z" />
    <glyph glyph-name="asciicircum" unicode="^" horiz-adv-x="234" 
d="M110 681l-39 -71c-7 -12 -25 -2 -19 11l49 88c4 7 14 7 18 0l63 -120c7 -13 -12 -23 -19 -11z" />
    <glyph glyph-name="underscore" unicode="_" horiz-adv-x="691" 
d="M629 -60l-567 3c-15 0 -15 29 0 29l568 -3c14 0 14 -29 -1 -29z" />
    <glyph glyph-name="grave" unicode="`" horiz-adv-x="182" 
d="M125 647c-44 -23 -51 63 -70 52c-8 9 -5 27 16 27c36 0 32 -66 44 -61c14 7 23 -12 10 -18z" />
    <glyph glyph-name="a" unicode="a" 
d="M87 338c-20 -24 -37 -83 -43 -116c-3 -16 -1 -27 15 -8c23 28 57 86 75 115c-8 21 -30 30 -47 9zM147 350c8 29 70 8 62 -20c-12 -33 -42 -131 -46 -183c-2 -31 19 -19 46 9c37 39 83 102 112 144c8 12 25 0 17 -12c-29 -43 -76 -106 -115 -146c-22 -24 -64 -65 -100 -38
c-44 35 -16 118 -3 162c-17 -25 -35 -51 -52 -69c-35 -36 -88 -8 -84 40c3 44 29 117 69 138c33 16 73 2 94 -25z" />
    <glyph glyph-name="b" unicode="b" horiz-adv-x="303" 
d="M-41 164c31 111 84 303 154 390c44 56 174 88 116 -36c-24 -54 -78 -127 -149 -174c-16 -47 -30 -95 -42 -139c24 42 55 97 91 132c53 51 96 11 94 -24c-1 -31 -9 -64 -21 -92c34 17 79 46 101 79c8 12 25 0 17 -12c-27 -41 -87 -78 -132 -98c-17 -30 -34 -61 -65 -78
c-25 -14 -88 -20 -88 22c1 36 56 51 83 56c17 33 39 83 45 120c4 24 -1 34 -24 10c-46 -51 -93 -140 -124 -201c-1 -4 -72 -13 -56 45zM93 376c56 45 97 104 117 148c35 73 -2 67 -44 8c-31 -45 -55 -104 -73 -156zM86 139c5 7 12 16 19 25c-27 -6 -41 -14 -46 -24
c-9 -12 7 -26 27 -1z" />
    <glyph glyph-name="c" unicode="c" horiz-adv-x="175" 
d="M115 353c12 -5 7 -23 -5 -20c-12 1 -23 -9 -31 -19c-27 -33 -47 -99 -52 -136c-4 -34 -1 -56 40 -15c35 35 79 95 108 137c9 12 26 0 18 -12c-31 -43 -75 -103 -111 -140c-63 -64 -135 -48 -121 42c8 51 33 131 82 160c24 15 48 15 72 3z" />
    <glyph glyph-name="d" unicode="d" horiz-adv-x="318" 
d="M128 312c-11 26 -34 28 -51 1c-15 -24 -32 -67 -38 -96c-5 -27 -2 -41 18 -15c22 28 55 82 71 110zM141 333c21 72 66 195 122 244c53 45 146 45 97 -61c-24 -52 -77 -125 -148 -174c-19 -57 -32 -113 -39 -152c-8 -40 -9 -74 38 -27c34 35 77 95 107 137
c8 12 25 0 17 -12c-29 -43 -73 -104 -110 -140c-93 -88 -129 12 -105 109c-16 -26 -36 -53 -53 -72c-48 -52 -99 -30 -92 37c4 43 32 115 72 135c32 16 73 3 94 -24zM224 379c55 44 96 103 118 147c21 48 12 75 -34 21c-39 -45 -72 -132 -84 -168z" />
    <glyph glyph-name="e" unicode="e" horiz-adv-x="174" 
d="M30 205c38 21 71 61 74 105c1 19 -15 27 -31 0c-18 -30 -33 -71 -43 -105zM25 179c-8 -44 4 -53 40 -16c35 35 79 94 109 137c8 10 24 0 16 -12c-30 -42 -74 -103 -110 -140c-52 -52 -114 -52 -118 16c-2 47 27 136 59 169c35 36 106 32 103 -23
c-3 -57 -48 -107 -99 -131z" />
    <glyph glyph-name="f" unicode="f" horiz-adv-x="232" 
d="M70 313c31 19 51 43 61 66c18 41 13 99 -24 26c-12 -22 -24 -56 -37 -92zM149 372c-13 -31 -41 -64 -88 -86c-20 -60 -36 -120 -53 -180c69 26 124 48 224 194c8 10 26 0 18 -11c-99 -143 -157 -171 -221 -197c43 -20 82 -52 94 -100c38 -154 -217 -256 -209 -36
c4 103 94 423 150 483c61 64 122 18 85 -67zM1 80c-11 -40 -19 -81 -20 -123c-7 -186 147 -74 122 28c-12 48 -58 79 -102 95z" />
    <glyph glyph-name="g" unicode="g" horiz-adv-x="276" 
d="M209 333l-28 -104c34 20 66 41 95 71c10 9 23 -4 14 -15c-37 -35 -77 -61 -118 -84c-27 -90 -72 -229 -129 -298c-66 -78 -150 -45 -132 72c18 120 90 160 190 211c9 32 19 63 27 93c-19 -30 -42 -63 -60 -83c-30 -33 -78 -26 -83 22c-5 50 24 133 69 156
c32 16 74 2 94 -25c10 19 69 16 61 -16zM7 -49c36 64 63 139 86 210c-87 -46 -146 -85 -162 -188c-14 -95 31 -101 76 -22zM45 229c-4 -24 -2 -36 14 -16c23 28 58 84 75 115c-5 15 -21 26 -34 21c-26 -10 -50 -96 -55 -120z" />
    <glyph glyph-name="h" unicode="h" horiz-adv-x="341" 
d="M130 300c-43 -54 -83 -121 -115 -184c-43 -14 -63 20 -54 55c30 109 86 311 158 391c55 64 163 68 111 -46c-24 -52 -77 -125 -148 -174c-18 -48 -32 -97 -46 -143c24 39 50 82 79 117c71 85 113 25 105 -12c-9 -42 -25 -109 -27 -144c-2 -32 16 -22 41 3
c35 35 78 95 107 137c8 12 27 0 19 -12c-31 -43 -75 -103 -111 -140c-62 -63 -112 -36 -112 35c0 35 12 79 18 110c2 9 7 48 -25 7zM94 379c55 44 96 103 116 147c39 84 -15 49 -48 -2c-25 -38 -54 -105 -68 -145z" />
    <glyph glyph-name="i" unicode="i" horiz-adv-x="185" 
d="M83 353c-15 -51 -32 -100 -43 -154c-8 -39 -16 -89 36 -36c35 35 78 95 109 137c8 12 25 0 17 -12c-31 -43 -75 -103 -111 -140c-71 -73 -138 -42 -116 61c10 50 25 97 41 145c7 23 72 18 67 -1zM82 472c20 -5 25 -29 21 -48c-5 -19 -23 -36 -43 -31c-20 6 -26 30 -21 48
c4 19 21 37 43 31z" />
    <glyph glyph-name="j" unicode="j" horiz-adv-x="174" 
d="M-177 60c42 27 85 48 129 71l59 214c12 23 69 12 60 -25l-40 -146c52 31 100 68 143 126c8 10 24 0 16 -12c-51 -67 -106 -108 -167 -141c-24 -90 -58 -225 -135 -277c-128 -88 -249 74 -65 190zM-122 -63c32 53 50 110 67 169c-36 -19 -73 -39 -111 -63
c-171 -107 -47 -256 44 -106zM78 472c20 -5 26 -29 21 -48s-23 -36 -43 -31c-20 6 -27 30 -21 48c4 19 23 37 43 31z" />
    <glyph glyph-name="k" unicode="k" horiz-adv-x="280" 
d="M-41 154c24 112 93 341 173 419c58 56 149 49 101 -57c-24 -52 -77 -125 -148 -174c-7 -16 -12 -33 -18 -50c8 12 18 22 27 33c57 65 103 17 34 -45c-18 -15 -38 -31 -54 -42c47 -10 54 -37 52 -71c-2 -35 -24 -91 19 -48c49 48 94 123 135 181c8 12 26 0 18 -12
c-43 -59 -88 -135 -140 -184c-71 -67 -92 -13 -96 60c-1 23 -4 45 -19 49c-10 -37 -18 -71 -26 -99c-19 -22 -70 -15 -58 40zM97 379c56 44 96 103 118 147c29 65 2 69 -41 10c-33 -44 -57 -105 -77 -157zM74 263l40 33c38 34 35 56 -4 14c-13 -14 -25 -30 -36 -47z" />
    <glyph glyph-name="l" unicode="l" horiz-adv-x="187" 
d="M228 518c-25 -54 -77 -126 -148 -174c-20 -60 -34 -119 -40 -158c-7 -42 -6 -67 38 -23c35 35 78 94 109 137c8 10 24 0 16 -12c-30 -42 -74 -103 -110 -140c-70 -72 -134 -37 -116 59c19 98 74 313 167 379c74 53 121 12 84 -68zM90 376c57 44 100 104 120 148
c29 63 6 69 -35 22c-37 -44 -68 -123 -85 -170z" />
    <glyph glyph-name="m" unicode="m" horiz-adv-x="459" 
d="M79 353c-17 -57 -29 -118 -41 -178c28 47 64 109 100 149c49 58 110 34 82 -43c13 19 33 49 56 65c40 29 80 3 64 -48c-12 -39 -23 -83 -29 -124c-6 -46 9 -43 40 -11c35 35 77 95 108 137c8 12 26 0 18 -12c-31 -43 -75 -103 -111 -140c-55 -56 -133 -54 -122 31
c6 46 21 99 36 143c-31 -30 -62 -80 -84 -116c-16 -23 -69 -3 -61 31l27 68c6 15 4 20 -11 3c-44 -58 -86 -128 -124 -192c-16 -24 -67 -4 -63 23c12 70 30 145 47 209c9 36 74 20 68 5z" />
    <glyph glyph-name="n" unicode="n" horiz-adv-x="344" 
d="M79 353c-16 -56 -28 -118 -41 -177c29 49 60 100 96 144c48 60 106 28 86 -40c-11 -38 -25 -83 -26 -120c-1 -32 18 -22 42 3c34 35 79 95 108 137c8 12 25 0 17 -12c-30 -43 -75 -103 -111 -140c-42 -44 -128 -64 -123 22c3 37 20 89 30 120c7 23 9 36 -14 7
c-41 -54 -85 -122 -116 -181c-23 -21 -70 -6 -60 42c13 64 28 132 44 194c7 27 72 16 68 1z" />
    <glyph glyph-name="o" unicode="o" horiz-adv-x="286" 
d="M100 371c-14 -35 -28 -69 -40 -104c39 -22 87 -26 130 -18c29 65 17 126 -52 157c-63 27 -143 -4 -126 -83c7 17 13 35 21 52c8 20 73 10 67 -4zM53 247c-5 -19 -15 -52 -16 -79c-3 -55 34 -46 67 -22c27 19 54 47 73 81c-41 -6 -86 0 -124 20zM118 129
c-52 -37 -134 -36 -143 40c-4 39 14 90 26 125c-53 92 48 174 145 131c73 -32 96 -97 69 -168c24 8 50 23 71 43c10 8 24 -6 14 -16c-30 -27 -62 -44 -97 -52c-21 -43 -54 -81 -85 -103z" />
    <glyph glyph-name="p" unicode="p" horiz-adv-x="318" 
d="M318 300c8 12 25 0 17 -12c-37 -55 -72 -85 -103 -99c-20 -42 -48 -71 -95 -82c-94 -23 -98 82 -32 100c20 5 40 -4 63 -6c15 32 28 73 31 109c2 36 -10 79 -57 55c-64 -34 -92 -138 -115 -197c-30 -97 -59 -199 -85 -299c-3 -12 -74 -20 -61 26c45 160 93 318 137 478
c8 31 72 18 68 3c-4 -19 -9 -38 -15 -56c21 33 42 53 62 64c75 40 139 7 132 -78c-2 -28 -9 -57 -20 -84c23 15 46 40 73 78zM157 180c-15 3 -31 10 -45 7c-38 -8 -42 -80 12 -43c14 10 25 22 33 36z" />
    <glyph glyph-name="q" unicode="q" horiz-adv-x="307" 
d="M197 318c-17 -73 -35 -146 -51 -218c40 25 135 135 161 200c4 12 24 4 18 -8c-26 -71 -117 -174 -160 -207c49 -20 111 -48 119 -107c23 -159 -215 -226 -222 -36c-3 99 31 215 53 314c-13 -25 -29 -53 -44 -72c-37 -48 -89 -32 -89 33c0 48 17 103 48 133
c29 28 79 20 105 -11c8 24 71 20 62 -21zM141 71c-8 -41 -14 -85 -12 -128c7 -185 148 -56 135 32c-8 54 -79 82 -123 96zM42 207c-3 -22 2 -30 23 2c20 31 46 82 60 110c-8 17 -23 23 -36 16c-27 -14 -44 -103 -47 -128z" />
    <glyph glyph-name="r" unicode="r" horiz-adv-x="230" 
d="M27 309c16 -5 59 -13 71 -20c5 -3 6 -8 4 -15c-10 -44 -26 -83 -34 -125c-5 -26 -4 -51 28 -17c51 54 90 106 134 168c8 12 26 0 18 -12c-45 -63 -87 -122 -142 -174c-58 -56 -99 -13 -99 50c0 41 16 76 27 110c-25 10 -59 23 -58 54c1 41 68 55 58 1
c-2 -7 -4 -15 -7 -20zM7 316l5 17c4 23 -13 1 -15 -7c0 -4 3 -6 10 -10z" />
    <glyph glyph-name="s" unicode="s" horiz-adv-x="205" 
d="M205 300c11 9 26 -5 16 -15c-54 -56 -115 -104 -179 -146c-11 -63 -36 -154 -79 -200c-89 -97 -208 -22 -120 87c34 43 80 67 127 93c15 67 20 222 63 284c25 37 71 20 65 -16c-34 -43 -46 -174 -52 -220c58 39 110 83 159 133zM-37 91c-39 -23 -76 -44 -104 -79
c-44 -56 -28 -131 44 -52c29 32 48 88 60 131z" />
    <glyph glyph-name="t" unicode="t" horiz-adv-x="188" 
d="M134 514c-1 -6 -3 -10 -4 -14c32 0 55 -2 59 -20c3 -13 -18 -17 -20 -5c-2 5 -20 7 -46 4c-30 -98 -76 -225 -85 -305c-3 -31 0 -54 41 -12c36 36 79 95 109 138c8 10 25 0 17 -12c-31 -43 -75 -103 -111 -140c-58 -59 -113 -45 -119 16c-8 73 54 236 78 310
c-31 -2 -119 -11 -103 44c4 12 24 8 20 -6c-9 -29 76 -18 90 -17c16 51 78 31 74 19z" />
    <glyph glyph-name="u" unicode="u" horiz-adv-x="348" 
d="M242 336c-15 -48 -31 -95 -40 -145c-7 -40 -9 -77 39 -28c34 35 77 95 107 137c8 12 25 0 17 -12c-29 -43 -74 -103 -110 -140c-65 -65 -133 -49 -117 55c3 19 6 36 12 54c-29 -47 -55 -86 -77 -110c-48 -52 -116 -36 -100 50c9 53 25 103 41 153c10 31 74 19 70 3
c-16 -53 -35 -104 -45 -159c-7 -38 -11 -63 18 -32c33 37 83 115 125 199c12 27 69 5 60 -25z" />
    <glyph glyph-name="v" unicode="v" horiz-adv-x="282" 
d="M77 340c-16 -51 -34 -117 -36 -170c-2 -36 8 -57 45 -30c27 19 52 53 69 81c-12 16 -27 44 -33 83c-23 139 113 153 95 17c-4 -33 -19 -68 -35 -98c33 -24 85 54 100 77c8 12 26 0 18 -12c-22 -35 -81 -117 -129 -82c-20 -32 -49 -68 -81 -87c-59 -36 -124 -1 -114 75
c6 51 21 104 36 152c5 18 71 10 65 -6zM167 242c14 25 26 54 30 82c14 105 -69 87 -54 -16c4 -30 17 -51 24 -66z" />
    <glyph glyph-name="w" unicode="w" horiz-adv-x="415" 
d="M79 340c-4 -14 -42 -121 -49 -172c-4 -28 -1 -37 25 -1c42 59 81 126 115 182c3 5 71 15 57 -36c-15 -48 -34 -108 -38 -151c-5 -56 51 -4 68 16c12 15 23 28 32 43c-25 33 -41 85 -36 128c8 82 79 92 97 16c8 -32 2 -81 -34 -142c32 -22 86 55 99 77c8 12 26 0 19 -11
c-23 -35 -80 -117 -130 -84c-8 -14 -19 -27 -31 -41c-52 -61 -135 -84 -141 -4c-3 34 5 79 14 110c-23 -39 -51 -85 -73 -116c-45 -60 -99 -47 -99 20c0 55 26 134 38 172c6 18 71 10 67 -6zM301 239c30 53 34 94 29 122c-14 56 -51 36 -57 -15c-4 -40 10 -72 28 -107z" />
    <glyph glyph-name="x" unicode="x" horiz-adv-x="186" 
d="M-13 142l-21 -27c-10 -11 -26 3 -16 13l29 38c-7 65 23 150 39 194c4 15 71 9 65 -7c-6 -23 -14 -47 -21 -69l48 65c8 12 26 -1 16 -12c-27 -36 -52 -75 -79 -112c-6 -34 -23 -117 32 -62c35 35 78 95 107 137c8 12 27 0 18 -12c-30 -43 -74 -103 -110 -140
c-33 -34 -76 -60 -107 -6z" />
    <glyph glyph-name="y" unicode="y" horiz-adv-x="317" 
d="M79 340c-4 -15 -43 -125 -50 -174c-4 -26 2 -34 27 1c45 61 74 126 114 182c11 8 69 5 59 -28c-15 -52 -28 -106 -43 -158c40 28 84 70 131 137c8 12 25 0 17 -12c-57 -82 -108 -126 -156 -156c-20 -72 -40 -142 -78 -206c-116 -192 -350 -12 -119 134
c40 25 82 40 125 59l42 154c-24 -39 -51 -88 -74 -119c-36 -49 -101 -62 -104 4c-2 61 34 159 41 183c9 27 72 13 68 -1zM99 94c-38 -17 -74 -30 -107 -51c-174 -110 -45 -254 44 -105c28 48 47 102 63 156z" />
    <glyph glyph-name="z" unicode="z" horiz-adv-x="264" 
d="M-62 60l123 76c-3 34 -31 50 -60 59c-14 3 -8 23 4 20c48 -4 91 60 108 98c-23 -15 -52 -28 -72 -33c-47 -13 -55 14 -24 48c9 10 25 -3 17 -14c-10 -12 -18 -20 2 -14c25 8 65 29 87 45c30 16 71 -4 58 -33c-17 -42 -50 -94 -95 -111c13 -7 23 -16 30 -29
c63 43 120 87 148 128c8 12 26 0 18 -12c-31 -43 -93 -91 -157 -136c15 -61 -45 -199 -81 -244c-122 -157 -324 15 -106 152zM60 111c-38 -24 -74 -45 -111 -68c-172 -106 -47 -256 44 -105c28 46 59 118 67 173z" />
    <glyph glyph-name="braceleft" unicode="{" horiz-adv-x="384" 
d="M121 -32c13 0 13 -21 0 -21c-164 0 96 385 -62 412c-11 3 -12 19 0 21c201 48 80 335 263 335c15 0 15 -22 0 -22c-70 0 -41 -258 -191 -323c112 -62 -67 -402 -10 -402z" />
    <glyph glyph-name="bar" unicode="|" horiz-adv-x="163" 
d="M113 703c-7 -232 -19 -461 -24 -693c1 -14 -39 -15 -38 -2c5 229 15 463 22 693c-1 14 40 15 40 2z" />
    <glyph glyph-name="braceright" unicode="}" horiz-adv-x="384" 
d="M263 694c-13 0 -13 21 0 21c164 0 -96 -385 62 -412c11 -3 12 -19 0 -21c-201 -48 -80 -335 -263 -335c-15 0 -15 22 0 22c70 0 41 258 191 323c-112 62 67 402 10 402z" />
    <glyph glyph-name="asciitilde" unicode="~" horiz-adv-x="562" 
d="M73 307c-6 -14 -26 -7 -22 6c48 156 369 -61 440 62c7 12 26 3 19 -11c-91 -170 -408 40 -437 -57z" />
    <glyph glyph-name="exclamdown" unicode="&#xa1;" horiz-adv-x="325" 
d="M191 517c4 13 40 8 36 -6c-32 -166 -61 -329 -102 -492c-12 -44 -75 -12 -74 -5c45 167 93 327 140 503zM235 580c-23 0 -40 20 -40 41c0 23 17 43 40 43c22 0 40 -20 40 -43c0 -21 -18 -41 -40 -41z" />
    <glyph glyph-name="cent" unicode="&#xa2;" horiz-adv-x="175" 
d="M92 653c-3 -98 -7 -195 -11 -292c11 0 23 -3 34 -8c12 -5 7 -23 -5 -20c-12 1 -23 -9 -31 -18c-2 -49 -4 -97 -5 -145c34 35 74 90 101 130c9 12 26 0 18 -12c-31 -43 -75 -103 -120 -149c-2 -59 -4 -119 -5 -179c1 -14 -26 -15 -25 -2c1 54 2 108 4 163
c-62 -22 -86 10 -86 58c0 63 42 154 94 177l10 295c-1 14 27 15 27 2zM48 146c1 40 2 80 4 120c-4 -9 -20 -53 -25 -87c-5 -28 -2 -48 21 -33z" />
    <glyph glyph-name="sterling" unicode="&#xa3;" horiz-adv-x="475" 
d="M179 310l-92 1c-14 0 -14 29 0 29l98 -1c22 123 42 251 100 337c54 80 152 61 138 -48c-1 -14 -21 -14 -21 0c4 72 -26 100 -71 22c-56 -98 -70 -206 -86 -312l132 -1c14 0 14 -29 0 -29l-137 1c-15 -92 -34 -182 -89 -260c67 -10 145 -46 210 -29c15 3 20 -17 6 -21
c-79 -22 -156 25 -233 32c-15 -14 -34 -26 -54 -27c-25 -3 -39 10 -21 29c8 8 19 12 29 15c49 62 72 159 91 262z" />
    <glyph glyph-name="currency" unicode="&#xa4;" horiz-adv-x="417" 
d="M210 435c35 0 66 -15 88 -38c1 8 -7 30 5 44c14 20 37 6 32 -9c-8 0 -9 -16 -15 -31c16 -2 31 -8 35 -1c15 -3 17 -30 -7 -33c-14 -3 -28 7 -36 13c16 -23 25 -51 25 -80c0 -31 -9 -60 -25 -83c9 5 22 15 36 13c24 -3 22 -30 7 -33c-4 7 -19 0 -35 -2c6 -14 7 -31 15 -30
c5 -15 -18 -29 -32 -9c-12 13 -5 34 -5 42c-22 -23 -53 -38 -88 -38c-36 0 -68 15 -91 39c-1 -7 6 -30 -5 -43c-14 -20 -37 -6 -32 9c8 -1 9 16 14 30c-15 2 -30 9 -34 2c-15 3 -17 30 7 33c13 2 26 -7 35 -13c-17 24 -26 53 -26 83c0 28 9 56 26 79c-9 -5 -22 -15 -35 -12
c-24 3 -22 30 -7 33c4 -7 19 -1 34 1c-5 15 -6 31 -14 31c-5 15 18 29 32 9c9 -12 3 -44 6 -44c23 23 55 38 90 38zM209 405c-58 0 -103 -51 -103 -106c0 -58 45 -109 103 -109s100 51 100 109c0 55 -42 106 -100 106z" />
    <glyph glyph-name="yen" unicode="&#xa5;" horiz-adv-x="678" 
d="M382 110l-106 1c-13 0 -13 30 0 30l120 -1c15 35 28 73 38 112l-144 1c-13 0 -13 30 0 30l152 -2c36 147 47 303 57 385c-40 -73 -101 -179 -163 -237c-52 -49 -130 -48 -133 39c-1 73 34 190 46 230c9 33 56 19 60 4c-21 -66 -48 -157 -48 -227s31 -60 66 -27
c65 67 129 182 172 264c19 16 59 -3 58 -30c-5 -120 -22 -267 -62 -401l122 -1c14 0 14 -28 0 -28h-130c-13 -39 -28 -77 -45 -113l161 -1c14 0 14 -29 0 -29l-175 1c-30 -56 -66 -104 -109 -140c-158 -131 -325 29 -250 206c4 11 25 3 20 -8c-65 -159 78 -297 211 -172
c33 30 59 69 82 114z" />
    <glyph glyph-name="brokenbar" unicode="&#xa6;" horiz-adv-x="159" 
d="M109 703c-7 -232 -6 -67 -13 -318c1 -14 -39 -15 -38 -2c6 254 4 88 11 318c-1 14 40 15 40 2zM100 278c-7 -232 -4 -88 -11 -339c1 -14 -39 -15 -38 -2c6 254 2 109 9 339c-1 14 40 15 40 2z" />
    <glyph glyph-name="section" unicode="&#xa7;" horiz-adv-x="536" 
d="M275 510c23 -165 202 -185 190 -361c-7 -97 -73 -145 -146 -151c-124 -89 -374 26 -220 303c6 12 25 3 18 -10c-171 -309 193 -395 209 -169c13 174 -196 193 -191 395c3 112 79 167 150 171c89 64 231 19 195 -118c-4 -13 -24 -8 -20 7c47 175 -214 146 -185 -67z
M368 55c22 22 37 52 40 95c13 175 -192 193 -192 396c0 32 7 59 19 82c-31 -30 -50 -79 -41 -146c23 -165 203 -185 190 -363c-2 -24 -7 -45 -16 -64z" />
    <glyph glyph-name="dieresis" unicode="&#xa8;" horiz-adv-x="252" 
d="M83 728c20 0 35 -17 35 -35c0 -19 -15 -36 -35 -36c-18 0 -33 17 -33 36c0 18 15 35 33 35zM169 728c19 0 33 -17 33 -35c0 -19 -14 -36 -33 -36s-34 17 -34 36c0 18 15 35 34 35z" />
    <glyph glyph-name="copyright" unicode="&#xa9;" horiz-adv-x="833" 
d="M413 747c205 0 355 -179 355 -376c0 -204 -163 -385 -367 -385c-205 0 -351 181 -351 385c0 197 159 376 363 376zM413 704c-182 0 -323 -159 -323 -334c0 -181 130 -342 312 -342c181 0 326 161 326 342c0 175 -133 334 -315 334zM508 335c-29 -60 -74 -128 -116 -164
c-49 -42 -115 -47 -136 24c-35 113 19 378 150 417c113 35 125 -101 36 -136c-8 -4 -14 8 -6 12c73 29 68 146 -18 105c-108 -53 -158 -290 -124 -397c19 -59 57 -43 92 -10c40 36 82 98 109 155c4 8 17 1 13 -6z" />
    <glyph glyph-name="ordfeminine" unicode="&#xaa;" 
d="M87 615c-20 -24 -38 -83 -43 -116c-3 -16 -1 -27 15 -8c23 28 57 86 75 115c-8 21 -31 31 -47 9zM147 627c8 29 70 8 62 -20c-12 -33 -43 -131 -46 -183c-3 -31 19 -19 46 9c37 39 83 102 112 144c8 12 25 0 17 -12c-29 -43 -76 -106 -115 -146c-22 -24 -64 -65 -100 -38
c-44 35 -16 118 -3 162c-17 -25 -34 -52 -52 -69c-33 -38 -87 -8 -84 40c4 44 29 117 69 138c33 16 73 2 94 -25z" />
    <glyph glyph-name="guillemotleft" unicode="&#xab;" horiz-adv-x="429" 
d="M183 341l166 -177c9 -11 -5 -26 -15 -15l-170 180c-12 13 -14 29 0 39l188 136c20 14 34 -18 22 -26zM79 341l166 -177c10 -11 -6 -26 -15 -15l-170 180c-12 13 -14 29 0 39l190 137c17 13 32 -19 21 -27z" />
    <glyph glyph-name="logicalnot" unicode="&#xac;" horiz-adv-x="474" 
d="M424 352l-1 -108c0 -14 -29 -14 -29 0v79h-333c-14 0 -14 29 0 29h363z" />
    <glyph glyph-name="registered" unicode="&#xae;" horiz-adv-x="818" 
d="M413 747c205 0 355 -179 355 -376c0 -204 -163 -385 -367 -385c-205 0 -351 181 -351 385c0 197 159 376 363 376zM413 704c-182 0 -323 -159 -323 -334c0 -181 130 -342 312 -342c181 0 326 161 326 342c0 175 -133 334 -315 334zM389 353c98 -18 29 -210 75 -210
c11 1 11 -14 2 -14c-88 0 -5 158 -117 207c-20 -68 -45 -134 -67 -202c-10 -8 -40 3 -33 23c21 63 44 125 63 189l-28 3c-10 0 -10 15 0 15h33c6 19 61 200 14 197c1 16 43 27 54 -5c16 -42 -14 -144 -26 -186c179 38 193 238 39 241c-47 1 -94 -27 -110 -68
c-9 -21 -11 -60 13 -74c8 -4 1 -17 -8 -12c-27 16 -30 60 -21 88c18 52 79 82 134 81c198 -1 191 -240 -17 -273z" />
    <glyph glyph-name="degree" unicode="&#xb0;" horiz-adv-x="359" 
d="M181 630c-58 0 -103 -51 -103 -106c0 -58 45 -109 103 -109s100 51 100 109c0 55 -42 106 -100 106zM182 660c74 0 127 -65 127 -135c0 -74 -53 -140 -127 -140s-132 66 -132 140c0 70 58 135 132 135z" />
    <glyph glyph-name="plusminus" unicode="&#xb1;" horiz-adv-x="541" 
d="M479 14l-417 3c-15 0 -15 29 0 29l418 -3c14 0 14 -29 -1 -29zM259 247l-159 2c-14 0 -14 29 1 29l158 -1l1 158c0 14 30 14 30 0l-2 -160h158c15 0 15 -29 0 -29l-158 1l-1 -159c0 -13 -29 -13 -29 0z" />
    <glyph glyph-name="twosuperior" unicode="&#xb2;" horiz-adv-x="308" 
d="M257 650c-9 -105 -132 -200 -155 -302c16 7 39 2 61 -4c26 -7 52 -14 62 4c7 8 23 0 16 -11c-19 -27 -52 -19 -82 -11c-26 7 -51 14 -61 -5c-7 -10 -51 -14 -47 14c10 105 148 213 158 318c5 51 -15 74 -41 75c-86 2 -116 -167 -44 -130c10 6 19 -10 9 -14
c-104 -55 -86 167 48 164c43 -1 81 -35 76 -98z" />
    <glyph glyph-name="threesuperior" unicode="&#xb3;" horiz-adv-x="334" 
d="M158 619c12 2 16 -16 3 -19c-89 -19 -92 149 39 146c116 -3 99 -166 19 -210c2 -1 4 -1 6 -3c33 -21 39 -62 36 -98c-20 -162 -211 -173 -211 -44c0 36 14 83 44 103c9 7 20 -8 10 -15c-24 -17 -34 -57 -35 -85c-3 -105 125 -93 142 45c5 42 -7 83 -54 89
c-10 1 -10 17 0 18c82 10 116 179 25 178c-82 0 -86 -119 -24 -105z" />
    <glyph glyph-name="acute" unicode="&#xb4;" horiz-adv-x="182" 
d="M57 600c-13 6 -4 25 10 18c12 -5 8 61 44 61c21 0 24 -18 16 -27c-19 11 -26 -75 -70 -52z" />
    <glyph glyph-name="mu" unicode="&#xb5;" horiz-adv-x="392" 
d="M290 73c9 32 8 502 8 597c0 16 44 16 44 0c0 -206 -5 -416 -11 -591c-3 -76 -136 -108 -222 -53c0 -11 1 -20 0 -25c0 -8 -59 -10 -59 0c1 190 2 390 2 666c0 20 53 21 53 0c0 -60 -6 -551 9 -606c24 -27 167 -20 176 12z" />
    <glyph glyph-name="paragraph" unicode="&#xb6;" horiz-adv-x="444" 
d="M289 -47c0 222 6 445 14 675h-41c-5 -218 -9 -428 -13 -671c0 -26 -48 -23 -48 -2c0 98 1 196 4 312c-186 -25 -202 359 -59 399c52 14 171 8 227 6c28 0 28 -47 -3 -45h-23c-3 -218 -8 -427 -11 -671c0 -26 -47 -23 -47 -3z" />
    <glyph glyph-name="periodcentered" unicode="&#xb7;" horiz-adv-x="167" 
d="M84 344c19 0 33 -17 33 -35c0 -19 -14 -36 -33 -36s-34 17 -34 36c0 18 15 35 34 35z" />
    <glyph glyph-name="cedilla" unicode="&#xb8;" horiz-adv-x="162" 
d="M74 5c4 -26 33 -18 37 -53c6 -50 -64 -50 -60 -1c0 15 22 12 22 -1c-3 -20 20 -20 17 0c-3 21 -31 16 -36 52c-3 13 19 16 20 3z" />
    <glyph glyph-name="onesuperior" unicode="&#xb9;" horiz-adv-x="260" 
d="M209 711c-27 -134 -54 -268 -82 -402c-17 -15 -52 -7 -45 23c26 122 50 245 75 369c-27 -21 -61 -43 -88 -61c-13 -9 -27 17 -13 25c21 14 72 41 96 58c36 27 61 9 57 -12z" />
    <glyph glyph-name="ordmasculine" unicode="&#xba;" horiz-adv-x="430" 
d="M176 648c-14 -35 -28 -69 -40 -104c39 -22 87 -26 130 -18c29 65 17 126 -52 157c-63 27 -143 -4 -126 -83c7 17 13 35 21 52c8 20 73 10 67 -4zM129 524c-5 -19 -14 -52 -16 -79c-1 -55 34 -46 67 -22c27 19 54 47 73 81c-41 -6 -86 0 -124 20zM194 406
c-52 -36 -134 -36 -143 40c-4 39 14 90 26 125c-53 92 48 174 145 131c73 -32 96 -97 69 -168c24 8 50 23 71 43c10 8 24 -6 14 -16c-30 -27 -62 -44 -97 -52c-21 -43 -55 -80 -85 -103z" />
    <glyph glyph-name="guillemotright" unicode="&#xbb;" horiz-adv-x="430" 
d="M246 315l-166 178c-10 10 6 25 16 14l168 -180c12 -12 16 -28 2 -39l-195 -141c-14 -9 -27 23 -17 31zM350 315l-166 178c-9 10 7 25 16 14l169 -180c12 -12 16 -28 1 -39l-193 -139c-16 -11 -30 21 -18 29z" />
    <glyph glyph-name="onequarter" unicode="&#xbc;" horiz-adv-x="574" 
d="M236 724c-32 -157 -63 -313 -96 -470c-20 -17 -60 -8 -52 27c30 143 58 286 87 431c-31 -25 -71 -50 -103 -71c-15 -11 -31 20 -15 29c25 16 84 48 112 68c42 31 71 10 67 -14zM167 -33c-3 -13 -40 -8 -36 6c58 230 140 556 200 786c4 13 40 8 37 -6
c-60 -230 -142 -554 -201 -786zM518 485c-23 -109 -44 -220 -67 -332c27 0 47 2 54 11c6 12 25 1 17 -11c-11 -18 -40 -21 -75 -20c-11 -50 -20 -93 -24 -116c-4 -16 -62 -13 -58 4c6 25 14 67 24 116c-42 4 -84 7 -100 -6c-9 -7 -23 2 -16 13l194 371c13 17 58 5 51 -30z
M393 159c19 92 38 186 58 279l-147 -279c25 4 57 2 89 0z" />
    <glyph glyph-name="onehalf" unicode="&#xbd;" horiz-adv-x="655" 
d="M236 713c-32 -157 -63 -313 -96 -470c-20 -17 -60 -8 -52 27c30 143 58 286 87 431c-31 -25 -71 -50 -103 -71c-15 -11 -31 20 -15 29c25 16 84 48 112 68c42 31 71 10 67 -14zM211 -22c-3 -13 -40 -8 -36 6c58 230 136 565 196 795c4 13 40 8 37 -6
c-60 -230 -138 -563 -197 -795zM604 395c-11 -126 -157 -238 -185 -360c20 9 47 3 74 -4c29 -8 60 -16 73 4c8 11 26 0 18 -12c-22 -32 -61 -23 -97 -13c-30 8 -60 16 -72 -6c-8 -12 -60 -17 -56 16c12 126 176 253 187 378c6 60 -17 87 -48 88c-102 3 -138 -197 -52 -153
c12 7 23 -12 11 -18c-124 -64 -102 199 56 195c52 -1 97 -41 91 -115z" />
    <glyph glyph-name="threequarters" unicode="&#xbe;" horiz-adv-x="667" 
d="M611 473c-23 -109 -44 -220 -67 -332c27 0 47 2 54 11c6 12 25 1 17 -11c-11 -18 -40 -21 -75 -20c-11 -50 -20 -93 -24 -116c-4 -16 -62 -13 -58 4c6 25 14 67 24 116c-42 4 -84 7 -100 -6c-9 -7 -23 2 -16 13l194 371c13 17 58 5 51 -30zM176 590c14 2 19 -19 4 -22
c-104 -23 -108 174 46 171c135 -4 115 -195 22 -246l7 -4c38 -24 46 -72 42 -114c-24 -190 -247 -203 -247 -52c0 42 16 97 51 121c11 8 24 -10 12 -18c-28 -20 -40 -67 -41 -100c-3 -122 147 -108 167 53c5 49 -9 97 -64 104c-12 1 -12 20 0 21c96 12 136 210 29 209
c-95 0 -100 -139 -28 -123zM280 -46c-3 -13 -40 -8 -36 6c58 230 145 591 205 821c4 13 40 8 37 -6c-60 -230 -147 -589 -206 -821zM486 147c19 92 38 186 58 279l-147 -279c25 4 57 2 89 0z" />
    <glyph glyph-name="questiondown" unicode="&#xbf;" horiz-adv-x="333" 
d="M51 164c10 127 177 249 162 340c8 12 60 18 56 -16c-12 -132 -148 -194 -160 -325c-5 -60 19 -87 48 -88c102 -4 138 196 52 152c-12 -7 -23 12 -9 19c122 64 100 -199 -58 -195c-52 1 -97 40 -91 113zM243 534c-23 0 -40 20 -40 41c0 23 17 43 40 43c22 0 40 -20 40 -43
c0 -21 -18 -41 -40 -41z" />
    <glyph glyph-name="Agrave" unicode="&#xc0;" horiz-adv-x="640" 
d="M576 23c14 0 14 -22 0 -22c-109 0 -121 106 -117 192c-48 -2 -97 2 -146 4c-68 -97 -162 -214 -293 -196c-14 2 -11 23 4 20c67 -9 150 69 226 174c-40 -2 -70 -13 -78 -38c-2 -14 -24 -8 -20 5c12 41 56 53 114 56c115 167 214 395 229 490c16 16 67 19 68 -40
c0 -131 -68 -308 -82 -454c42 3 77 11 91 32c8 11 26 -1 18 -13c-20 -27 -62 -38 -110 -40c-4 -71 3 -170 96 -170zM460 214c12 146 79 317 83 448c-31 -108 -116 -297 -215 -444c44 -1 88 -5 132 -4zM534 743c-44 -23 -51 63 -70 52c-8 9 -5 27 16 27c36 0 32 -66 44 -61
c14 7 23 -12 10 -18z" />
    <glyph glyph-name="Aacute" unicode="&#xc1;" horiz-adv-x="640" 
d="M576 23c14 0 14 -22 0 -22c-109 0 -121 106 -117 192c-48 -2 -97 2 -146 4c-68 -97 -162 -214 -293 -196c-14 2 -11 23 4 20c67 -9 150 69 226 174c-40 -2 -70 -13 -78 -38c-2 -14 -24 -8 -20 5c12 41 56 53 114 56c115 167 214 395 229 490c16 16 67 19 68 -40
c0 -131 -68 -308 -82 -454c42 3 77 11 91 32c8 11 26 -1 18 -13c-20 -27 -62 -38 -110 -40c-4 -71 3 -170 96 -170zM460 214c12 146 79 317 83 448c-31 -108 -116 -297 -215 -444c44 -1 88 -5 132 -4zM486 739c-13 6 -4 25 10 18c12 -5 8 61 44 61c21 0 24 -18 16 -27
c-19 11 -26 -75 -70 -52z" />
    <glyph glyph-name="Acircumflex" unicode="&#xc2;" horiz-adv-x="640" 
d="M576 23c14 0 14 -22 0 -22c-109 0 -121 106 -117 192c-48 -2 -97 2 -146 4c-68 -97 -162 -214 -293 -196c-14 2 -11 23 4 20c67 -9 150 69 226 174c-40 -2 -70 -13 -78 -38c-2 -14 -24 -8 -20 5c12 41 56 53 114 56c115 167 214 395 229 490c16 16 67 19 68 -40
c0 -131 -68 -308 -82 -454c42 3 77 11 91 32c8 11 26 -1 18 -13c-20 -27 -62 -38 -110 -40c-4 -71 3 -170 96 -170zM460 214c12 146 79 317 83 448c-31 -108 -116 -297 -215 -444c44 -1 88 -5 132 -4zM565 766c14 0 16 -21 1 -21c-46 -4 -27 55 -43 56
c-16 0 -20 -61 -58 -49c-12 4 -6 25 7 20c13 -4 19 51 52 51c40 -2 21 -59 41 -57z" />
    <glyph glyph-name="Atilde" unicode="&#xc3;" horiz-adv-x="640" 
d="M576 23c14 0 14 -22 0 -22c-109 0 -121 106 -117 192c-48 -2 -97 2 -146 4c-68 -97 -162 -214 -293 -196c-14 2 -11 23 4 20c67 -9 150 69 226 174c-40 -2 -70 -13 -78 -38c-2 -14 -24 -8 -20 5c12 41 56 53 114 56c115 167 214 395 229 490c16 16 67 19 68 -40
c0 -131 -68 -308 -82 -454c42 3 77 11 91 32c8 11 26 -1 18 -13c-20 -27 -62 -38 -110 -40c-4 -71 3 -170 96 -170zM460 214c12 146 79 317 83 448c-31 -108 -116 -297 -215 -444c44 -1 88 -5 132 -4zM440 748c-1 -14 -22 -10 -21 4c9 60 178 6 185 33c2 15 23 10 20 -4
c-12 -63 -180 -9 -184 -33z" />
    <glyph glyph-name="Adieresis" unicode="&#xc4;" horiz-adv-x="640" 
d="M576 23c14 0 14 -22 0 -22c-109 0 -121 106 -117 192c-48 -2 -97 2 -146 4c-68 -97 -162 -214 -293 -196c-14 2 -11 23 4 20c67 -9 150 69 226 174c-40 -2 -70 -13 -78 -38c-2 -14 -24 -8 -20 5c12 41 56 53 114 56c115 167 214 395 229 490c16 16 67 19 68 -40
c0 -131 -68 -308 -82 -454c42 3 77 11 91 32c8 11 26 -1 18 -13c-20 -27 -62 -38 -110 -40c-4 -71 3 -170 96 -170zM460 214c12 146 79 317 83 448c-31 -108 -116 -297 -215 -444c44 -1 88 -5 132 -4zM479 821c20 0 35 -17 35 -35c0 -19 -15 -36 -35 -36
c-18 0 -33 17 -33 36c0 18 15 35 33 35zM565 821c19 0 33 -17 33 -35c0 -19 -14 -36 -33 -36s-34 17 -34 36c0 18 15 35 34 35z" />
    <glyph glyph-name="Aring" unicode="&#xc5;" horiz-adv-x="640" 
d="M576 23c14 0 14 -22 0 -22c-109 0 -121 106 -117 192c-48 -2 -97 2 -146 4c-68 -97 -162 -214 -293 -196c-14 2 -11 23 4 20c67 -9 150 69 226 174c-40 -2 -70 -13 -78 -38c-2 -14 -24 -8 -20 5c12 41 56 53 114 56c115 167 214 395 229 490c16 16 67 19 68 -40
c0 -131 -68 -308 -82 -454c42 3 77 11 91 32c8 11 26 -1 18 -13c-20 -27 -62 -38 -110 -40c-4 -71 3 -170 96 -170zM460 214c12 146 79 317 83 448c-31 -108 -116 -297 -215 -444c44 -1 88 -5 132 -4zM547 856c31 0 53 -25 53 -55c0 -29 -25 -55 -56 -55
c-29 0 -49 26 -49 55c0 30 23 55 52 55zM547 832c-17 0 -29 -15 -29 -31s9 -32 26 -32c18 0 33 16 33 32s-12 31 -30 31z" />
    <glyph glyph-name="AE" unicode="&#xc6;" horiz-adv-x="921" 
d="M872 597c-10 -11 -26 5 -15 14c48 49 19 115 -61 86c-108 -39 -126 -176 -23 -219c10 -4 5 -23 -7 -20c-135 29 -251 -33 -276 -193c-35 -221 190 -316 300 -158c63 91 63 230 -56 270c-13 6 -5 26 7 20c132 -45 137 -199 67 -302c-101 -147 -361 -105 -379 97
c-38 0 -77 3 -116 5c-68 -97 -162 -214 -293 -196c-14 2 -11 23 4 20c67 -9 150 69 226 174c-40 -2 -70 -13 -78 -38c-2 -14 -24 -8 -20 5c12 41 56 53 114 56c115 167 214 395 229 490c16 16 67 19 68 -40c0 -67 -18 -144 -37 -224c38 34 84 54 138 51
c-68 83 19 221 121 237c100 16 155 -66 87 -135zM543 662c-31 -108 -116 -297 -215 -444c33 -1 67 -4 100 -4c2 73 25 143 68 198c22 89 44 176 47 250z" />
    <glyph glyph-name="Ccedilla" unicode="&#xc7;" horiz-adv-x="387" 
d="M406 290c-44 -90 -112 -192 -175 -246c-29 -25 -61 -41 -91 -45c8 -18 31 -15 35 -46c6 -50 -64 -50 -60 -1c0 15 22 12 22 -1c-3 -20 20 -20 17 0s-28 17 -35 47c-41 1 -76 26 -93 82c-52 170 29 569 227 628c170 52 187 -153 53 -206c-12 -6 -20 13 -8 18
c110 45 102 221 -28 158c-162 -79 -238 -436 -186 -596c29 -89 86 -66 139 -16c60 54 122 148 164 234c5 11 25 1 19 -10z" />
    <glyph glyph-name="Egrave" unicode="&#xc8;" horiz-adv-x="490" 
d="M454 597c-10 -11 -26 5 -15 14c48 49 19 115 -61 86c-108 -39 -126 -176 -23 -219c10 -4 5 -23 -7 -20c-135 29 -251 -33 -276 -193c-35 -221 190 -316 300 -158c63 91 63 230 -56 270c-13 6 -5 26 7 20c132 -45 137 -199 67 -302c-112 -164 -421 -94 -375 171
c21 121 108 236 231 229c-68 83 19 221 121 237c100 16 155 -66 87 -135zM412 769c-44 -23 -51 63 -70 52c-8 9 -5 27 16 27c36 0 32 -66 44 -61c14 7 23 -12 10 -18z" />
    <glyph glyph-name="Eacute" unicode="&#xc9;" horiz-adv-x="490" 
d="M454 597c-10 -11 -26 5 -15 14c48 49 19 115 -61 86c-108 -39 -126 -176 -23 -219c10 -4 5 -23 -7 -20c-135 29 -251 -33 -276 -193c-35 -221 190 -316 300 -158c63 91 63 230 -56 270c-13 6 -5 26 7 20c132 -45 137 -199 67 -302c-112 -164 -421 -94 -375 171
c21 121 108 236 231 229c-68 83 19 221 121 237c100 16 155 -66 87 -135zM372 763c-13 6 -4 25 10 18c12 -5 8 61 44 61c21 0 24 -18 16 -27c-19 11 -26 -75 -70 -52z" />
    <glyph glyph-name="Ecircumflex" unicode="&#xca;" horiz-adv-x="490" 
d="M454 597c-10 -11 -26 5 -15 14c48 49 19 115 -61 86c-108 -39 -126 -176 -23 -219c10 -4 5 -23 -7 -20c-135 29 -251 -33 -276 -193c-35 -221 190 -316 300 -158c63 91 63 230 -56 270c-13 6 -5 26 7 20c132 -45 137 -199 67 -302c-112 -164 -421 -94 -375 171
c21 121 108 236 231 229c-68 83 19 221 121 237c100 16 155 -66 87 -135zM433 782c14 0 16 -21 1 -21c-46 -4 -27 55 -43 56c-16 0 -20 -61 -58 -49c-12 4 -6 25 7 20c13 -4 19 51 52 51c40 -2 21 -59 41 -57z" />
    <glyph glyph-name="Edieresis" unicode="&#xcb;" horiz-adv-x="490" 
d="M454 597c-10 -11 -26 5 -15 14c48 49 19 115 -61 86c-108 -39 -126 -176 -23 -219c10 -4 5 -23 -7 -20c-135 29 -251 -33 -276 -193c-35 -221 190 -316 300 -158c63 91 63 230 -56 270c-13 6 -5 26 7 20c132 -45 137 -199 67 -302c-112 -164 -421 -94 -375 171
c21 121 108 236 231 229c-68 83 19 221 121 237c100 16 155 -66 87 -135zM349 828c20 0 35 -17 35 -35c0 -19 -15 -36 -35 -36c-18 0 -33 17 -33 36c0 18 15 35 33 35zM435 828c19 0 33 -17 33 -35c0 -19 -14 -36 -33 -36s-34 17 -34 36c0 18 15 35 34 35z" />
    <glyph glyph-name="Igrave" unicode="&#xcc;" horiz-adv-x="284" 
d="M158 538c0 -15 -22 -15 -22 -1c-7 136 113 152 206 157c15 16 31 26 48 31c70 22 102 -29 39 -44c-11 -3 -24 -4 -39 -5c-37 -47 -87 -157 -141 -273c-45 -97 -129 -299 -208 -367c-67 -59 -138 -49 -127 51c3 20 8 44 17 70c4 13 25 5 21 -8c-10 -25 -15 -47 -17 -66
c-9 -84 37 -66 79 -9c70 89 130 234 178 338c50 106 97 205 134 260c-81 -7 -174 -26 -168 -134zM407 749c-44 -23 -51 63 -70 52c-8 9 -5 27 16 27c36 0 32 -66 44 -61c14 7 23 -12 10 -18z" />
    <glyph glyph-name="Iacute" unicode="&#xcd;" horiz-adv-x="284" 
d="M158 538c0 -15 -22 -15 -22 -1c-7 136 113 152 206 157c15 16 31 26 48 31c70 22 102 -29 39 -44c-11 -3 -24 -4 -39 -5c-37 -47 -87 -157 -141 -273c-45 -97 -129 -299 -208 -367c-67 -59 -138 -49 -127 51c3 20 8 44 17 70c4 13 25 5 21 -8c-10 -25 -15 -47 -17 -66
c-9 -84 37 -66 79 -9c70 89 130 234 178 338c50 106 97 205 134 260c-81 -7 -174 -26 -168 -134zM353 757c-13 6 -4 25 10 18c12 -5 8 61 44 61c21 0 24 -18 16 -27c-19 11 -26 -75 -70 -52z" />
    <glyph glyph-name="Icircumflex" unicode="&#xce;" horiz-adv-x="284" 
d="M158 538c0 -15 -22 -15 -22 -1c-7 136 113 152 206 157c15 16 31 26 48 31c70 22 102 -29 39 -44c-11 -3 -24 -4 -39 -5c-37 -47 -87 -157 -141 -273c-45 -97 -129 -299 -208 -367c-67 -59 -138 -49 -127 51c3 20 8 44 17 70c4 13 25 5 21 -8c-10 -25 -15 -47 -17 -66
c-9 -84 37 -66 79 -9c70 89 130 234 178 338c50 106 97 205 134 260c-81 -7 -174 -26 -168 -134zM438 771c14 0 16 -21 1 -21c-46 -4 -27 55 -43 56c-16 0 -20 -61 -58 -49c-12 4 -6 25 7 20c13 -4 19 51 52 51c40 -2 21 -59 41 -57z" />
    <glyph glyph-name="Idieresis" unicode="&#xcf;" horiz-adv-x="284" 
d="M158 538c0 -15 -22 -15 -22 -1c-7 136 113 152 206 157c15 16 31 26 48 31c70 22 102 -29 39 -44c-11 -3 -24 -4 -39 -5c-37 -47 -87 -157 -141 -273c-45 -97 -129 -299 -208 -367c-67 -59 -138 -49 -127 51c3 20 8 44 17 70c4 13 25 5 21 -8c-10 -25 -15 -47 -17 -66
c-9 -84 37 -66 79 -9c70 89 130 234 178 338c50 106 97 205 134 260c-81 -7 -174 -26 -168 -134zM351 831c20 0 35 -17 35 -35c0 -19 -15 -36 -35 -36c-18 0 -33 17 -33 36c0 18 15 35 33 35zM437 831c19 0 33 -17 33 -35c0 -19 -14 -36 -33 -36s-34 17 -34 36
c0 18 15 35 34 35z" />
    <glyph glyph-name="Eth" unicode="&#xd0;" horiz-adv-x="503" 
d="M220 58c159 117 276 440 119 592c-81 78 -176 42 -235 -52c-34 -51 -54 -124 -43 -185c1 -14 -19 -17 -21 -4c-11 66 10 145 45 200c63 100 194 148 289 71c197 -160 55 -554 -132 -656c-238 -129 -325 278 -101 337c13 4 19 -17 5 -20c-192 -36 -121 -426 74 -283z
M195 411l-75 1c-14 0 -14 29 0 29l85 -1c23 74 31 137 -9 163c3 25 46 23 62 7c35 -36 27 -99 5 -171l73 -1c14 0 14 -29 0 -29l-82 1c-6 -18 -13 -37 -20 -55c-36 -94 -74 -190 -46 -245c-5 -20 -51 -24 -60 0c-23 63 13 159 49 253c6 16 13 32 18 48z" />
    <glyph glyph-name="Ntilde" unicode="&#xd1;" horiz-adv-x="603" 
d="M370 1c-104 19 -115 364 -118 566c-32 -162 -103 -566 -301 -566c-13 0 -13 22 0 22c133 0 261 563 263 679c0 25 56 29 57 -1c0 -15 2 -44 2 -84c1 -181 17 -573 96 -593c5 106 81 467 187 622c42 62 84 75 133 71c12 -1 9 -21 0 -21c-42 0 -78 -58 -97 -89
c-93 -165 -170 -509 -166 -595c2 -16 -42 -13 -56 -11zM373 757c-1 -14 -22 -10 -21 4c9 60 178 6 185 33c2 15 23 10 20 -4c-12 -63 -180 -9 -184 -33z" />
    <glyph glyph-name="Ograve" unicode="&#xd2;" horiz-adv-x="410" 
d="M178 597c-42 -62 -76 -146 -95 -230c22 -14 47 -15 70 -12c15 2 17 -19 4 -21c-27 -4 -53 -2 -78 10c-13 -72 -20 -166 4 -237c29 -84 105 -118 169 -40c68 83 110 243 122 348c25 204 -52 283 -139 283c-135 0 -209 -141 -192 -262c19 60 46 119 77 166
c14 20 49 19 58 -5zM263 47c-67 -75 -180 -63 -224 24c-45 88 -30 230 -6 325c-53 141 46 324 203 324c98 0 186 -87 159 -307c-13 -111 -57 -282 -132 -366zM242 750c-44 -23 -51 63 -70 52c-8 9 -5 27 16 27c36 0 32 -66 44 -61c14 7 23 -12 10 -18z" />
    <glyph glyph-name="Oacute" unicode="&#xd3;" horiz-adv-x="410" 
d="M178 597c-42 -62 -76 -146 -95 -230c22 -14 47 -15 70 -12c15 2 17 -19 4 -21c-27 -4 -53 -2 -78 10c-13 -72 -20 -166 4 -237c29 -84 105 -118 169 -40c68 83 110 243 122 348c25 204 -52 283 -139 283c-135 0 -209 -141 -192 -262c19 60 46 119 77 166
c14 20 49 19 58 -5zM263 47c-67 -75 -180 -63 -224 24c-45 88 -30 230 -6 325c-53 141 46 324 203 324c98 0 186 -87 159 -307c-13 -111 -57 -282 -132 -366zM181 750c-13 6 -4 25 10 18c12 -5 8 61 44 61c21 0 24 -18 16 -27c-19 11 -26 -75 -70 -52z" />
    <glyph glyph-name="Ocircumflex" unicode="&#xd4;" horiz-adv-x="410" 
d="M178 597c-42 -62 -76 -146 -95 -230c22 -14 47 -15 70 -12c15 2 17 -19 4 -21c-27 -4 -53 -2 -78 10c-13 -72 -20 -166 4 -237c29 -84 105 -118 169 -40c68 83 110 243 122 348c25 204 -52 283 -139 283c-135 0 -209 -141 -192 -262c19 60 46 119 77 166
c14 20 49 19 58 -5zM263 47c-67 -75 -180 -63 -224 24c-45 88 -30 230 -6 325c-53 141 46 324 203 324c98 0 186 -87 159 -307c-13 -111 -57 -282 -132 -366zM286 775c14 0 16 -21 1 -21c-46 -4 -27 55 -43 56c-16 0 -20 -61 -58 -49c-12 4 -6 25 7 20c13 -4 19 51 52 51
c40 -2 21 -59 41 -57z" />
    <glyph glyph-name="Otilde" unicode="&#xd5;" horiz-adv-x="410" 
d="M178 597c-42 -62 -76 -146 -95 -230c22 -14 47 -15 70 -12c15 2 17 -19 4 -21c-27 -4 -53 -2 -78 10c-13 -72 -20 -166 4 -237c29 -84 105 -118 169 -40c68 83 110 243 122 348c25 204 -52 283 -139 283c-135 0 -209 -141 -192 -262c19 60 46 119 77 166
c14 20 49 19 58 -5zM263 47c-67 -75 -180 -63 -224 24c-45 88 -30 230 -6 325c-53 141 46 324 203 324c98 0 186 -87 159 -307c-13 -111 -57 -282 -132 -366zM148 756c-1 -14 -22 -10 -21 4c9 60 178 6 185 33c2 15 23 10 20 -4c-12 -63 -180 -9 -184 -33z" />
    <glyph glyph-name="Odieresis" unicode="&#xd6;" horiz-adv-x="410" 
d="M178 597c-42 -62 -76 -146 -95 -230c22 -14 47 -15 70 -12c15 2 17 -19 4 -21c-27 -4 -53 -2 -78 10c-13 -72 -20 -166 4 -237c29 -84 105 -118 169 -40c68 83 110 243 122 348c25 204 -52 283 -139 283c-135 0 -209 -141 -192 -262c19 60 46 119 77 166
c14 20 49 19 58 -5zM263 47c-67 -75 -180 -63 -224 24c-45 88 -30 230 -6 325c-53 141 46 324 203 324c98 0 186 -87 159 -307c-13 -111 -57 -282 -132 -366zM192 830c20 0 35 -17 35 -35c0 -19 -15 -36 -35 -36c-18 0 -33 17 -33 36c0 18 15 35 33 35zM278 830
c19 0 33 -17 33 -35c0 -19 -14 -36 -33 -36s-34 17 -34 36c0 18 15 35 34 35z" />
    <glyph glyph-name="multiply" unicode="&#xd7;" horiz-adv-x="374" 
d="M166 292l-113 111c-10 10 11 30 21 21l113 -112l113 112c10 9 31 -11 21 -21l-113 -111l113 -111c10 -10 -11 -30 -21 -21l-113 111l-113 -111c-10 -9 -31 11 -21 21z" />
    <glyph glyph-name="Oslash" unicode="&#xd8;" horiz-adv-x="410" 
d="M132 0l-13 -55c-3 -13 -40 -8 -36 6c5 19 9 40 15 60c-24 12 -45 32 -59 60c-45 88 -30 230 -6 325c-53 141 46 324 203 324c14 0 28 -2 41 -6l18 67c4 13 40 8 37 -6l-20 -76c62 -37 102 -127 83 -286c-13 -111 -57 -282 -132 -366c-36 -41 -86 -56 -131 -47zM252 67
c68 83 110 243 122 348c17 144 -16 226 -68 261c-51 -196 -116 -449 -165 -644c33 -18 74 -10 111 35zM178 597c-42 -62 -76 -146 -95 -230c22 -14 47 -15 70 -12c15 2 17 -19 4 -21c-27 -4 -53 -2 -78 10c-13 -72 -20 -166 4 -237c6 -20 16 -36 27 -50
c49 195 112 444 162 635c-12 4 -25 6 -37 6c-135 0 -209 -141 -192 -262c19 60 46 119 77 166c14 20 49 19 58 -5z" />
    <glyph glyph-name="Ugrave" unicode="&#xd9;" horiz-adv-x="587" 
d="M593 688c-32 -98 -235 -689 -28 -689c13 0 13 -22 0 -22c-223 0 -141 300 -106 450c-48 -114 -135 -311 -227 -392c-70 -60 -160 -56 -180 44c-26 146 46 474 95 619c10 29 66 18 59 0c-49 -143 -118 -442 -99 -596c11 -93 58 -102 118 -46c126 121 264 483 314 648
c7 24 67 24 54 -16zM399 746c-44 -23 -51 63 -70 52c-8 9 -5 27 16 27c36 0 32 -66 44 -61c14 7 23 -12 10 -18z" />
    <glyph glyph-name="Uacute" unicode="&#xda;" horiz-adv-x="587" 
d="M336 761c-13 6 -4 25 10 18c12 -5 8 61 44 61c21 0 24 -18 16 -27c-19 11 -26 -75 -70 -52zM593 688c-32 -98 -235 -689 -28 -689c13 0 13 -22 0 -22c-223 0 -141 300 -106 450c-48 -114 -135 -311 -227 -392c-70 -60 -160 -56 -180 44c-26 146 46 474 95 619
c10 29 66 18 59 0c-49 -143 -118 -442 -99 -596c11 -93 58 -102 118 -46c126 121 264 483 314 648c7 24 67 24 54 -16z" />
    <glyph glyph-name="Ucircumflex" unicode="&#xdb;" horiz-adv-x="587" 
d="M593 688c-32 -98 -235 -689 -28 -689c13 0 13 -22 0 -22c-223 0 -141 300 -106 450c-48 -114 -135 -311 -227 -392c-70 -60 -160 -56 -180 44c-26 146 46 474 95 619c10 29 66 18 59 0c-49 -143 -118 -442 -99 -596c11 -93 58 -102 118 -46c126 121 264 483 314 648
c7 24 67 24 54 -16zM422 773c14 0 16 -21 1 -21c-46 -4 -27 55 -43 56c-16 0 -20 -61 -58 -49c-12 4 -6 25 7 20c13 -4 19 51 52 51c40 -2 21 -59 41 -57z" />
    <glyph glyph-name="Udieresis" unicode="&#xdc;" horiz-adv-x="587" 
d="M593 688c-32 -98 -235 -689 -28 -689c13 0 13 -22 0 -22c-223 0 -141 300 -106 450c-48 -114 -135 -311 -227 -392c-70 -60 -160 -56 -180 44c-26 146 46 474 95 619c10 29 66 18 59 0c-49 -143 -118 -442 -99 -596c11 -93 58 -102 118 -46c126 121 264 483 314 648
c7 24 67 24 54 -16zM334 817c20 0 35 -17 35 -35c0 -19 -15 -36 -35 -36c-18 0 -33 17 -33 36c0 18 15 35 33 35zM420 817c19 0 33 -17 33 -35c0 -19 -14 -36 -33 -36s-34 17 -34 36c0 18 15 35 34 35z" />
    <glyph glyph-name="Yacute" unicode="&#xdd;" horiz-adv-x="558" 
d="M465 682c2 -107 -34 -314 -65 -411c59 -10 114 -8 158 29c11 8 24 -8 13 -16c-50 -44 -112 -44 -177 -34c-29 -85 -66 -165 -116 -224c-195 -236 -378 -34 -301 150c65 151 237 132 368 105c30 95 61 286 62 385c-40 -73 -101 -179 -163 -237c-52 -49 -130 -48 -133 39
c-1 73 34 190 46 230c9 33 56 19 60 4c-21 -66 -48 -157 -48 -227s31 -60 66 -27c65 67 129 182 172 264c19 16 58 -3 58 -30zM226 39c47 59 86 138 113 221c-119 25 -283 47 -342 -92c-61 -144 55 -338 229 -129zM288 730c-13 6 -4 25 10 18c12 -5 8 61 44 61
c21 0 24 -18 16 -27c-19 11 -26 -75 -70 -52z" />
    <glyph glyph-name="Thorn" unicode="&#xde;" horiz-adv-x="313" 
d="M95 274l-6 -264c1 -14 -39 -15 -38 -2c5 229 9 463 16 693c-1 14 40 15 40 2c-2 -42 -3 -84 -4 -126c215 -7 213 -304 -8 -303zM103 559c-3 -89 -6 -178 -8 -267c168 1 170 259 8 267z" />
    <glyph glyph-name="germandbls" unicode="&#xdf;" horiz-adv-x="469" 
d="M259 352l-1 45c60 37 106 101 105 177c-1 72 -65 139 -128 16c-74 -144 -141 -436 -118 -480c-11 -19 -54 -27 -63 10c-18 73 37 349 130 496c79 124 232 84 234 -33c2 -98 -46 -168 -120 -208c70 -27 97 -95 86 -166c-20 -123 -139 -204 -247 -209c-15 1 -16 22 -4 25
c87 12 181 87 194 193c8 61 -16 112 -68 134z" />
    <glyph glyph-name="agrave" unicode="&#xe0;" 
d="M87 338c-20 -24 -37 -83 -43 -116c-3 -16 -1 -27 15 -8c23 28 57 86 75 115c-8 21 -30 30 -47 9zM147 350c8 29 70 8 62 -20c-12 -33 -42 -131 -46 -183c-2 -31 19 -19 46 9c37 39 83 102 112 144c8 12 25 0 17 -12c-29 -43 -76 -106 -115 -146c-22 -24 -64 -65 -100 -38
c-44 35 -16 118 -3 162c-17 -25 -35 -51 -52 -69c-35 -36 -88 -8 -84 40c3 44 29 117 69 138c33 16 73 2 94 -25zM180 420c-44 -23 -51 63 -70 52c-8 9 -5 27 16 27c36 0 32 -66 44 -61c14 7 23 -12 10 -18z" />
    <glyph glyph-name="aacute" unicode="&#xe1;" 
d="M87 338c-20 -24 -37 -83 -43 -116c-3 -16 -1 -27 15 -8c23 28 57 86 75 115c-8 21 -30 30 -47 9zM147 350c8 29 70 8 62 -20c-12 -33 -42 -131 -46 -183c-2 -31 19 -19 46 9c37 39 83 102 112 144c8 12 25 0 17 -12c-29 -43 -76 -106 -115 -146c-22 -24 -64 -65 -100 -38
c-44 35 -16 118 -3 162c-17 -25 -35 -51 -52 -69c-35 -36 -88 -8 -84 40c3 44 29 117 69 138c33 16 73 2 94 -25zM109 422c-13 6 -4 25 10 18c12 -5 8 61 44 61c21 0 24 -18 16 -27c-19 11 -26 -75 -70 -52z" />
    <glyph glyph-name="acircumflex" unicode="&#xe2;" 
d="M87 338c-20 -24 -37 -83 -43 -116c-3 -16 -1 -27 15 -8c23 28 57 86 75 115c-8 21 -30 30 -47 9zM147 350c8 29 70 8 62 -20c-12 -33 -42 -131 -46 -183c-2 -31 19 -19 46 9c37 39 83 102 112 144c8 12 25 0 17 -12c-29 -43 -76 -106 -115 -146c-22 -24 -64 -65 -100 -38
c-44 35 -16 118 -3 162c-17 -25 -35 -51 -52 -69c-35 -36 -88 -8 -84 40c3 44 29 117 69 138c33 16 73 2 94 -25zM203 443c14 0 16 -21 1 -21c-46 -4 -27 55 -43 56c-16 0 -20 -61 -58 -49c-12 4 -6 25 7 20c13 -4 19 51 52 51c40 -2 21 -59 41 -57z" />
    <glyph glyph-name="atilde" unicode="&#xe3;" 
d="M87 338c-20 -24 -37 -83 -43 -116c-3 -16 -1 -27 15 -8c23 28 57 86 75 115c-8 21 -30 30 -47 9zM147 350c8 29 70 8 62 -20c-12 -33 -42 -131 -46 -183c-2 -31 19 -19 46 9c37 39 83 102 112 144c8 12 25 0 17 -12c-29 -43 -76 -106 -115 -146c-22 -24 -64 -65 -100 -38
c-44 35 -16 118 -3 162c-17 -25 -35 -51 -52 -69c-35 -36 -88 -8 -84 40c3 44 29 117 69 138c33 16 73 2 94 -25zM51 414c-1 -14 -22 -10 -21 4c9 60 178 6 185 33c2 15 23 10 20 -4c-12 -63 -180 -9 -184 -33z" />
    <glyph glyph-name="adieresis" unicode="&#xe4;" 
d="M87 338c-20 -24 -37 -83 -43 -116c-3 -16 -1 -27 15 -8c23 28 57 86 75 115c-8 21 -30 30 -47 9zM147 350c8 29 70 8 62 -20c-12 -33 -42 -131 -46 -183c-2 -31 19 -19 46 9c37 39 83 102 112 144c8 12 25 0 17 -12c-29 -43 -76 -106 -115 -146c-22 -24 -64 -65 -100 -38
c-44 35 -16 118 -3 162c-17 -25 -35 -51 -52 -69c-35 -36 -88 -8 -84 40c3 44 29 117 69 138c33 16 73 2 94 -25zM108 486c20 0 35 -17 35 -35c0 -19 -15 -36 -35 -36c-18 0 -33 17 -33 36c0 18 15 35 33 35zM194 486c19 0 33 -17 33 -35c0 -19 -14 -36 -33 -36
s-34 17 -34 36c0 18 15 35 34 35z" />
    <glyph glyph-name="aring" unicode="&#xe5;" 
d="M87 338c-20 -24 -37 -83 -43 -116c-3 -16 -1 -27 15 -8c23 28 57 86 75 115c-8 21 -30 30 -47 9zM147 350c8 29 70 8 62 -20c-12 -33 -42 -131 -46 -183c-2 -31 19 -19 46 9c37 39 83 102 112 144c8 12 25 0 17 -12c-29 -43 -76 -106 -115 -146c-22 -24 -64 -65 -100 -38
c-44 35 -16 118 -3 162c-17 -25 -35 -51 -52 -69c-35 -36 -88 -8 -84 40c3 44 29 117 69 138c33 16 73 2 94 -25zM144 526c31 0 53 -25 53 -55c0 -29 -25 -55 -56 -55c-29 0 -49 26 -49 55c0 30 23 55 52 55zM144 502c-17 0 -29 -15 -29 -31s9 -32 26 -32c18 0 33 16 33 32
s-12 31 -30 31z" />
    <glyph glyph-name="ae" unicode="&#xe6;" horiz-adv-x="350" 
d="M201 179c-8 -44 4 -53 40 -16c35 35 79 94 109 137c8 10 24 0 16 -12c-30 -42 -74 -103 -110 -140c-42 -42 -141 -83 -155 -2c-6 39 10 89 19 120c-17 -25 -35 -51 -52 -69c-35 -36 -88 -8 -84 40c3 44 29 117 69 138c33 16 73 2 94 -25c7 24 52 13 61 -8
c37 25 94 17 92 -32c-3 -57 -48 -107 -99 -131zM87 338c-20 -24 -37 -83 -43 -116c-3 -16 -1 -27 15 -8c23 28 57 86 75 115c-8 21 -30 30 -47 9zM206 205c38 21 71 61 74 105c1 19 -15 27 -31 0c-18 -30 -33 -71 -43 -105z" />
    <glyph glyph-name="ccedilla" unicode="&#xe7;" horiz-adv-x="175" 
d="M115 353c12 -5 7 -23 -5 -20c-12 1 -23 -9 -31 -19c-27 -33 -47 -99 -52 -136c-4 -34 -1 -56 40 -15c35 35 79 95 108 137c9 12 26 0 18 -12c-31 -43 -75 -103 -111 -140c-20 -21 -41 -33 -60 -37c10 -7 22 -12 25 -34c6 -50 -64 -50 -60 -1c0 15 22 12 22 -1
c-3 -20 20 -20 17 0c-3 17 -22 17 -31 36c-25 6 -41 32 -34 79c8 51 33 131 82 160c24 15 48 15 72 3z" />
    <glyph glyph-name="egrave" unicode="&#xe8;" horiz-adv-x="174" 
d="M30 205c38 21 71 61 74 105c1 19 -15 27 -31 0c-18 -30 -33 -71 -43 -105zM25 179c-8 -44 4 -53 40 -16c35 35 79 94 109 137c8 10 24 0 16 -12c-30 -42 -74 -103 -110 -140c-52 -52 -114 -52 -118 16c-2 47 27 136 59 169c35 36 106 32 103 -23
c-3 -57 -48 -107 -99 -131zM103 388c-44 -23 -51 63 -70 52c-8 9 -5 27 16 27c36 0 32 -66 44 -61c14 7 23 -12 10 -18z" />
    <glyph glyph-name="eacute" unicode="&#xe9;" horiz-adv-x="174" 
d="M30 205c38 21 71 61 74 105c1 19 -15 27 -31 0c-18 -30 -33 -71 -43 -105zM25 179c-8 -44 4 -53 40 -16c35 35 79 94 109 137c8 10 24 0 16 -12c-30 -42 -74 -103 -110 -140c-52 -52 -114 -52 -118 16c-2 47 27 136 59 169c35 36 106 32 103 -23
c-3 -57 -48 -107 -99 -131zM44 385c-13 6 -4 25 10 18c12 -5 8 61 44 61c21 0 24 -18 16 -27c-19 11 -26 -75 -70 -52z" />
    <glyph glyph-name="ecircumflex" unicode="&#xea;" horiz-adv-x="174" 
d="M30 205c38 21 71 61 74 105c1 19 -15 27 -31 0c-18 -30 -33 -71 -43 -105zM25 179c-8 -44 4 -53 40 -16c35 35 79 94 109 137c8 10 24 0 16 -12c-30 -42 -74 -103 -110 -140c-52 -52 -114 -52 -118 16c-2 47 27 136 59 169c35 36 106 32 103 -23
c-3 -57 -48 -107 -99 -131zM127 409c14 0 16 -21 1 -21c-46 -4 -27 55 -43 56c-16 0 -20 -61 -58 -49c-12 4 -6 25 7 20c13 -4 19 51 52 51c40 -2 21 -59 41 -57z" />
    <glyph glyph-name="edieresis" unicode="&#xeb;" horiz-adv-x="174" 
d="M30 205c38 21 71 61 74 105c1 19 -15 27 -31 0c-18 -30 -33 -71 -43 -105zM25 179c-8 -44 4 -53 40 -16c35 35 79 94 109 137c8 10 24 0 16 -12c-30 -42 -74 -103 -110 -140c-52 -52 -114 -52 -118 16c-2 47 27 136 59 169c35 36 106 32 103 -23
c-3 -57 -48 -107 -99 -131zM31 467c20 0 35 -17 35 -35c0 -19 -15 -36 -35 -36c-18 0 -33 17 -33 36c0 18 15 35 33 35zM117 467c19 0 33 -17 33 -35c0 -19 -14 -36 -33 -36s-34 17 -34 36c0 18 15 35 34 35z" />
    <glyph glyph-name="igrave" unicode="&#xec;" horiz-adv-x="185" 
d="M83 353c-15 -51 -32 -100 -43 -154c-8 -39 -16 -89 36 -36c35 35 78 95 109 137c8 12 25 0 17 -12c-31 -43 -75 -103 -111 -140c-71 -73 -137 -42 -116 61c10 50 25 97 41 145c7 23 72 18 67 -1zM89 410c-44 -23 -51 63 -70 52c-8 9 -5 27 16 27c36 0 32 -66 44 -61
c14 7 23 -12 10 -18z" />
    <glyph glyph-name="iacute" unicode="&#xed;" horiz-adv-x="185" 
d="M83 353c-15 -51 -32 -100 -43 -154c-8 -39 -16 -89 36 -36c35 35 78 95 109 137c8 12 25 0 17 -12c-31 -43 -75 -103 -111 -140c-71 -73 -137 -42 -116 61c10 50 25 97 41 145c7 23 72 18 67 -1zM35 421c-13 6 -4 25 10 18c12 -5 8 61 44 61c21 0 24 -18 16 -27
c-19 11 -26 -75 -70 -52z" />
    <glyph glyph-name="icircumflex" unicode="&#xee;" horiz-adv-x="185" 
d="M83 353c-15 -51 -32 -100 -43 -154c-8 -39 -16 -89 36 -36c35 35 78 95 109 137c8 12 25 0 17 -12c-31 -43 -75 -103 -111 -140c-71 -73 -137 -42 -116 61c10 50 25 97 41 145c7 23 72 18 67 -1zM108 435c14 0 16 -21 1 -21c-46 -4 -27 55 -43 56c-16 0 -20 -61 -58 -49
c-12 4 -6 25 7 20c13 -4 19 51 52 51c40 -2 21 -59 41 -57z" />
    <glyph glyph-name="idieresis" unicode="&#xef;" horiz-adv-x="185" 
d="M83 353c-15 -51 -32 -100 -43 -154c-8 -39 -16 -89 36 -36c35 35 78 95 109 137c8 12 25 0 17 -12c-31 -43 -75 -103 -111 -140c-71 -73 -137 -42 -116 61c10 50 25 97 41 145c7 23 72 18 67 -1zM14 485c20 0 35 -17 35 -35c0 -19 -15 -36 -35 -36c-18 0 -33 17 -33 36
c0 18 15 35 33 35zM100 485c19 0 33 -17 33 -35c0 -19 -14 -36 -33 -36s-34 17 -34 36c0 18 15 35 34 35z" />
    <glyph glyph-name="eth" unicode="&#xf0;" horiz-adv-x="292" 
d="M138 463l-42 -49c-10 -9 -31 11 -21 21l43 52c-2 1 -3 3 -5 5c-35 28 -78 29 -71 -38c0 -14 -20 -16 -21 -2c-7 77 60 100 119 71l6 -4l42 50c10 9 31 -11 21 -21l-39 -47c87 -85 119 -319 93 -412c-22 -72 -82 -81 -135 -33c-39 34 -67 97 -72 148
c-11 85 44 165 133 141c-10 34 -27 83 -51 118zM141 72c39 -35 55 -22 67 29c16 64 4 155 -12 220c-78 32 -128 -36 -120 -113c5 -45 30 -104 65 -136z" />
    <glyph glyph-name="ntilde" unicode="&#xf1;" horiz-adv-x="344" 
d="M79 353c-16 -56 -28 -118 -41 -177c29 49 60 100 96 144c48 60 106 28 86 -40c-11 -38 -25 -83 -26 -120c-1 -32 18 -22 42 3c34 35 79 95 108 137c8 12 25 0 17 -12c-30 -43 -75 -103 -111 -140c-42 -44 -128 -64 -123 22c3 37 20 89 30 120c7 23 9 36 -14 7
c-41 -54 -85 -122 -116 -181c-23 -21 -70 -6 -60 42c13 64 28 132 44 194c7 27 72 16 68 1zM51 417c-1 -14 -22 -10 -21 4c9 60 178 6 185 33c2 15 23 10 20 -4c-12 -63 -180 -9 -184 -33z" />
    <glyph glyph-name="ograve" unicode="&#xf2;" horiz-adv-x="286" 
d="M100 371c-14 -35 -28 -69 -40 -104c39 -22 87 -26 130 -18c29 65 17 126 -52 157c-63 27 -143 -4 -126 -83c7 17 13 35 21 52c8 20 73 10 67 -4zM53 247c-5 -19 -15 -52 -16 -79c-3 -55 34 -46 67 -22c27 19 54 47 73 81c-41 -6 -86 0 -124 20zM118 129
c-52 -37 -134 -36 -143 40c-4 39 14 90 26 125c-53 92 48 174 145 131c73 -32 96 -97 69 -168c24 8 50 23 71 43c10 8 24 -6 14 -16c-30 -27 -62 -44 -97 -52c-21 -43 -54 -81 -85 -103zM160 463c-44 -23 -51 63 -70 52c-8 9 -5 27 16 27c36 0 32 -66 44 -61
c14 7 23 -12 10 -18z" />
    <glyph glyph-name="oacute" unicode="&#xf3;" horiz-adv-x="286" 
d="M100 371c-14 -35 -28 -69 -40 -104c39 -22 87 -26 130 -18c29 65 17 126 -52 157c-63 27 -143 -4 -126 -83c7 17 13 35 21 52c8 20 73 10 67 -4zM53 247c-5 -19 -15 -52 -16 -79c-3 -55 34 -46 67 -22c27 19 54 47 73 81c-41 -6 -86 0 -124 20zM118 129
c-52 -37 -134 -36 -143 40c-4 39 14 90 26 125c-53 92 48 174 145 131c73 -32 96 -97 69 -168c24 8 50 23 71 43c10 8 24 -6 14 -16c-30 -27 -62 -44 -97 -52c-21 -43 -54 -81 -85 -103zM92 473c-13 6 -4 25 10 18c12 -5 8 61 44 61c21 0 24 -18 16 -27
c-19 11 -26 -75 -70 -52z" />
    <glyph glyph-name="ocircumflex" unicode="&#xf4;" horiz-adv-x="286" 
d="M100 371c-14 -35 -28 -69 -40 -104c39 -22 87 -26 130 -18c29 65 17 126 -52 157c-63 27 -143 -4 -126 -83c7 17 13 35 21 52c8 20 73 10 67 -4zM53 247c-5 -19 -15 -52 -16 -79c-3 -55 34 -46 67 -22c27 19 54 47 73 81c-41 -6 -86 0 -124 20zM118 129
c-52 -37 -134 -36 -143 40c-4 39 14 90 26 125c-53 92 48 174 145 131c73 -32 96 -97 69 -168c24 8 50 23 71 43c10 8 24 -6 14 -16c-30 -27 -62 -44 -97 -52c-21 -43 -54 -81 -85 -103zM167 493c14 0 16 -21 1 -21c-46 -4 -27 55 -43 56c-16 0 -20 -61 -58 -49
c-12 4 -6 25 7 20c13 -4 19 51 52 51c40 -2 21 -59 41 -57z" />
    <glyph glyph-name="otilde" unicode="&#xf5;" horiz-adv-x="286" 
d="M100 371c-14 -35 -28 -69 -40 -104c39 -22 87 -26 130 -18c29 65 17 126 -52 157c-63 27 -143 -4 -126 -83c7 17 13 35 21 52c8 20 73 10 67 -4zM53 247c-5 -19 -15 -52 -16 -79c-3 -55 34 -46 67 -22c27 19 54 47 73 81c-41 -6 -86 0 -124 20zM118 129
c-52 -37 -134 -36 -143 40c-4 39 14 90 26 125c-53 92 48 174 145 131c73 -32 96 -97 69 -168c24 8 50 23 71 43c10 8 24 -6 14 -16c-30 -27 -62 -44 -97 -52c-21 -43 -54 -81 -85 -103zM25 467c-1 -14 -22 -10 -21 4c9 60 178 6 185 33c2 15 23 10 20 -4
c-12 -63 -180 -9 -184 -33z" />
    <glyph glyph-name="odieresis" unicode="&#xf6;" horiz-adv-x="286" 
d="M100 371c-14 -35 -28 -69 -40 -104c39 -22 87 -26 130 -18c29 65 17 126 -52 157c-63 27 -143 -4 -126 -83c7 17 13 35 21 52c8 20 73 10 67 -4zM53 247c-5 -19 -15 -52 -16 -79c-3 -55 34 -46 67 -22c27 19 54 47 73 81c-41 -6 -86 0 -124 20zM118 129
c-52 -37 -134 -36 -143 40c-4 39 14 90 26 125c-53 92 48 174 145 131c73 -32 96 -97 69 -168c24 8 50 23 71 43c10 8 24 -6 14 -16c-30 -27 -62 -44 -97 -52c-21 -43 -54 -81 -85 -103zM70 534c20 0 35 -17 35 -35c0 -19 -15 -36 -35 -36c-18 0 -33 17 -33 36
c0 18 15 35 33 35zM156 534c19 0 33 -17 33 -35c0 -19 -14 -36 -33 -36s-34 17 -34 36c0 18 15 35 34 35z" />
    <glyph glyph-name="divide" unicode="&#xf7;" horiz-adv-x="468" 
d="M220 257c27 0 48 -24 48 -49c0 -29 -21 -51 -48 -51c-28 0 -48 22 -48 51c0 25 20 49 48 49zM248 458c27 0 48 -23 48 -50c0 -26 -21 -50 -48 -50c-28 0 -48 24 -48 50c0 27 20 50 48 50zM407 284l-346 3c-14 0 -14 29 0 29l346 -3c14 0 14 -29 0 -29z" />
    <glyph glyph-name="oslash" unicode="&#xf8;" horiz-adv-x="286" 
d="M74 8c-3 -13 -40 -8 -36 6l23 92c-41 -6 -80 12 -86 63c-4 39 14 90 26 125c-52 90 44 171 139 133l72 280c4 13 40 8 37 -6c-26 -97 -50 -195 -75 -292c50 -35 64 -92 41 -152c24 8 50 23 71 43c10 8 24 -6 14 -16c-30 -27 -62 -44 -97 -52c-21 -43 -54 -81 -85 -103
c-5 -4 -11 -7 -16 -10c-10 -37 -19 -74 -28 -111zM100 371c-14 -35 -28 -69 -40 -104c12 -7 24 -12 37 -15l38 155c-62 25 -140 -6 -123 -84c7 17 13 35 21 52c8 20 73 10 67 -4zM190 249c24 53 20 104 -21 138l-35 -142c19 -1 38 0 56 4zM53 247c-5 -19 -15 -52 -16 -79
c-2 -34 11 -44 29 -41l26 104c-13 4 -27 9 -39 16zM177 227c-16 -3 -32 -3 -48 -2c-7 -25 -13 -50 -19 -75c25 19 49 45 67 77z" />
    <glyph glyph-name="ugrave" unicode="&#xf9;" horiz-adv-x="348" 
d="M242 336c-15 -48 -31 -95 -40 -145c-7 -40 -9 -77 39 -28c34 35 77 95 107 137c8 12 25 0 17 -12c-29 -43 -74 -103 -110 -140c-65 -65 -133 -49 -117 55c3 19 6 36 12 54c-29 -47 -55 -86 -77 -110c-48 -52 -116 -36 -100 50c9 53 25 103 41 153c10 31 74 19 70 3
c-16 -53 -35 -104 -45 -159c-7 -38 -11 -63 18 -32c33 37 83 115 125 199c12 27 69 5 60 -25zM172 403c-44 -23 -51 63 -70 52c-8 9 -5 27 16 27c36 0 32 -66 44 -61c14 7 23 -12 10 -18z" />
    <glyph glyph-name="uacute" unicode="&#xfa;" horiz-adv-x="348" 
d="M242 336c-15 -48 -31 -95 -40 -145c-7 -40 -9 -77 39 -28c34 35 77 95 107 137c8 12 25 0 17 -12c-29 -43 -74 -103 -110 -140c-65 -65 -133 -49 -117 55c3 19 6 36 12 54c-29 -47 -55 -86 -77 -110c-48 -52 -116 -36 -100 50c9 53 25 103 41 153c10 31 74 19 70 3
c-16 -53 -35 -104 -45 -159c-7 -38 -11 -63 18 -32c33 37 83 115 125 199c12 27 69 5 60 -25zM110 401c-13 6 -4 25 10 18c12 -5 8 61 44 61c21 0 24 -18 16 -27c-19 11 -26 -75 -70 -52z" />
    <glyph glyph-name="ucircumflex" unicode="&#xfb;" horiz-adv-x="348" 
d="M242 336c-15 -48 -31 -95 -40 -145c-7 -40 -9 -77 39 -28c34 35 77 95 107 137c8 12 25 0 17 -12c-29 -43 -74 -103 -110 -140c-65 -65 -133 -49 -117 55c3 19 6 36 12 54c-29 -47 -55 -86 -77 -110c-48 -52 -116 -36 -100 50c9 53 25 103 41 153c10 31 74 19 70 3
c-16 -53 -35 -104 -45 -159c-7 -38 -11 -63 18 -32c33 37 83 115 125 199c12 27 69 5 60 -25zM190 441c14 0 16 -21 1 -21c-46 -4 -27 55 -43 56c-16 0 -20 -61 -58 -49c-12 4 -6 25 7 20c13 -4 19 51 52 51c40 -2 21 -59 41 -57z" />
    <glyph glyph-name="udieresis" unicode="&#xfc;" horiz-adv-x="348" 
d="M242 336c-15 -48 -31 -95 -40 -145c-7 -40 -9 -77 39 -28c34 35 77 95 107 137c8 12 25 0 17 -12c-29 -43 -74 -103 -110 -140c-65 -65 -133 -49 -117 55c3 19 6 36 12 54c-29 -47 -55 -86 -77 -110c-48 -52 -116 -36 -100 50c9 53 25 103 41 153c10 31 74 19 70 3
c-16 -53 -35 -104 -45 -159c-7 -38 -11 -63 18 -32c33 37 83 115 125 199c12 27 69 5 60 -25zM98 468c20 0 35 -17 35 -35c0 -19 -15 -36 -35 -36c-18 0 -33 17 -33 36c0 18 15 35 33 35zM184 468c19 0 33 -17 33 -35c0 -19 -14 -36 -33 -36s-34 17 -34 36c0 18 15 35 34 35
z" />
    <glyph glyph-name="yacute" unicode="&#xfd;" horiz-adv-x="317" 
d="M79 340c-4 -15 -43 -125 -50 -174c-4 -26 2 -34 27 1c45 61 74 126 114 182c11 8 69 5 59 -28c-15 -52 -28 -106 -43 -158c40 28 84 70 131 137c8 12 25 0 17 -12c-57 -82 -108 -126 -156 -156c-20 -72 -40 -142 -78 -206c-116 -192 -350 -12 -119 134
c40 25 82 40 125 59l42 154c-24 -39 -51 -88 -74 -119c-36 -49 -101 -62 -104 4c-2 61 34 159 41 183c9 27 72 13 68 -1zM99 94c-38 -17 -74 -30 -107 -51c-174 -110 -45 -254 44 -105c28 48 47 102 63 156zM105 384c-13 6 -4 25 10 18c12 -5 8 61 44 61c21 0 24 -18 16 -27
c-19 11 -26 -75 -70 -52z" />
    <glyph glyph-name="thorn" unicode="&#xfe;" horiz-adv-x="312" 
d="M93 196c-2 -62 -3 -124 -4 -186c1 -14 -39 -15 -38 -2c5 229 9 463 16 693c-1 14 40 15 40 2l-6 -204c216 -6 214 -305 -8 -303zM100 481l-7 -267c170 0 171 260 7 267z" />
    <glyph glyph-name="ydieresis" unicode="&#xff;" horiz-adv-x="317" 
d="M79 340c-4 -15 -43 -125 -50 -174c-4 -26 2 -34 27 1c45 61 74 126 114 182c11 8 69 5 59 -28c-15 -52 -28 -106 -43 -158c40 28 84 70 131 137c8 12 25 0 17 -12c-57 -82 -108 -126 -156 -156c-20 -72 -40 -142 -78 -206c-116 -192 -350 -12 -119 134
c40 25 82 40 125 59l42 154c-24 -39 -51 -88 -74 -119c-36 -49 -101 -62 -104 4c-2 61 34 159 41 183c9 27 72 13 68 -1zM99 94c-38 -17 -74 -30 -107 -51c-174 -110 -45 -254 44 -105c28 48 47 102 63 156zM94 463c20 0 35 -17 35 -35c0 -19 -15 -36 -35 -36
c-18 0 -33 17 -33 36c0 18 15 35 33 35zM180 463c19 0 33 -17 33 -35c0 -19 -14 -36 -33 -36s-34 17 -34 36c0 18 15 35 34 35z" />
    <glyph glyph-name="dotlessi" unicode="&#x131;" horiz-adv-x="185" 
d="M83 353c-15 -51 -32 -100 -43 -154c-8 -39 -16 -89 36 -36c35 35 78 95 109 137c8 12 25 0 17 -12c-31 -43 -75 -103 -111 -140c-71 -73 -137 -42 -116 61c10 50 25 97 41 145c7 23 72 18 67 -1z" />
    <glyph glyph-name="Lslash" unicode="&#x141;" horiz-adv-x="369" 
d="M119 172l-90 -38c-13 -6 -24 21 -11 26l116 48c12 31 24 64 36 98c-15 0 -29 2 -46 6c-13 2 -9 22 4 20c18 -3 34 -4 50 -4c36 104 82 261 140 348c54 80 144 61 138 -48c-6 -124 -112 -279 -223 -312c-10 -27 -19 -53 -29 -78l133 56c13 6 24 -21 11 -26l-158 -66
c-25 -64 -50 -118 -75 -153c67 -10 145 -46 210 -29c15 3 20 -17 6 -21c-79 -22 -156 25 -233 32c-15 -14 -34 -26 -54 -27c-25 -3 -49 8 -21 29c9 7 19 12 29 15c22 24 44 69 67 124zM241 343c95 36 187 176 194 285c4 72 -26 100 -71 22c-52 -85 -108 -266 -123 -307z" />
    <glyph glyph-name="lslash" unicode="&#x142;" horiz-adv-x="187" 
d="M-15 244l-88 -37c-13 -6 -24 21 -11 26l107 45c26 107 76 255 151 308c74 53 121 12 84 -68c-25 -54 -77 -126 -148 -174c-4 -12 -8 -23 -11 -34l136 57c13 6 24 -21 11 -26l-157 -66c-9 -34 -16 -66 -19 -89c-7 -42 -6 -67 38 -23c35 35 78 94 109 137c8 10 24 0 16 -12
c-30 -42 -74 -103 -110 -140c-70 -72 -134 -37 -116 59zM90 376c57 44 100 104 120 148c29 63 6 69 -35 22c-37 -44 -68 -123 -85 -170z" />
    <glyph glyph-name="OE" unicode="&#x152;" horiz-adv-x="727" 
d="M692 597c-10 -11 -26 5 -15 14c48 49 19 115 -61 86c-108 -39 -126 -176 -23 -219c10 -4 5 -23 -7 -20c-135 29 -251 -33 -276 -193c-35 -221 190 -316 300 -158c63 91 63 230 -56 270c-13 6 -5 26 7 20c132 -45 137 -199 67 -302c-79 -115 -256 -115 -338 -12
c-8 -13 -18 -25 -27 -36c-67 -75 -180 -63 -224 24c-45 88 -30 230 -6 325c-53 141 46 324 203 324c87 0 167 -69 164 -241c25 12 53 17 84 16c-68 83 19 221 121 237c100 16 155 -66 87 -135zM235 698c-135 0 -209 -141 -192 -262c19 60 46 119 77 166c14 20 49 19 58 -5
c-42 -62 -76 -146 -95 -230c22 -14 47 -15 70 -12c15 2 17 -19 4 -21c-27 -4 -53 -2 -78 10c-13 -72 -20 -166 4 -237c29 -84 105 -118 169 -40c9 11 17 23 25 36c-25 42 -36 96 -24 163c14 82 59 162 125 202c6 164 -64 230 -143 230z" />
    <glyph glyph-name="oe" unicode="&#x153;" horiz-adv-x="362" 
d="M213 179c-8 -44 4 -53 40 -16c35 35 79 94 109 137c8 10 24 0 16 -12c-30 -42 -74 -103 -110 -140c-50 -50 -110 -52 -118 9c-10 -11 -22 -20 -32 -28c-52 -37 -134 -36 -143 40c-4 39 14 90 26 125c-53 92 48 174 145 131c41 -18 67 -47 76 -81c37 23 92 14 90 -34
c-3 -57 -48 -107 -99 -131zM138 406c-63 27 -143 -4 -126 -83c7 17 13 35 21 52c8 20 73 10 67 -4c-14 -35 -28 -69 -40 -104c31 -18 68 -24 104 -21c10 31 24 61 39 80c-4 33 -25 62 -65 80zM53 247c-5 -19 -15 -52 -16 -79c-3 -55 34 -46 67 -22c16 11 32 26 47 43
c1 11 4 23 7 36c-36 -2 -73 4 -105 22zM218 205c38 21 71 61 74 105c1 19 -15 27 -31 0c-18 -30 -33 -71 -43 -105z" />
    <glyph glyph-name="Scaron" unicode="&#x160;" horiz-adv-x="483" 
d="M294 664c-63 -61 -99 -204 11 -235c146 -40 135 -210 71 -314c-106 -173 -333 -140 -340 69c-2 67 18 139 49 193c7 12 24 2 18 -10c-29 -50 -47 -117 -45 -180c6 -191 181 -205 267 -55c53 93 67 239 -62 274c-136 37 -91 227 2 290c74 50 164 6 160 -86
c-3 -65 -49 -131 -119 -131c-15 0 -15 21 0 21c58 0 96 58 98 111c2 71 -51 110 -110 53zM288 805c-14 0 -16 21 -1 21c46 4 24 -55 40 -56c16 0 20 61 58 49c12 -4 6 -25 -7 -20c-13 4 -19 -51 -52 -51c-40 2 -18 59 -38 57z" />
    <glyph glyph-name="scaron" unicode="&#x161;" horiz-adv-x="205" 
d="M205 300c11 9 26 -5 16 -15c-54 -56 -115 -104 -179 -146c-11 -63 -36 -154 -79 -200c-89 -97 -208 -22 -120 87c34 43 80 67 127 93c15 67 20 222 63 284c25 37 71 20 65 -16c-34 -43 -46 -174 -52 -220c58 39 110 83 159 133zM-37 91c-39 -23 -76 -44 -104 -79
c-44 -56 -28 -131 44 -52c29 32 48 88 60 131zM23 510c-14 0 -16 21 -1 21c46 4 24 -55 40 -56c16 0 20 61 58 49c12 -4 6 -25 -7 -20c-13 4 -19 -51 -52 -51c-40 2 -18 59 -38 57z" />
    <glyph glyph-name="Ydieresis" unicode="&#x178;" horiz-adv-x="558" 
d="M465 682c2 -107 -34 -314 -65 -411c59 -10 114 -8 158 29c11 8 24 -8 13 -16c-50 -44 -112 -44 -177 -34c-29 -85 -66 -165 -116 -224c-195 -236 -378 -34 -301 150c65 151 237 132 368 105c30 95 61 286 62 385c-40 -73 -101 -179 -163 -237c-52 -49 -130 -48 -133 39
c-1 73 34 190 46 230c9 33 56 19 60 4c-21 -66 -48 -157 -48 -227s31 -60 66 -27c65 67 129 182 172 264c19 16 58 -3 58 -30zM226 39c47 59 86 138 113 221c-119 25 -283 47 -342 -92c-61 -144 55 -338 229 -129zM266 796c20 0 35 -17 35 -35c0 -19 -15 -36 -35 -36
c-18 0 -33 17 -33 36c0 18 15 35 33 35zM352 796c19 0 33 -17 33 -35c0 -19 -14 -36 -33 -36s-34 17 -34 36c0 18 15 35 34 35z" />
    <glyph glyph-name="Zcaron" unicode="&#x17d;" horiz-adv-x="531" 
d="M180 642c-5 -12 -24 -5 -20 8c54 137 232 7 270 63c6 8 17 6 19 -3c28 -74 -1 -198 -93 -210c55 -38 47 -177 36 -232c55 -4 104 1 139 32c11 9 26 -8 15 -16c-43 -36 -98 -42 -158 -38c-21 -120 -100 -224 -191 -284c-298 -194 -351 367 -30 339c56 -5 111 -17 167 -25
c9 60 21 200 -57 227c-11 4 -7 23 6 20c91 -17 127 79 117 153c-71 -3 -182 63 -220 -34zM183 7c72 61 131 145 149 247c-56 9 -111 21 -167 26c-286 26 -231 -484 18 -273zM294 784c-14 0 -16 21 -1 21c46 4 24 -55 40 -56c16 0 20 61 58 49c12 -4 6 -25 -7 -20
c-13 4 -19 -51 -52 -51c-40 2 -18 59 -38 57z" />
    <glyph glyph-name="zcaron" unicode="&#x17e;" horiz-adv-x="264" 
d="M-62 60l123 76c-3 34 -31 50 -60 59c-14 3 -8 23 4 20c48 -4 91 60 108 98c-23 -15 -52 -28 -72 -33c-47 -13 -55 14 -24 48c9 10 25 -3 17 -14c-10 -12 -18 -20 2 -14c25 8 65 29 87 45c30 16 71 -4 58 -33c-17 -42 -50 -94 -95 -111c13 -7 23 -16 30 -29
c63 43 120 87 148 128c8 12 26 0 18 -12c-31 -43 -93 -91 -157 -136c15 -61 -45 -199 -81 -244c-122 -157 -324 15 -106 152zM60 111c-38 -24 -74 -45 -111 -68c-172 -106 -47 -256 44 -105c28 46 59 118 67 173zM37 429c-14 0 -16 21 -1 21c46 4 24 -55 40 -56
c16 0 20 61 58 49c12 -4 6 -25 -7 -20c-13 4 -19 -51 -52 -51c-40 2 -18 59 -38 57z" />
    <glyph glyph-name="florin" unicode="&#x192;" horiz-adv-x="232" 
d="M70 313c31 19 51 43 61 66c18 41 13 99 -24 26c-12 -22 -24 -56 -37 -92zM149 372c-13 -31 -41 -64 -88 -86c-20 -60 -36 -120 -53 -180c69 26 124 48 224 194c8 10 26 0 18 -11c-99 -143 -157 -171 -221 -197c43 -20 82 -52 94 -100c38 -154 -217 -256 -209 -36
c4 103 94 423 150 483c61 64 122 18 85 -67zM1 80c-11 -40 -19 -81 -20 -123c-7 -186 147 -74 122 28c-12 48 -58 79 -102 95z" />
    <glyph glyph-name="circumflex" unicode="&#x2c6;" horiz-adv-x="219" 
d="M157 624c14 0 16 -21 1 -21c-46 -4 -27 55 -43 56c-16 0 -20 -61 -58 -49c-12 4 -6 25 7 20c13 -4 19 51 52 51c40 -2 21 -59 41 -57z" />
    <glyph glyph-name="caron" unicode="&#x2c7;" horiz-adv-x="216" 
d="M62 706c-14 0 -16 21 -1 21c46 4 24 -55 40 -56c16 0 20 61 58 49c12 -4 6 -25 -7 -20c-13 4 -19 -51 -52 -51c-40 2 -18 59 -38 57z" />
    <glyph glyph-name="breve" unicode="&#x2d8;" horiz-adv-x="190" 
d="M54 736c3 13 24 9 20 -5c-8 -31 1 -43 12 -43c12 1 26 16 32 39c4 13 24 9 21 -6c-8 -36 -33 -55 -55 -55c-24 0 -40 24 -30 70z" />
    <glyph glyph-name="dotaccent" unicode="&#x2d9;" horiz-adv-x="167" 
d="M84 746c19 0 33 -17 33 -35c0 -19 -14 -36 -33 -36s-34 17 -34 36c0 18 15 35 34 35z" />
    <glyph glyph-name="ring" unicode="&#x2da;" horiz-adv-x="205" 
d="M102 732c31 0 53 -25 53 -55c0 -29 -25 -55 -56 -55c-29 0 -49 26 -49 55c0 30 23 55 52 55zM102 708c-17 0 -29 -15 -29 -31s9 -32 26 -32c18 0 33 16 33 32s-12 31 -30 31z" />
    <glyph glyph-name="ogonek" unicode="&#x2db;" horiz-adv-x="162" 
d="M88 0c1 13 23 10 20 -3c-5 -36 -33 -31 -36 -52c-3 -20 20 -20 17 0c0 13 22 16 22 1c4 -49 -66 -49 -60 1c4 35 33 27 37 53z" />
    <glyph glyph-name="tilde" unicode="&#x2dc;" horiz-adv-x="307" 
d="M72 660c-1 -14 -22 -10 -21 4c9 60 178 6 185 33c2 15 23 10 20 -4c-12 -63 -180 -9 -184 -33z" />
    <glyph glyph-name="hungarumlaut" unicode="&#x2dd;" horiz-adv-x="249" 
d="M124 648c-13 6 -4 25 10 18c12 -5 8 61 44 61c21 0 24 -18 16 -27c-19 11 -26 -75 -70 -52zM57 648c-13 6 -4 25 10 18c12 -5 8 61 44 61c21 0 24 -18 16 -27c-19 11 -26 -75 -70 -52z" />
    <glyph glyph-name="endash" unicode="&#x2013;" horiz-adv-x="468" 
d="M407 284l-346 3c-14 0 -14 29 0 29l346 -3c14 0 14 -29 0 -29z" />
    <glyph glyph-name="emdash" unicode="&#x2014;" horiz-adv-x="609" 
d="M548 270l-487 3c-14 0 -14 29 0 29l487 -3c14 0 14 -29 0 -29z" />
    <glyph glyph-name="quoteleft" unicode="&#x2018;" horiz-adv-x="154" 
d="M67 731c50 0 16 -82 37 -82c0 -25 -40 -43 -52 -11c-9 25 23 70 12 70c-15 0 -11 23 3 23z" />
    <glyph glyph-name="quoteright" unicode="&#x2019;" horiz-adv-x="154" 
d="M87 606c-50 0 -16 82 -37 82c0 25 40 43 52 11c9 -25 -23 -70 -12 -70c15 0 11 -23 -3 -23z" />
    <glyph glyph-name="quotesinglbase" unicode="&#x201a;" horiz-adv-x="184" 
d="M84 80c38 0 38 -58 46 -62c10 -6 0 -35 -21 -35c-14 0 -20 12 -22 26c-22 0 -37 17 -37 36c0 18 14 35 34 35z" />
    <glyph glyph-name="quotedblleft" unicode="&#x201c;" horiz-adv-x="227" 
d="M67 731c50 0 16 -82 37 -82c0 -25 -40 -43 -52 -11c-9 25 23 70 12 70c-15 0 -11 23 3 23zM140 731c50 0 16 -82 37 -82c0 -25 -40 -43 -52 -11c-9 25 23 70 12 70c-15 0 -11 23 3 23z" />
    <glyph glyph-name="quotedblright" unicode="&#x201d;" horiz-adv-x="227" 
d="M160 606c-50 0 -16 82 -37 82c0 25 40 43 52 11c9 -25 -23 -70 -12 -70c15 0 11 -23 -3 -23zM87 606c-50 0 -16 82 -37 82c0 25 40 43 52 11c9 -25 -23 -70 -12 -70c15 0 11 -23 -3 -23z" />
    <glyph glyph-name="quotedblbase" unicode="&#x201e;" horiz-adv-x="316" 
d="M84 80c38 0 38 -58 46 -62c10 -6 0 -35 -21 -35c-14 0 -20 12 -22 26c-22 0 -37 17 -37 36c0 18 14 35 34 35zM216 77c38 0 38 -58 46 -62c10 -6 0 -35 -21 -35c-14 0 -20 12 -22 26c-22 0 -37 17 -37 36c0 18 14 35 34 35z" />
    <glyph glyph-name="dagger" unicode="&#x2020;" horiz-adv-x="468" 
d="M216 435l-155 2c-14 0 -14 29 0 29l156 -2l8 237c-1 14 40 15 40 2l-9 -239l151 -1c14 0 14 -29 0 -29l-152 1c-5 -142 -11 -283 -14 -425c1 -14 -39 -15 -38 -2c3 141 8 284 13 427z" />
    <glyph glyph-name="daggerdbl" unicode="&#x2021;" horiz-adv-x="467" 
d="M207 210l-147 1c-13 0 -13 30 0 30l148 -2l6 176l-154 1c-13 0 -13 30 0 30l155 -2l9 257c-1 14 40 15 40 2l-9 -259l151 -1c14 0 14 -28 0 -28h-152c-3 -59 -6 -117 -8 -176l160 -1c14 0 14 -29 0 -29l-160 1c-3 -67 -5 -133 -6 -200c1 -14 -39 -15 -38 -2
c1 67 3 134 5 202z" />
    <glyph glyph-name="bullet" unicode="&#x2022;" horiz-adv-x="303" 
d="M153 423c58 0 100 -51 100 -106c0 -58 -42 -109 -100 -109s-103 51 -103 109c0 55 45 106 103 106z" />
    <glyph glyph-name="ellipsis" unicode="&#x2026;" horiz-adv-x="501" 
d="M84 80c19 0 33 -17 33 -35c0 -19 -14 -36 -33 -36s-34 17 -34 36c0 18 15 35 34 35zM251 80c19 0 33 -17 33 -35c0 -19 -14 -36 -33 -36s-34 17 -34 36c0 18 15 35 34 35zM418 80c19 0 33 -17 33 -35c0 -19 -14 -36 -33 -36s-34 17 -34 36c0 18 15 35 34 35z" />
    <glyph glyph-name="perthousand" unicode="&#x2030;" horiz-adv-x="909" 
d="M232 8c-4 -13 -43 -8 -39 6c58 230 114 464 174 693c3 13 41 8 36 -6c-60 -232 -113 -461 -171 -693zM196 659c-13 0 -13 21 0 21c62 0 83 -58 82 -110c-6 -158 -226 -207 -228 -20c0 83 51 178 169 174c15 -1 13 -23 0 -21c-66 2 -106 -83 -109 -154
c-8 -154 142 -106 146 23c2 38 -12 87 -60 87zM481 241c-15 0 -15 22 0 22c60 0 83 -57 80 -109c-5 -158 -226 -207 -227 -20c0 83 52 178 170 174c13 -1 12 -23 -1 -21c-65 2 -106 -83 -109 -154c-7 -154 142 -106 146 22c1 39 -12 86 -59 86zM777 241c-15 0 -15 22 0 22
c61 0 83 -57 81 -109c-6 -158 -226 -207 -227 -20c-1 83 51 178 169 174c13 -1 13 -23 -2 -21c-64 2 -104 -83 -108 -154c-7 -154 142 -106 147 22c1 39 -13 86 -60 86z" />
    <glyph glyph-name="guilsinglleft" unicode="&#x2039;" horiz-adv-x="325" 
d="M80 341l166 -177c9 -11 -7 -26 -16 -15l-169 180c-12 14 -16 30 -1 39l196 142c12 8 26 -24 15 -32z" />
    <glyph glyph-name="guilsinglright" unicode="&#x203a;" horiz-adv-x="325" 
d="M245 315l-166 177c-9 11 7 26 16 15l169 -180c12 -14 16 -30 1 -39l-196 -142c-12 -8 -26 24 -15 32z" />
    <glyph glyph-name="fraction" unicode="&#x2044;" horiz-adv-x="314" 
d="M90 8c-3 -13 -41 -8 -39 6c59 230 115 464 176 693c2 13 40 8 36 -6c-60 -232 -114 -461 -173 -693z" />
    <glyph glyph-name="Euro" unicode="&#x20ac;" horiz-adv-x="511" 
d="M117 335h-57c-13 0 -13 30 0 30l68 -1c23 57 56 108 93 140c69 60 217 74 239 -45c3 -15 -18 -18 -21 -4c-19 100 -122 84 -183 28c-33 -31 -60 -73 -80 -119l192 -2c14 0 14 -28 0 -28l-203 1c-13 -37 -21 -76 -24 -113l227 -2c14 0 14 -29 0 -29l-228 1
c1 -23 3 -45 9 -65c40 -153 192 -94 258 0c9 11 25 -1 17 -12c-80 -115 -274 -166 -322 3c-7 23 -10 48 -10 75h-32c-13 0 -13 30 0 30l33 -1c3 38 11 76 24 113z" />
    <glyph glyph-name="trademark" unicode="&#x2122;" horiz-adv-x="793" 
d="M407 795c3 9 16 4 13 -5c-24 -57 -134 -41 -188 -39c54 -70 -64 -374 -91 -455c-9 -7 -40 -3 -29 26c26 73 153 429 67 429c-68 0 -117 -29 -114 -102c0 -10 -13 -10 -14 -2c-8 212 324 72 356 148zM478 752c25 -46 39 -109 44 -161c27 42 97 134 154 163
c17 10 42 16 60 11c9 -2 8 -14 0 -14c-15 0 -29 -12 -38 -23c-45 -53 -138 -377 -111 -427c-12 -15 -38 -16 -42 11c-10 86 71 353 106 408c-49 -40 -96 -99 -127 -154c1 -29 -1 -60 -7 -93c-27 -158 -84 -127 -45 8c8 30 22 60 37 88c-2 55 -14 113 -37 162
c-13 -105 -68 -440 -209 -440c-10 0 -10 15 0 15c88 0 172 374 172 449c0 29 26 28 43 -3zM504 475c3 23 5 44 5 64c-9 -20 -18 -41 -24 -62c-30 -103 -6 -139 19 -2z" />
    <glyph glyph-name="minus" unicode="&#x2212;" horiz-adv-x="468" 
d="M407 284l-346 3c-14 0 -14 29 0 29l346 -3c14 0 14 -29 0 -29z" />
    <glyph glyph-name="a.001" unicode="&#xe000;" 
d="M87 339c-20 -26 -36 -83 -43 -117c-3 -16 -1 -28 15 -8c22 28 57 85 75 115c-8 22 -31 31 -47 10zM-632 353c6 14 26 7 22 -6c-65 -181 0 -276 204 -229c154 35 343 142 437 238c33 34 83 38 116 -7c8 30 70 8 62 -18c-12 -35 -42 -131 -46 -184c-2 -32 19 -18 46 10
c37 39 83 101 112 143c8 12 25 -1 17 -12c-29 -43 -76 -107 -113 -146c-24 -24 -66 -64 -102 -37c-44 33 -16 117 -3 160c-17 -25 -35 -51 -51 -68c-34 -38 -88 -9 -84 40c1 17 5 39 14 62c-104 -86 -265 -172 -399 -202c-222 -51 -300 60 -232 256z" />
    <glyph glyph-name="b.001" unicode="&#xe001;" horiz-adv-x="303" 
d="M-41 163c11 38 23 83 38 130c-103 -83 -261 -166 -394 -196c-220 -51 -299 60 -230 256c6 14 26 7 20 -6c-63 -181 2 -276 206 -229c141 32 311 124 410 213c28 85 64 172 104 223c44 55 174 87 117 -37c-24 -53 -78 -126 -149 -174c-16 -47 -31 -95 -43 -139
c24 44 55 99 91 132c54 51 101 12 99 -23c-1 -30 -13 -64 -25 -92c33 17 79 47 100 79c8 11 26 0 18 -12c-27 -40 -89 -78 -133 -98c-16 -31 -33 -61 -64 -79c-26 -13 -88 -18 -88 23c1 36 56 51 83 56c17 34 38 82 45 119c4 24 -1 35 -24 10c-47 -50 -94 -138 -123 -200
c-3 -5 -74 -13 -58 44zM93 376c56 44 98 105 118 149c35 72 -3 65 -44 8c-31 -46 -55 -105 -74 -157zM86 139c6 7 12 16 19 26c-27 -7 -40 -16 -45 -24c-10 -14 5 -26 26 -2z" />
    <glyph glyph-name="c.001" unicode="&#xe002;" horiz-adv-x="175" 
d="M116 352c11 -4 7 -21 -5 -20s-24 -9 -31 -17c-29 -34 -48 -101 -53 -138c-4 -32 0 -55 40 -14c36 35 79 94 108 137c8 11 26 -1 18 -12c-30 -43 -74 -103 -110 -139c-64 -65 -137 -48 -122 41c4 24 12 58 26 87c-103 -77 -249 -151 -372 -180c-223 -51 -300 60 -231 256
c4 14 25 7 20 -6c-64 -181 2 -276 205 -229c145 33 321 130 419 221c33 32 60 29 88 13z" />
    <glyph glyph-name="d.001" unicode="&#xe003;" horiz-adv-x="318" 
d="M128 311c-10 28 -34 28 -52 2c-16 -25 -31 -68 -37 -96c-6 -27 -2 -42 17 -16c24 29 55 82 72 110zM-620 353c4 14 26 7 21 -6c-63 -181 1 -276 206 -229c144 33 315 126 424 226c35 34 83 25 109 -12c23 74 67 197 124 245c52 45 145 44 97 -60
c-25 -54 -77 -126 -148 -174c-19 -58 -34 -115 -40 -154c-7 -39 -8 -72 37 -26c35 35 79 94 108 137c8 11 26 -1 18 -12c-31 -43 -75 -103 -111 -139c-97 -85 -129 12 -105 107c-17 -24 -36 -52 -53 -72c-46 -54 -98 -29 -92 38c1 18 8 39 16 61
c-103 -79 -253 -157 -380 -186c-221 -51 -300 60 -231 256zM223 378c57 44 98 103 118 148c23 47 14 75 -33 20c-38 -44 -71 -131 -85 -168z" />
    <glyph glyph-name="e.001" unicode="&#xe004;" horiz-adv-x="174" 
d="M31 206c38 21 71 60 74 106c0 18 -15 25 -31 0c-19 -31 -33 -71 -43 -106zM-616 354c5 14 25 7 20 -6c-63 -181 1 -276 206 -229c143 33 317 128 415 218c45 42 103 27 100 -25c-3 -59 -48 -107 -99 -132c-8 -45 4 -53 40 -17c35 35 79 95 108 137c8 12 25 1 17 -11
c-31 -43 -75 -103 -110 -139c-52 -52 -114 -52 -118 16c-1 29 9 76 25 114c-103 -78 -250 -153 -374 -182c-221 -51 -300 60 -230 256z" />
    <glyph glyph-name="f.001" unicode="&#xe005;" horiz-adv-x="232" 
d="M69 314c36 22 68 61 71 105c3 42 -20 13 -32 -8c-12 -23 -26 -59 -39 -97zM-599 437c4 14 24 7 20 -6c-64 -182 2 -277 205 -229c153 35 340 140 434 235c41 42 105 46 101 -18c-4 -59 -49 -109 -101 -133c-19 -59 -35 -119 -52 -179c68 27 124 63 224 193
c7 12 24 1 16 -11c-97 -126 -156 -170 -220 -197c42 -20 81 -52 93 -99c40 -158 -215 -251 -208 -36c4 106 73 327 115 423c-105 -84 -264 -169 -396 -200c-223 -50 -300 61 -231 257zM-1 81c-9 -40 -18 -82 -20 -124c-6 -182 150 -80 122 29c-12 49 -57 78 -102 95z" />
    <glyph glyph-name="g.001" unicode="&#xe006;" horiz-adv-x="276" 
d="M209 334l-28 -106c33 20 65 43 95 72c9 10 22 -5 13 -14c-36 -37 -76 -62 -116 -85c-28 -89 -73 -230 -130 -299c-66 -78 -151 -43 -133 73c18 121 90 161 190 212c10 32 19 62 27 91c-19 -29 -40 -62 -59 -82c-30 -32 -79 -26 -84 21c-3 23 1 51 12 78
c-104 -84 -263 -169 -397 -199c-221 -51 -300 60 -230 256c5 14 25 7 20 -6c-63 -181 1 -276 206 -229c154 35 342 143 436 238c32 35 86 35 116 -7c11 20 70 16 62 -14zM7 -49c36 63 63 139 85 209c-87 -44 -147 -83 -161 -188c-15 -93 30 -101 76 -21zM44 228
c-5 -23 -1 -35 15 -15c23 27 58 85 75 115c-5 15 -21 27 -35 22c-25 -9 -50 -98 -55 -122z" />
    <glyph glyph-name="h.001" unicode="&#xe007;" horiz-adv-x="341" 
d="M128 300c-42 -55 -83 -122 -115 -183c-41 -16 -63 20 -53 54c9 34 21 75 35 121c-104 -83 -261 -165 -393 -195c-220 -51 -298 60 -230 256c6 14 26 7 20 -6c-62 -181 2 -276 206 -229c140 32 310 123 409 211c29 91 68 184 111 233c54 64 164 68 111 -45
c-24 -54 -78 -126 -149 -174c-17 -48 -32 -98 -44 -143c23 38 50 80 78 115c72 85 115 26 105 -12c-6 -42 -26 -109 -28 -144c-1 -30 18 -21 42 3c34 36 79 95 108 138c8 11 25 -1 17 -12c-30 -43 -74 -103 -111 -141c-61 -61 -112 -36 -112 37c0 34 12 78 19 109
c1 10 8 48 -26 7zM92 379c56 44 98 103 118 147c39 83 -16 50 -50 -3c-28 -42 -49 -96 -68 -144z" />
    <glyph glyph-name="i.001" unicode="&#xe008;" horiz-adv-x="185" 
d="M85 353c-16 -52 -34 -101 -45 -155c-6 -37 -16 -88 37 -36c34 36 78 95 108 138c8 11 25 -1 17 -12c-29 -43 -73 -103 -109 -141c-73 -72 -140 -41 -118 62c8 37 19 71 29 107c-101 -91 -275 -186 -420 -219c-221 -51 -298 60 -230 256c5 14 25 7 20 -6
c-63 -181 1 -276 206 -229c155 36 347 144 438 241c17 23 71 8 67 -6zM82 471c20 -5 27 -29 21 -47c-5 -18 -22 -36 -43 -30c-20 5 -26 29 -21 48c5 17 23 36 43 29z" />
    <glyph glyph-name="j.001" unicode="&#xe009;" horiz-adv-x="174" 
d="M-640 354c4 14 26 7 20 -6c-63 -181 2 -276 206 -229c149 35 332 136 427 230c30 19 62 -16 58 -28c-12 -50 -26 -98 -39 -146c52 31 99 67 142 125c9 12 25 0 16 -11c-50 -67 -105 -107 -166 -142c-24 -88 -58 -223 -135 -277c-127 -87 -249 74 -65 191
c42 26 85 49 129 71l48 177c-103 -88 -272 -179 -411 -211c-220 -51 -299 60 -230 256zM-121 -62c31 52 50 109 67 168c-36 -18 -73 -38 -112 -62c-170 -108 -46 -256 45 -106zM77 472c22 -5 27 -29 23 -47c-5 -18 -23 -36 -44 -30c-20 5 -25 29 -21 48c5 17 22 36 42 29z
" />
    <glyph glyph-name="k.001" unicode="&#xe00a;" horiz-adv-x="280" 
d="M-624 353c4 14 24 7 20 -6c-65 -181 1 -276 204 -229c142 32 315 126 413 215c25 73 66 189 119 240c58 56 151 48 101 -56c-24 -54 -77 -126 -148 -174l-18 -51c10 11 19 23 28 33c58 63 104 18 34 -45c-17 -15 -39 -31 -55 -43c23 -4 48 -15 52 -40
c3 -26 -2 -54 -4 -79c-2 -21 -2 -25 23 0c49 49 95 124 135 182c8 12 26 -1 18 -12c-42 -60 -87 -135 -140 -185c-33 -32 -87 -48 -95 12c-4 28 -2 63 -4 73c-1 13 -5 22 -14 25l-28 -100c-18 -20 -69 -14 -57 41c8 42 23 91 39 141c-103 -85 -261 -168 -393 -198
c-222 -51 -300 60 -230 256zM98 379c55 44 96 103 117 147c30 66 2 68 -41 11c-32 -44 -57 -107 -76 -158zM74 264c13 9 28 21 40 32c38 35 35 56 -4 15c-13 -15 -25 -31 -36 -47z" />
    <glyph glyph-name="l.001" unicode="&#xe00b;" horiz-adv-x="187" 
d="M228 518c-24 -53 -78 -126 -148 -174c-19 -59 -34 -118 -41 -157c-6 -41 -4 -68 41 -24c34 35 77 95 107 137c8 12 25 1 17 -11c-31 -43 -75 -103 -111 -139c-71 -71 -135 -38 -115 59c4 22 11 50 19 83c-105 -83 -260 -164 -390 -194c-222 -51 -300 60 -230 256
c4 14 24 7 20 -6c-64 -181 1 -276 205 -229c138 32 305 122 404 209c29 99 76 212 139 258c74 53 120 12 83 -68zM90 377c56 44 99 103 119 149c30 61 7 69 -34 21c-37 -44 -69 -124 -85 -170z" />
    <glyph glyph-name="m.001" unicode="&#xe00c;" horiz-adv-x="459" 
d="M80 353c-19 -57 -31 -119 -43 -178c28 46 64 108 101 149c17 19 29 33 58 33c39 0 33 -52 23 -77c14 20 34 49 56 67c41 28 81 2 65 -48c-12 -41 -24 -83 -30 -125c-7 -45 10 -43 40 -12c35 36 78 95 109 138c8 11 25 -1 17 -12c-31 -43 -75 -103 -111 -141
c-55 -56 -134 -53 -122 32c6 45 22 100 36 142c-30 -30 -61 -79 -84 -115c-16 -24 -68 -4 -60 30c4 10 20 48 27 69c5 15 4 20 -11 2c-44 -57 -87 -128 -124 -190c-17 -24 -67 -4 -63 21c9 59 24 122 37 178c-102 -91 -276 -186 -420 -219c-221 -51 -298 60 -230 256
c5 14 25 7 20 -6c-63 -181 1 -276 206 -229c155 36 348 144 439 241c23 24 67 5 64 -6z" />
    <glyph glyph-name="n.001" unicode="&#xe00d;" horiz-adv-x="344" 
d="M79 353c-16 -56 -28 -118 -42 -177c30 49 62 99 97 144c49 58 105 28 85 -41c-10 -37 -24 -82 -25 -119c-1 -32 17 -22 41 3c35 35 79 95 109 137c8 12 25 0 17 -12c-31 -43 -75 -104 -111 -140c-43 -44 -128 -64 -123 22c3 37 19 89 28 120c8 23 11 36 -12 7
c-41 -54 -86 -122 -116 -181c-23 -21 -70 -6 -61 42c12 53 23 107 37 159c-102 -91 -277 -186 -423 -219c-221 -51 -299 58 -230 256c5 14 25 6 20 -6c-63 -182 1 -277 206 -230c155 36 346 144 439 240c22 25 67 3 64 -5z" />
    <glyph glyph-name="o.001" unicode="&#xe00e;" horiz-adv-x="286" 
d="M100 372c-13 -35 -28 -69 -39 -104c38 -22 86 -26 129 -18c29 65 18 126 -51 156c-55 24 -122 5 -129 -51c10 8 18 16 24 24c14 16 73 7 66 -7zM-636 368c5 12 25 5 20 -8c-63 -181 1 -276 206 -229c135 31 297 118 398 202c-11 75 76 129 159 93c72 -31 95 -97 68 -168
c25 8 50 23 71 42c11 11 25 -5 15 -15c-30 -27 -63 -44 -97 -52c-21 -43 -55 -80 -87 -103c-50 -36 -133 -36 -141 40c-6 39 13 90 26 125c-4 5 -6 10 -9 16c-103 -85 -264 -169 -399 -201c-221 -51 -298 60 -230 258zM54 248c-6 -19 -16 -52 -17 -79c-1 -55 34 -46 68 -22
c26 19 53 47 73 81c-42 -6 -87 0 -124 20z" />
    <glyph glyph-name="p.001" unicode="&#xe00f;" horiz-adv-x="318" 
d="M318 300c8 12 26 0 18 -12c-38 -55 -73 -85 -103 -100c-19 -41 -49 -70 -94 -81c-95 -23 -99 84 -33 100c20 6 41 -4 64 -6c14 32 26 73 29 109s-9 79 -55 55c-61 -32 -98 -139 -115 -197c-31 -97 -59 -199 -87 -299c-2 -12 -73 -20 -60 26c40 149 86 295 127 442
c-100 -94 -279 -191 -427 -226c-222 -51 -299 60 -230 258c4 12 24 5 20 -8c-64 -181 2 -276 205 -229c159 36 356 150 446 248c16 21 68 9 65 -4l-16 -56c20 33 43 53 62 64c75 39 139 7 132 -78c-1 -28 -9 -57 -19 -84c22 15 46 40 71 78zM159 180c-15 3 -32 10 -47 7
c-37 -8 -41 -80 14 -43c13 10 24 22 33 36z" />
    <glyph glyph-name="q.001" unicode="&#xe010;" horiz-adv-x="307" 
d="M198 318c-18 -73 -34 -146 -50 -218c40 25 135 135 159 200c6 12 26 4 21 -8c-27 -71 -120 -174 -161 -207c49 -20 111 -48 119 -107c23 -159 -215 -226 -222 -38c-4 101 31 217 53 316c-14 -25 -30 -53 -45 -72c-36 -48 -90 -32 -88 33c0 24 4 51 13 75
c-104 -80 -256 -158 -383 -187c-220 -51 -298 60 -230 258c6 12 26 5 20 -8c-63 -181 2 -276 206 -229c146 34 323 131 420 222c35 34 78 27 106 -9c8 24 72 20 62 -21zM143 71c-8 -41 -15 -85 -12 -128c5 -185 147 -56 135 33c-8 53 -79 81 -123 95zM43 207
c-2 -22 2 -30 22 2c22 31 47 82 62 110c-10 17 -24 24 -38 16c-25 -13 -44 -102 -46 -128z" />
    <glyph glyph-name="r.001" unicode="&#xe011;" horiz-adv-x="230" 
d="M-643 357c6 13 26 7 21 -7c-37 -105 -45 -222 88 -251c147 -32 432 72 526 195c-10 8 -18 19 -16 34c1 41 68 55 56 1c-2 -7 -3 -13 -6 -20c17 -5 58 -13 70 -20c7 -3 7 -10 4 -15c-11 -40 -19 -56 -27 -98c-5 -26 -22 -91 23 -44c51 54 90 106 134 168c8 12 25 0 17 -12
c-45 -63 -88 -122 -142 -174c-68 -65 -113 5 -96 83c8 34 13 42 23 77c-7 3 -14 5 -22 9c-99 -131 -393 -239 -550 -204c-144 31 -144 159 -103 278zM6 316l6 17c4 23 -15 1 -15 -7c-1 -4 3 -6 9 -10z" />
    <glyph glyph-name="s.001" unicode="&#xe012;" horiz-adv-x="205" 
d="M205 300c9 11 25 -5 14 -15c-54 -55 -113 -104 -179 -146c-9 -63 -35 -154 -77 -200c-89 -98 -208 -23 -122 87c35 42 81 66 127 93c12 54 17 162 41 236c-103 -89 -271 -178 -410 -210c-221 -53 -299 59 -231 257c6 13 26 5 21 -7c-63 -182 1 -277 206 -230
c156 36 349 147 440 243c25 27 68 16 61 -21c-34 -43 -45 -174 -52 -220c58 39 111 83 161 133zM-39 91c-37 -23 -75 -44 -103 -79c-44 -56 -28 -131 43 -52c29 32 49 88 60 131z" />
    <glyph glyph-name="t.001" unicode="&#xe013;" horiz-adv-x="188" 
d="M137 514c-2 -4 -3 -10 -4 -14c32 0 56 -2 59 -20c2 -13 -18 -17 -21 -5c-1 5 -20 7 -44 4c-32 -98 -81 -225 -91 -305c-2 -31 2 -54 43 -12c35 36 78 95 109 138c8 10 24 0 16 -12c-31 -43 -75 -104 -111 -140c-58 -59 -113 -45 -120 16c-6 61 41 185 70 267
c-102 -91 -276 -186 -420 -218c-221 -51 -300 58 -230 256c5 14 25 6 20 -6c-63 -182 1 -277 206 -230c155 36 346 144 437 240c-30 -2 -117 -10 -101 45c4 12 24 8 20 -6c-10 -28 77 -18 89 -17c16 51 77 31 73 19z" />
    <glyph glyph-name="u.001" unicode="&#xe014;" horiz-adv-x="348" 
d="M242 336c-14 -48 -31 -95 -40 -145c-7 -40 -9 -76 38 -28c34 35 79 95 108 137c8 12 25 0 17 -12c-29 -43 -73 -104 -109 -140c-66 -65 -138 -48 -119 55c4 19 8 36 13 54c-28 -47 -55 -86 -76 -110c-48 -52 -118 -36 -102 50c8 40 19 78 31 116
c-102 -92 -277 -187 -423 -221c-221 -51 -298 59 -230 257c5 13 25 7 20 -7c-63 -182 1 -277 206 -230c158 36 353 149 443 246c16 20 69 11 65 -5c-16 -52 -34 -104 -45 -159c-7 -38 -11 -64 19 -32c33 36 83 115 124 199c12 27 70 5 60 -25z" />
    <glyph glyph-name="v.001" unicode="&#xe015;" horiz-adv-x="282" 
d="M78 340c-16 -51 -35 -117 -37 -170c-2 -36 6 -56 44 -30c27 20 52 53 69 81c-10 16 -26 44 -33 83c-21 139 115 153 96 17c-5 -33 -18 -68 -36 -98c34 -24 86 54 101 77c8 12 25 0 18 -12c-23 -35 -80 -117 -130 -82c-20 -32 -49 -68 -80 -87c-59 -36 -124 -1 -115 75
c5 36 13 75 24 111c-100 -92 -279 -190 -425 -225c-222 -51 -300 60 -232 258c6 12 26 6 20 -8c-63 -180 2 -275 206 -228c160 36 356 149 446 247c12 13 68 7 64 -9zM166 242c15 25 26 54 30 82c15 105 -71 87 -54 -16c4 -30 18 -51 24 -66z" />
    <glyph glyph-name="w.001" unicode="&#xe016;" horiz-adv-x="415" 
d="M79 340c-4 -14 -42 -121 -50 -172c-4 -28 0 -37 26 -1c42 58 80 126 115 182c2 5 71 15 56 -36c-15 -48 -34 -108 -36 -151c-6 -56 49 -4 67 16c12 15 22 28 32 43c-26 33 -42 85 -36 128c8 82 79 92 96 17c8 -33 3 -83 -33 -143c33 -22 85 55 99 77c8 12 25 0 18 -11
c-22 -35 -80 -117 -130 -84c-8 -14 -18 -27 -30 -41c-52 -61 -139 -96 -147 -4c-3 33 9 77 17 105c-22 -38 -49 -82 -71 -111c-44 -61 -98 -47 -98 20c0 40 14 91 26 131c-102 -92 -280 -190 -427 -225c-221 -51 -298 60 -230 258c5 12 25 6 20 -8c-63 -180 1 -275 206 -228
c159 36 356 149 445 247c11 13 69 7 65 -9zM301 239c29 53 33 94 28 122c-13 56 -51 36 -56 -15c-3 -40 9 -72 28 -107z" />
    <glyph glyph-name="x.001" unicode="&#xe017;" horiz-adv-x="186" 
d="M-36 115c-8 -11 -25 3 -16 13c8 11 19 23 30 38c-4 48 10 105 24 150c-101 -93 -278 -189 -424 -223c-222 -52 -300 59 -230 257c4 14 24 6 20 -8c-65 -180 1 -275 204 -228c160 37 358 149 446 247c12 13 69 7 64 -8l-20 -70c15 22 31 45 47 66c8 12 25 -1 17 -12
c-27 -36 -53 -75 -79 -112c-8 -34 -22 -117 31 -62c35 35 79 95 108 137c8 12 26 0 18 -12c-31 -43 -75 -104 -111 -140c-34 -34 -76 -60 -107 -5c-7 -11 -15 -20 -22 -28z" />
    <glyph glyph-name="y.001" unicode="&#xe018;" horiz-adv-x="317" 
d="M78 340c-5 -15 -44 -125 -51 -174c-2 -26 3 -34 29 1c22 31 50 79 73 119c18 28 32 52 40 63c11 8 69 7 59 -28c-15 -52 -29 -104 -43 -158c41 28 83 70 132 137c8 12 25 0 17 -12c-58 -82 -110 -126 -158 -156c-19 -72 -39 -142 -78 -206c-117 -191 -349 -12 -119 134
c40 25 83 40 126 59c13 52 28 103 42 154c-23 -39 -51 -87 -75 -119c-35 -48 -99 -62 -102 4c-1 43 15 103 27 144c-101 -92 -277 -188 -423 -223c-222 -51 -300 60 -230 258c4 12 24 5 20 -8c-64 -181 1 -276 205 -229c159 36 357 150 445 248c15 17 68 5 64 -8zM97 93
c-36 -16 -72 -29 -106 -50c-174 -110 -45 -253 43 -105c30 47 48 102 63 155z" />
    <glyph glyph-name="z.001" unicode="&#xe019;" horiz-adv-x="264" 
d="M-62 60l122 76c-2 34 -30 50 -59 59c-14 3 -10 22 4 20c48 -4 89 60 108 98c-23 -15 -52 -28 -72 -34c-19 -5 -31 -4 -38 2c-97 -95 -285 -200 -437 -236c-221 -51 -300 61 -230 257c5 14 25 7 20 -6c-63 -181 1 -276 206 -229c151 35 338 140 432 235c9 8 15 18 23 26
c9 10 25 -3 17 -14c-6 -8 -21 -20 2 -14c25 8 65 28 87 45c30 16 70 -4 58 -33c-17 -41 -50 -94 -95 -111c12 -7 23 -17 30 -29c61 43 120 87 148 128c8 12 26 0 18 -12c-31 -43 -93 -91 -157 -136c15 -61 -45 -199 -81 -244c-123 -157 -324 14 -106 152zM58 111
c-36 -24 -73 -46 -109 -68c-170 -109 -47 -256 44 -105c28 46 59 118 65 173z" />
    <glyph glyph-name="a.002" unicode="&#xe01a;" 
d="M86 340c-20 -26 -36 -84 -41 -118c-3 -16 -3 -27 13 -8c24 28 58 86 76 115c-9 23 -32 31 -48 11zM854 130c-5 -14 -25 -6 -20 8c42 120 46 241 -114 237c-160 -6 -366 -162 -513 -252c-43 -25 -97 -36 -106 21c-7 39 11 91 19 122c-17 -25 -35 -52 -51 -69
c-35 -38 -89 -8 -85 40c3 44 30 118 70 138c32 16 72 2 92 -24c10 28 71 8 62 -21c-11 -32 -39 -119 -44 -173c-4 -31 5 -31 32 -15c152 92 357 249 523 254c177 5 182 -130 135 -266z" />
    <glyph glyph-name="b.002" unicode="&#xe01b;" horiz-adv-x="303" 
d="M-41 164c30 112 83 302 153 390c44 55 175 87 118 -37c-26 -54 -79 -126 -150 -174c-16 -47 -31 -95 -43 -139c24 42 55 99 91 132c53 51 100 12 99 -24c-1 -25 -9 -59 -23 -91c126 55 273 170 406 174c176 5 182 -130 135 -266c-6 -14 -26 -6 -20 8
c41 120 45 241 -114 237c-131 -4 -292 -130 -420 -182c-18 -35 -42 -66 -68 -81c-26 -13 -89 -18 -89 22c2 36 56 51 83 56c19 33 39 83 46 120c4 24 -2 34 -24 10c-46 -51 -94 -139 -123 -201c-3 -4 -73 -13 -57 46zM92 376c56 44 97 103 119 149c33 72 -4 65 -46 6
c-30 -44 -54 -104 -73 -155zM85 139c7 6 12 15 19 26c-26 -8 -40 -16 -46 -24c-8 -14 6 -27 27 -2z" />
    <glyph glyph-name="c.002" unicode="&#xe01c;" horiz-adv-x="175" 
d="M115 352c11 -5 7 -21 -5 -20c-14 1 -24 -9 -32 -19c-28 -32 -47 -99 -53 -136c-6 -48 8 -39 31 -26c143 90 344 239 505 244c176 5 182 -130 135 -266c-6 -14 -26 -6 -20 8c43 120 45 241 -114 237c-155 -6 -359 -156 -499 -243c-63 -38 -117 -25 -103 58
c8 51 32 131 83 161c23 14 47 14 72 2z" />
    <glyph glyph-name="d.002" unicode="&#xe01d;" horiz-adv-x="318" 
d="M128 312c-10 28 -35 28 -52 1c-16 -24 -32 -67 -37 -96c-6 -27 -3 -40 17 -15c23 28 55 82 72 110zM839 130c-6 -14 -26 -6 -20 8c41 120 45 241 -114 237c-154 -6 -355 -153 -488 -236c-98 -61 -121 26 -98 118c-16 -26 -35 -54 -52 -72c-46 -54 -99 -30 -93 37
c4 43 32 115 74 135c31 16 72 3 92 -24c23 72 66 197 122 244c54 45 147 45 98 -61c-24 -52 -78 -125 -149 -174c-19 -57 -32 -113 -39 -152c-12 -66 2 -52 35 -32c138 85 337 233 497 238c176 5 182 -130 135 -266zM223 379c56 44 98 103 118 147c21 48 13 75 -33 21
c-39 -45 -71 -132 -85 -168z" />
    <glyph glyph-name="e.002" unicode="&#xe01e;" horiz-adv-x="174" 
d="M31 205c37 21 71 61 73 105c0 19 -14 27 -30 0c-19 -30 -34 -71 -43 -105zM693 130c-4 -14 -24 -6 -20 8c43 120 47 241 -114 237c-127 -4 -283 -106 -419 -193c-26 -17 -53 -34 -77 -48c-43 -27 -96 -40 -100 31c-3 48 26 135 58 168c35 38 106 32 103 -21
c-2 -59 -48 -109 -99 -133c-10 -44 3 -43 29 -27c24 15 49 31 74 49c138 88 297 190 431 195c177 5 182 -130 134 -266z" />
    <glyph glyph-name="f.002" unicode="&#xe01f;" horiz-adv-x="232" 
d="M69 313c38 21 70 60 72 104c2 38 -14 22 -29 -1c-13 -23 -28 -61 -43 -103zM701 130c-6 -14 -26 -6 -20 8c42 120 45 241 -114 237c-88 -3 -202 -79 -312 -153c-80 -55 -158 -107 -226 -131c43 -19 82 -51 94 -99c38 -153 -217 -256 -209 -36c3 72 86 440 167 499
c38 27 83 13 80 -38c-4 -58 -49 -107 -100 -131c-20 -59 -36 -119 -53 -179c68 20 151 75 236 132c111 75 228 153 323 157c175 5 180 -130 134 -266zM1 80c-11 -39 -19 -81 -20 -123c-7 -186 147 -75 122 28c-13 50 -58 79 -102 95z" />
    <glyph glyph-name="g.002" unicode="&#xe020;" horiz-adv-x="276" 
d="M207 333c-5 -22 -12 -48 -20 -74c118 72 252 135 356 137c177 7 182 -128 135 -265c-5 -13 -25 -6 -20 7c42 122 46 242 -113 237c-106 -3 -247 -72 -366 -146c-33 -119 -80 -258 -137 -326c-66 -78 -152 -45 -133 72c17 120 106 170 197 231c6 24 13 49 20 73
c-19 -30 -40 -62 -59 -83c-31 -32 -79 -26 -84 22c-6 50 24 133 71 156c30 16 72 2 92 -24c11 18 70 16 61 -17zM-71 -26c-15 -95 31 -102 76 -22c38 63 67 143 91 222c-77 -53 -152 -97 -167 -200zM43 229c-4 -24 -1 -36 15 -16c22 28 57 84 76 115c-7 15 -22 27 -36 22
c-26 -10 -50 -97 -55 -121z" />
    <glyph glyph-name="h.002" unicode="&#xe021;" horiz-adv-x="341" 
d="M865 129c-5 -14 -25 -6 -20 8c43 120 46 241 -114 237c-127 -4 -283 -106 -420 -193c-27 -17 -53 -35 -79 -51c-48 -29 -95 -27 -95 52c0 36 12 79 18 110c2 11 8 48 -24 7c-43 -54 -85 -121 -115 -182c-43 -16 -63 18 -55 53c30 110 87 311 158 392
c56 63 164 69 112 -47c-24 -52 -78 -125 -150 -174c-16 -48 -31 -97 -44 -141c24 38 49 80 79 115c71 85 115 26 104 -12c-6 -42 -25 -109 -28 -143c-1 -33 16 -19 31 -10c25 16 51 32 76 50c139 88 299 190 431 195c177 5 183 -130 135 -266zM104 404l-10 -26
c55 44 97 103 117 147c39 84 -15 49 -48 -2c-20 -30 -40 -72 -59 -119z" />
    <glyph glyph-name="i.002" unicode="&#xe022;" horiz-adv-x="185" 
d="M83 354c-16 -54 -40 -121 -48 -177c-4 -32 -4 -48 33 -24c145 89 344 237 505 242c176 5 182 -130 134 -266c-4 -14 -24 -6 -20 8c42 120 46 241 -114 237c-154 -6 -356 -154 -497 -243c-57 -37 -107 -21 -103 49c4 53 23 121 42 174c8 22 73 17 68 0zM80 471
c22 -5 27 -29 22 -48c-4 -19 -22 -36 -43 -31c-20 6 -27 30 -21 49c5 18 22 36 42 30z" />
    <glyph glyph-name="j.002" unicode="&#xe023;" horiz-adv-x="174" 
d="M75 334l-20 -74c118 72 252 135 356 137c177 7 182 -128 134 -265c-4 -13 -24 -6 -20 7c43 122 47 242 -114 237c-106 -3 -245 -72 -364 -146c-35 -119 -82 -258 -138 -326c-65 -78 -151 -45 -134 72c19 120 106 170 197 231c14 45 24 103 42 144c10 18 69 16 61 -17z
M-204 -25c-14 -95 30 -102 77 -22c36 63 66 143 90 222c-76 -53 -151 -97 -167 -200zM77 472c20 -5 26 -29 21 -48c-4 -19 -23 -36 -43 -31c-20 6 -27 30 -21 49c5 18 22 36 43 30z" />
    <glyph glyph-name="k.002" unicode="&#xe024;" horiz-adv-x="280" 
d="M73 264c13 10 28 21 40 32c39 34 35 56 -2 14c-14 -14 -26 -30 -38 -46zM828 130c-4 -14 -24 -6 -20 8c42 120 46 241 -114 237c-161 -6 -389 -188 -543 -280c-34 -21 -79 -39 -89 20c-4 28 -2 63 -4 72c0 14 -4 24 -14 26c-11 -36 -20 -71 -27 -99
c-19 -22 -70 -15 -58 40c14 63 39 139 65 211c30 89 68 170 108 208c57 56 150 49 102 -57c-26 -52 -78 -125 -150 -174c-6 -16 -11 -33 -16 -50c8 12 17 24 26 33c58 63 103 19 34 -44c-17 -16 -38 -31 -55 -43c23 -4 48 -16 52 -41c3 -23 -1 -47 -4 -70
c-2 -28 -2 -27 22 -12c156 95 384 276 551 281c177 5 182 -130 134 -266zM97 379c55 44 96 103 117 147c30 65 2 69 -41 11c-32 -45 -57 -106 -76 -158z" />
    <glyph glyph-name="l.002" unicode="&#xe025;" horiz-adv-x="187" 
d="M707 130c-4 -14 -25 -6 -21 8c43 120 47 241 -112 237c-158 -6 -363 -158 -500 -244c-65 -39 -115 -17 -97 78c19 96 75 310 168 377c73 54 120 12 84 -68c-26 -54 -78 -126 -150 -174c-19 -60 -33 -118 -40 -158c-7 -44 -5 -55 25 -35c141 87 345 240 509 245
c176 5 182 -130 134 -266zM90 376c57 44 99 104 120 148c28 63 5 71 -36 22c-36 -43 -67 -123 -84 -170z" />
    <glyph glyph-name="m.002" unicode="&#xe026;" horiz-adv-x="459" 
d="M81 355c-17 -59 -31 -120 -41 -180c28 47 64 109 99 149c17 20 29 35 59 33c38 0 32 -51 22 -76c14 19 34 49 57 66c40 29 80 4 64 -49c-12 -38 -24 -83 -30 -123c-5 -41 2 -41 27 -25c145 89 348 241 510 246c176 5 183 -130 135 -266c-5 -14 -25 -6 -20 8
c43 120 45 241 -114 237c-156 -6 -360 -157 -502 -244c-50 -32 -113 -33 -103 48c7 46 22 101 37 143c-31 -30 -61 -80 -85 -116c-16 -23 -68 -3 -59 31c3 9 20 48 26 68c5 15 4 20 -10 3c-45 -58 -88 -127 -124 -192c-17 -22 -68 -4 -64 23c12 70 29 145 47 210
c9 35 73 20 69 6z" />
    <glyph glyph-name="n.002" unicode="&#xe027;" horiz-adv-x="344" 
d="M79 353c-16 -58 -28 -118 -41 -177c29 47 61 99 96 142c48 59 106 28 86 -40c-11 -38 -24 -83 -26 -119c-1 -22 7 -22 31 -9c141 87 344 239 506 244c175 5 181 -130 134 -266c-6 -14 -26 -6 -20 8c42 120 45 241 -114 237c-157 -6 -360 -157 -497 -241
c-44 -28 -112 -44 -107 36c3 37 19 90 29 120c8 23 10 36 -13 7c-41 -54 -85 -122 -116 -181c-23 -20 -69 -6 -60 42c13 65 28 132 44 194c7 27 72 16 68 3z" />
    <glyph glyph-name="o.002" unicode="&#xe028;" horiz-adv-x="286" 
d="M99 371c-7 -18 -24 -61 -37 -104c37 -23 78 -28 124 -24c29 61 29 128 -48 163c-64 27 -145 -4 -126 -83c5 17 13 35 20 52c9 20 74 10 67 -4zM55 245c-10 -32 -18 -61 -18 -77c-2 -55 33 -46 67 -22c26 18 50 45 69 74c-42 -1 -82 5 -118 25zM783 128
c-4 -14 -24 -6 -20 8c42 120 45 241 -114 237c-127 -4 -298 -132 -450 -150c-21 -38 -50 -71 -83 -94c-50 -36 -133 -36 -141 40c-6 40 13 90 26 125c-53 92 49 174 145 131c85 -38 92 -111 64 -180c145 25 312 145 439 149c177 5 182 -130 134 -266z" />
    <glyph glyph-name="p.002" unicode="&#xe029;" horiz-adv-x="318" 
d="M137 107c-94 -23 -99 86 -33 102c21 4 41 -4 64 -8c14 32 28 73 31 110c2 37 -10 78 -57 54c-17 -9 -37 -28 -56 -60c-11 -17 -23 -40 -33 -67c-8 -20 -18 -44 -26 -69c-30 -98 -59 -200 -85 -299c-3 -13 -74 -21 -62 27c44 159 94 317 138 476c8 33 72 19 68 4l-16 -56
c22 32 43 52 63 63c74 39 138 7 132 -76c-2 -36 -10 -74 -25 -107c158 24 345 191 478 195c176 5 182 -130 134 -266c-5 -12 -25 -5 -21 8c43 120 47 242 -113 237c-130 -4 -323 -181 -490 -198c-20 -34 -50 -59 -91 -70zM157 181c-15 4 -31 10 -45 6c-38 -8 -43 -80 12 -42
c13 9 25 21 33 36z" />
    <glyph glyph-name="q.002" unicode="&#xe02a;" horiz-adv-x="307" 
d="M816 132c-4 -12 -24 -5 -20 8c42 120 45 242 -114 237c-162 -6 -380 -188 -521 -291c51 -18 115 -48 123 -108c25 -159 -215 -226 -222 -36c-2 99 31 215 54 314c-14 -25 -30 -52 -44 -71c-38 -48 -90 -33 -90 33c1 48 17 103 48 132c30 28 79 20 106 -9
c8 24 71 20 61 -23c-17 -72 -34 -143 -49 -216c144 106 364 291 534 296c175 5 182 -130 134 -266zM141 73c-8 -41 -13 -87 -12 -128c7 -186 149 -57 135 32c-8 53 -77 80 -123 96zM42 208c-2 -23 3 -31 23 1c20 33 47 82 60 110c-8 19 -23 24 -36 18
c-27 -14 -44 -103 -47 -129z" />
    <glyph glyph-name="r.002" unicode="&#xe02b;" horiz-adv-x="230" 
d="M7 317c3 6 4 12 5 16c4 23 -13 3 -14 -5c-2 -5 2 -8 9 -11zM752 118c-4 -14 -24 -7 -20 7c43 121 47 242 -113 236c-161 -5 -371 -164 -513 -251c-75 -44 -115 -2 -96 87c8 35 13 44 24 77c-24 10 -59 23 -58 54c2 41 69 55 58 1c-2 -6 -4 -13 -7 -20
c16 -5 59 -13 70 -20c6 -3 6 -8 5 -13c-12 -39 -25 -78 -32 -118c-5 -32 -8 -50 24 -29c147 88 357 248 525 254c176 5 182 -130 133 -265z" />
    <glyph glyph-name="s.002" unicode="&#xe02c;" horiz-adv-x="205" 
d="M664 130c-5 -12 -26 -5 -21 8c43 120 46 242 -113 237c-150 -6 -341 -143 -486 -234c-11 -62 -37 -156 -79 -201c-88 -96 -207 -22 -122 87c35 44 82 67 127 94c15 68 22 222 63 283c26 38 73 20 66 -16c-34 -40 -46 -162 -52 -221c147 94 330 224 483 229
c175 5 182 -130 134 -266zM-36 92c-38 -22 -75 -44 -103 -79c-44 -56 -28 -131 43 -52c29 32 49 89 60 131z" />
    <glyph glyph-name="t.002" unicode="&#xe02d;" horiz-adv-x="188" 
d="M709 130c-4 -12 -25 -5 -20 8c43 120 46 242 -113 237c-156 -6 -359 -155 -494 -240c-43 -27 -101 -33 -107 30c-8 72 45 236 69 309c-29 -2 -119 -11 -103 44c6 13 24 8 20 -5c-8 -29 78 -19 90 -18c16 51 80 32 76 19c0 -4 -2 -9 -4 -13c32 1 56 -3 59 -21
c3 -12 -17 -17 -20 -4c-1 6 -19 6 -44 4c-32 -99 -71 -224 -80 -306c-4 -43 10 -35 33 -20c139 87 343 237 505 242c175 5 181 -130 133 -266z" />
    <glyph glyph-name="u.002" unicode="&#xe02e;" horiz-adv-x="348" 
d="M241 337c-15 -48 -31 -95 -40 -146c-5 -33 -13 -64 25 -40c142 87 347 240 509 245c177 5 183 -130 135 -266c-5 -12 -25 -5 -20 8c43 120 45 242 -114 237c-156 -6 -361 -158 -498 -242c-73 -46 -119 -18 -101 70c2 19 6 37 12 54c-28 -47 -55 -86 -76 -110
c-49 -52 -117 -36 -101 51c10 54 26 102 42 154c9 29 73 17 69 3c-16 -54 -34 -106 -44 -161c-7 -37 -11 -63 18 -32c33 37 82 115 124 199c12 27 70 6 60 -24z" />
    <glyph glyph-name="v.002" unicode="&#xe02f;" horiz-adv-x="282" 
d="M78 339c-16 -51 -35 -116 -37 -170c-2 -36 7 -55 45 -28c26 19 52 51 69 79c-12 17 -28 44 -33 84c-23 138 115 153 95 16c-4 -33 -18 -67 -35 -96c59 -50 195 17 325 81c91 45 179 87 240 90c176 5 182 -130 135 -266c-6 -12 -26 -5 -20 8c41 120 45 242 -114 237
c-56 -2 -142 -44 -232 -89c-133 -65 -275 -135 -345 -80h-1c-19 -31 -50 -68 -80 -87c-59 -36 -123 -1 -114 76c5 50 20 103 36 152c5 17 71 9 66 -7zM167 241c14 26 26 54 30 83c14 106 -71 86 -55 -17c5 -30 17 -51 25 -66z" />
    <glyph glyph-name="w.002" unicode="&#xe030;" horiz-adv-x="415" 
d="M78 339c-4 -12 -41 -120 -49 -170c-4 -28 1 -39 27 -3c41 58 79 126 113 184c4 4 73 13 56 -36c-14 -50 -33 -110 -36 -153c-4 -55 51 -4 67 16c14 15 24 29 32 43c-25 35 -40 85 -36 128c10 82 79 93 98 18c5 -26 4 -59 -13 -101c-6 -13 -12 -28 -22 -42
c60 -47 195 18 324 82c91 45 179 87 239 90c177 5 182 -130 134 -266c-4 -12 -24 -5 -20 8c43 120 47 242 -114 237c-56 -2 -141 -44 -230 -89c-134 -65 -274 -133 -344 -81c-10 -14 -20 -28 -30 -40c-54 -62 -141 -97 -149 -4c-3 33 12 79 20 109c-23 -38 -49 -84 -72 -116
c-44 -60 -99 -47 -99 21c0 55 27 133 37 172c6 17 73 10 67 -7zM300 240c30 51 35 92 29 120c-14 57 -50 38 -55 -14c-4 -39 8 -73 26 -106z" />
    <glyph glyph-name="x.002" unicode="&#xe031;" horiz-adv-x="186" 
d="M-34 114c-9 -9 -25 4 -16 15c8 9 17 23 28 37c-5 66 24 149 39 193c5 15 72 11 67 -5l-22 -71c16 21 31 44 49 67c8 10 25 -3 16 -14c-27 -36 -53 -75 -79 -111c-7 -36 -26 -101 29 -68c143 90 340 233 497 238c176 5 182 -130 135 -266c-6 -12 -26 -5 -20 8
c42 120 45 242 -114 237c-151 -6 -348 -147 -487 -236c-36 -23 -79 -33 -101 4c-8 -10 -16 -20 -21 -28z" />
    <glyph glyph-name="y.002" unicode="&#xe032;" horiz-adv-x="317" 
d="M79 339c-4 -15 -43 -124 -50 -173c-4 -26 1 -34 27 0c23 32 51 81 75 119c16 30 31 54 39 65c10 6 68 5 58 -30l-30 -112c172 99 368 184 455 187c176 5 182 -130 133 -266c-4 -12 -24 -5 -20 8c43 120 47 242 -113 237c-114 -4 -363 -137 -462 -196
c-23 -84 -47 -176 -92 -251c-99 -163 -323 -59 -160 99c42 41 106 87 177 134c11 37 23 79 32 113c-24 -40 -52 -88 -75 -120c-36 -48 -100 -62 -103 5c-2 62 34 160 40 182c8 28 73 14 69 -1zM34 -62c37 60 55 124 74 191c-63 -40 -116 -80 -152 -115
c-121 -115 2 -205 78 -76z" />
    <glyph glyph-name="z.002" unicode="&#xe033;" horiz-adv-x="264" 
d="M-62 61c40 25 81 49 123 75c-3 34 -31 49 -60 58c-12 4 -8 23 4 21c49 -5 91 60 108 97c-23 -13 -52 -27 -72 -33c-47 -12 -55 16 -23 48c8 11 24 -3 16 -13c-11 -13 -19 -21 1 -14c27 7 66 28 87 46c31 14 73 -6 59 -35c-17 -40 -51 -92 -93 -111c13 -8 22 -16 29 -27
c136 88 322 217 472 222c176 5 182 -130 134 -266c-4 -12 -24 -5 -20 8c43 120 46 242 -114 237c-144 -4 -330 -135 -464 -221c15 -63 -44 -198 -82 -246c-121 -155 -323 14 -105 154zM59 110l-109 -68c-172 -108 -48 -254 43 -104c28 45 58 117 66 172z" />
    <glyph glyph-name="b.003" unicode="&#xe068;" horiz-adv-x="302" 
d="M-40 164c29 113 84 303 152 391c45 55 176 87 118 -37c-9 -19 -20 -39 -35 -61c135 67 287 -5 434 -5c53 0 164 26 150 99c-3 13 17 18 20 4c18 -90 -101 -123 -170 -123c-162 0 -343 92 -483 -35c-10 -9 -24 6 -15 15c31 32 62 72 80 114c34 72 -4 65 -45 6
c-55 -77 -102 -232 -129 -327c25 42 57 99 93 132c53 51 100 12 97 -23c-1 -32 -13 -64 -25 -93c35 18 79 48 100 79c8 12 26 0 18 -11c-27 -42 -87 -79 -133 -98c-14 -31 -33 -61 -64 -79c-25 -13 -88 -18 -87 23c0 35 56 51 83 55c17 35 38 83 44 120c4 24 -1 35 -24 10
c-45 -51 -92 -140 -123 -201c-3 -4 -72 -13 -56 45zM86 140c6 7 12 15 18 26c-25 -7 -38 -16 -45 -24c-8 -14 5 -27 27 -2z" />
    <glyph glyph-name="d.003" unicode="&#xe069;" horiz-adv-x="317" 
d="M127 311c-10 28 -35 28 -52 2c-16 -25 -32 -68 -37 -97c-6 -26 -3 -41 17 -15c23 29 55 82 72 110zM907 550c-2 13 18 18 20 4c14 -67 -57 -107 -113 -119c-176 -35 -379 107 -540 -39c-9 -9 -24 7 -13 16c28 26 63 78 79 113c23 48 13 75 -33 21
c-62 -72 -118 -261 -136 -357c-6 -40 -9 -72 38 -27c35 36 77 95 108 138c8 11 26 -1 18 -13c-31 -43 -75 -104 -111 -140c-97 -84 -129 12 -106 109c-16 -26 -35 -54 -52 -73c-46 -53 -99 -29 -93 38c4 43 34 115 74 135c31 16 72 3 92 -24c23 72 67 197 122 245
c54 45 147 44 98 -60c-8 -19 -19 -39 -34 -61c155 79 328 -30 485 0c42 10 108 39 97 94z" />
    <glyph glyph-name="f.003" unicode="&#xe06a;" horiz-adv-x="232" 
d="M69 313c38 21 70 61 72 104c2 32 -12 27 -26 4c-15 -24 -31 -64 -46 -108zM-536 314c3 -13 -18 -17 -21 -4c-13 69 59 109 115 119c169 34 363 -96 519 24c39 27 88 19 84 -36c-4 -57 -49 -107 -101 -131c-19 -59 -35 -119 -52 -179c72 25 124 47 224 193
c8 12 24 1 16 -11c-97 -143 -151 -171 -220 -197c42 -20 83 -52 95 -100c37 -153 -217 -256 -209 -36c3 67 64 334 127 449c-155 -73 -325 34 -479 3c-43 -8 -108 -39 -98 -94zM1 81c-11 -40 -19 -82 -22 -124c-6 -185 149 -74 124 29c-14 49 -58 78 -102 95z" />
    <glyph glyph-name="g.003" unicode="&#xe06b;" horiz-adv-x="270" 
d="M209 335c-33 -127 -91 -343 -166 -432c-65 -78 -151 -45 -133 73c5 30 12 55 24 76c-158 -85 -335 28 -493 -4c-44 -8 -108 -38 -97 -93c2 -14 -19 -18 -22 -4c-13 67 59 107 115 119c175 35 379 -107 538 39c11 9 26 -6 15 -16c-35 -37 -52 -69 -60 -120
c-14 -95 31 -102 77 -21c59 103 91 219 121 326c-19 -29 -42 -61 -61 -81c-29 -32 -79 -26 -84 21c-5 50 26 134 71 155c31 17 72 3 92 -24c12 19 71 16 63 -14zM45 229c-5 -24 -3 -36 14 -15c23 27 58 85 75 114c-5 15 -21 27 -36 21c-24 -9 -48 -96 -53 -120z" />
    <glyph glyph-name="h.003" unicode="&#xe06c;" horiz-adv-x="341" 
d="M129 300c-43 -55 -84 -122 -115 -183c-43 -16 -63 20 -53 53c29 110 85 311 156 392c56 64 165 68 113 -45c-8 -19 -20 -39 -35 -61c156 79 329 -30 484 0c44 10 109 39 98 94c-3 13 19 18 21 4c14 -67 -59 -107 -115 -119c-175 -35 -377 107 -538 -39
c-10 -9 -25 7 -14 16c36 38 64 79 79 113c38 84 -15 51 -49 -2c-56 -85 -97 -226 -125 -323c24 38 49 80 79 115c70 85 115 26 104 -12c-7 -42 -26 -109 -28 -144c-2 -32 17 -21 43 3c34 36 77 95 107 138c8 11 25 -1 17 -13c-29 -43 -74 -104 -110 -140
c-61 -63 -112 -36 -112 36c0 35 12 79 17 110c3 10 8 47 -24 7z" />
    <glyph glyph-name="j.003" unicode="&#xe06d;" horiz-adv-x="136" 
d="M-122 -63c51 83 106 313 132 408c14 23 71 12 61 -25c-34 -127 -82 -382 -182 -450c-111 -76 -230 39 -107 158c-140 -31 -287 48 -423 21c-43 -8 -109 -38 -98 -93c3 -14 -17 -18 -20 -4c-15 67 58 107 114 119c159 31 341 -82 494 5c10 7 21 -12 13 -17
c-216 -130 -71 -268 16 -122zM77 472c20 -5 27 -29 22 -48c-4 -17 -23 -36 -43 -31c-20 7 -27 31 -21 48c5 19 22 37 42 31z" />
    <glyph glyph-name="k.003" unicode="&#xe06e;" horiz-adv-x="277" 
d="M70 264c13 9 28 20 40 32c39 33 36 56 -3 15c-13 -15 -25 -31 -37 -47zM778 550c-3 13 18 18 21 4c14 -67 -59 -107 -115 -119c-175 -35 -377 107 -538 -39c-11 -9 -25 7 -15 16c29 26 63 78 81 113c29 65 2 69 -42 10c-37 -50 -84 -174 -105 -243c8 11 17 23 26 32
c59 63 103 19 34 -44c-18 -16 -38 -31 -55 -43c24 -4 48 -15 52 -41c4 -25 -1 -53 -4 -78c-1 -21 -1 -25 24 0c48 49 94 123 135 182c8 11 26 -1 16 -12c-41 -60 -87 -135 -137 -185c-34 -32 -87 -49 -97 11c-4 28 -2 64 -4 72c0 14 -4 24 -15 26c-10 -37 -20 -71 -26 -99
c-19 -22 -70 -15 -58 40c14 63 39 139 64 212c33 87 69 169 109 207c57 56 150 49 101 -55c-8 -19 -20 -39 -34 -61c156 79 329 -30 484 0c44 10 108 39 98 94z" />
    <glyph glyph-name="l.003" unicode="&#xe06f;" horiz-adv-x="186" 
d="M774 551c-2 13 19 18 22 4c13 -67 -59 -107 -114 -119c-175 -35 -379 107 -539 -39c-11 -9 -24 7 -15 16c38 38 64 79 80 113c29 61 6 69 -34 21c-63 -75 -119 -263 -135 -360c-7 -41 -6 -68 38 -24c35 35 79 94 109 137c8 12 24 0 16 -11c-30 -43 -74 -103 -110 -139
c-71 -73 -135 -39 -116 59c20 96 75 310 168 377c73 53 121 12 83 -68c-8 -19 -20 -39 -35 -61c157 79 330 -30 486 0c43 10 107 39 96 94z" />
    <glyph glyph-name="y.003" unicode="&#xe070;" horiz-adv-x="289" 
d="M78 339c-4 -14 -42 -125 -49 -173c-4 -27 1 -35 27 0c22 32 52 80 75 119c17 30 30 54 38 64c12 7 70 6 61 -29c-37 -127 -62 -280 -130 -393c-109 -178 -315 -39 -165 99c-138 -27 -283 49 -417 22c-44 -8 -109 -38 -98 -93c3 -14 -19 -18 -21 -4c-14 67 59 107 115 119
c155 31 333 -78 484 0c11 6 24 -11 11 -19c-196 -103 -68 -270 27 -114c42 71 88 251 112 336c-23 -40 -52 -87 -75 -119c-36 -49 -100 -63 -103 4c-1 62 33 159 42 182c8 28 70 13 66 -1z" />
    <glyph glyph-name="z.003" unicode="&#xe071;" horiz-adv-x="240" 
d="M-8 -62c18 30 58 118 66 176c7 46 -12 66 -58 81c-12 4 -8 23 4 20c49 -4 91 60 109 98c-23 -13 -51 -27 -72 -34c-47 -12 -55 17 -23 49c8 10 24 -3 16 -14c-11 -12 -19 -20 1 -13c27 7 67 28 87 45c31 15 72 -5 59 -34c-17 -41 -51 -93 -94 -111c31 -18 44 -42 39 -87
c-8 -69 -53 -169 -83 -206c-112 -144 -291 -11 -151 119c-138 -28 -284 49 -417 22c-45 -8 -109 -38 -98 -93c3 -14 -19 -18 -21 -4c-14 67 58 107 115 119c155 31 333 -78 484 0c11 6 23 -12 9 -19c-190 -100 -67 -272 28 -114z" />
    <glyph glyph-name="fi" unicode="&#xfb01;" horiz-adv-x="417" 
d="M315 353c-15 -51 -32 -100 -43 -154c-8 -39 -16 -89 36 -36c35 35 78 95 109 137c8 12 25 0 17 -12c-31 -43 -75 -103 -111 -140c-71 -73 -138 -42 -116 61c5 28 12 55 20 82c-79 -109 -143 -177 -198 -199c43 -20 82 -52 94 -100c38 -154 -217 -256 -209 -36
c4 103 94 423 150 483c61 64 122 18 85 -67c-13 -31 -41 -64 -88 -86c-20 -60 -36 -120 -53 -180c69 26 142 107 242 253c8 15 70 13 65 -6zM1 80c-11 -40 -19 -81 -20 -123c-7 -186 147 -74 122 28c-12 48 -58 79 -102 95zM70 313c31 19 51 43 61 66c18 41 13 99 -24 26
c-12 -22 -24 -56 -37 -92z" />
    <glyph glyph-name="fl" unicode="&#xfb02;" horiz-adv-x="419" 
d="M460 518c-25 -54 -77 -126 -148 -174c-20 -60 -34 -119 -40 -158c-7 -42 -6 -67 38 -23c35 35 78 94 109 137c8 10 24 0 16 -12c-30 -42 -74 -103 -110 -140c-70 -72 -134 -37 -116 59l7 36c-79 -104 -131 -128 -187 -151c43 -20 82 -52 94 -100
c38 -154 -217 -256 -209 -36c4 103 94 423 150 483c61 64 122 18 85 -67c-13 -31 -41 -64 -88 -86c-20 -60 -36 -120 -53 -180c68 26 123 47 221 190c28 105 76 240 147 290c74 53 121 12 84 -68zM1 80c-11 -40 -19 -81 -20 -123c-7 -186 147 -74 122 28
c-12 48 -58 79 -102 95zM322 376c57 44 100 104 120 148c29 63 6 69 -35 22c-37 -44 -68 -123 -85 -170zM70 313c31 19 51 43 61 66c18 41 13 99 -24 26c-12 -22 -24 -56 -37 -92z" />
    </font>
</defs>
</svg>
